Combined-Symbols-Regular-NO-CONFLICT.sfdir
StartChar: numbersign
Encoding: 35 35 80
Width: 1102
GlyphClass: 2
Flags: W
AnchorPoint: "Anchor-1" 551 715 basechar 0
LayerCount: 2
Fore
SplineSet
398 82 m 1,0,-1
 422 236 l 1,1,-1
 334 236 l 1,2,-1
 334 312 l 1,3,-1
 435 312 l 1,4,-1
 450 404 l 1,5,-1
 356 404 l 1,6,-1
 356 480 l 1,7,-1
 461 480 l 1,8,-1
 487 632 l 1,9,-1
 565 632 l 1,10,-1
 539 480 l 1,11,-1
 606 480 l 1,12,-1
 631 632 l 1,13,-1
 708 632 l 1,14,-1
 683 480 l 1,15,-1
 772 480 l 1,16,-1
 772 404 l 1,17,-1
 671 404 l 1,18,-1
 655 312 l 1,19,-1
 750 312 l 1,20,-1
 750 236 l 1,21,-1
 644 236 l 1,22,-1
 618 82 l 1,23,-1
 540 82 l 1,24,-1
 565 236 l 1,25,-1
 499 236 l 1,26,-1
 475 82 l 1,27,-1
 398 82 l 1,0,-1
512 312 m 1,28,-1
 578 312 l 1,29,-1
 594 404 l 1,30,-1
 528 404 l 1,31,-1
 512 312 l 1,28,-1
EndSplineSet
EndChar
StartChar: asterisk
Encoding: 42 42 2263
Width: 1102
GlyphClass: 2
Flags: W
AnchorPoint: "Anchor-1" 551 715 basechar 0
LayerCount: 2
Fore
SplineSet
609 298 m 1,0,-1
 550 409 l 1,1,-1
 493 299 l 1,2,-1
 419 343 l 1,3,-1
 494 441 l 1,4,-1
 378 457 l 1,5,-1
 396 537 l 1,6,-1
 516 506 l 1,7,-1
 506 632 l 1,8,-1
 596 632 l 1,9,-1
 586 505 l 1,10,-1
 707 539 l 1,11,-1
 724 455 l 1,12,-1
 608 441 l 1,13,-1
 684 343 l 1,14,-1
 609 298 l 1,0,-1
EndSplineSet
EndChar
StartChar: one
Encoding: 49 49 70
Width: 1102
GlyphClass: 2
Flags: W
AnchorPoint: "Anchor-1" 551 715 basechar 0
LayerCount: 2
Fore
SplineSet
520 82 m 1,0,-1
 520 400 l 2,1,2
 520 430 520 430 520.5 456 c 128,-1,3
 521 482 521 482 523 509 c 1,4,5
 511 502 511 502 500.5 495.5 c 128,-1,6
 490 489 490 489 481 484 c 2,7,-1
 429 455 l 1,8,-1
 379 545 l 1,9,-1
 540 632 l 1,10,-1
 631 632 l 1,11,-1
 631 82 l 1,12,-1
 520 82 l 1,0,-1
EndSplineSet
EndChar
StartChar: three
Encoding: 51 51 72
Width: 1102
GlyphClass: 2
Flags: W
AnchorPoint: "Anchor-1" 551 715 basechar 0
LayerCount: 2
Fore
SplineSet
529 75 m 0,0,1
 492 75 492 75 451 82.5 c 128,-1,2
 410 90 410 90 373 105 c 1,3,-1
 373 203 l 1,4,5
 408 187 408 187 447.5 178 c 128,-1,6
 487 169 487 169 520 169 c 0,7,8
 616 169 616 169 616 248 c 0,9,10
 616 288 616 288 588.5 304 c 128,-1,11
 561 320 561 320 495 320 c 2,12,-1
 453 320 l 1,13,-1
 453 409 l 1,14,-1
 496 409 l 2,15,16
 554 409 554 409 581 428 c 128,-1,17
 608 447 608 447 608 483 c 0,18,19
 608 508 608 508 593 526 c 128,-1,20
 578 544 578 544 541 544 c 0,21,22
 493 544 493 544 422 505 c 1,23,-1
 372 585 l 1,24,25
 410 611 410 611 455.5 625 c 128,-1,26
 501 639 501 639 547 639 c 0,27,28
 591 639 591 639 629 625.5 c 128,-1,29
 667 612 667 612 690.5 583 c 128,-1,30
 714 554 714 554 714 508 c 0,31,32
 714 460 714 460 686.5 422.5 c 128,-1,33
 659 385 659 385 607 372 c 1,34,-1
 607 369 l 1,35,36
 672 360 672 360 701 327.5 c 128,-1,37
 730 295 730 295 730 242 c 0,38,39
 730 184 730 184 703 147 c 128,-1,40
 676 110 676 110 630 92.5 c 128,-1,41
 584 75 584 75 529 75 c 0,0,1
EndSplineSet
EndChar
StartChar: seven
Encoding: 55 55 2242
Width: 1102
GlyphClass: 2
Flags: W
AnchorPoint: "Anchor-1" 551 715 basechar 0
LayerCount: 2
Fore
SplineSet
424 82 m 1,0,-1
 630 536 l 1,1,-1
 369 536 l 1,2,-1
 369 631 l 1,3,-1
 753 631 l 1,4,-1
 753 558 l 1,5,-1
 546 82 l 1,6,-1
 424 82 l 1,0,-1
EndSplineSet
EndChar
StartChar: A
Encoding: 65 65 2811
Width: 639
GlyphClass: 2
Flags: W
LayerCount: 2
Fore
SplineSet
0 0 m 1,0,-1
 279 717 l 1,1,-1
 360 717 l 1,2,-1
 638 0 l 1,3,-1
 545 0 l 1,4,-1
 459 221 l 1,5,-1
 176 221 l 1,6,-1
 91 0 l 1,7,-1
 0 0 l 1,0,-1
206 301 m 1,8,-1
 432 301 l 1,9,-1
 352 517 l 2,10,11
 349 525 349 525 342 546 c 128,-1,12
 335 567 335 567 328.5 589.5 c 128,-1,13
 322 612 322 612 318 624 c 1,14,15
 311 593 311 593 302 563.5 c 128,-1,16
 293 534 293 534 287 517 c 2,17,-1
 206 301 l 1,8,-1
EndSplineSet
EndChar
StartChar: B
Encoding: 66 66 5
Width: 650
GlyphClass: 2
Flags: W
LayerCount: 2
Fore
SplineSet
97 0 m 1,0,-1
 97 714 l 1,1,-1
 301 714 l 2,2,3
 435 714 435 714 503.5 674.5 c 128,-1,4
 572 635 572 635 572 537 c 0,5,6
 572 474 572 474 537 432.5 c 128,-1,7
 502 391 502 391 436 379 c 1,8,-1
 436 374 l 1,9,10
 481 367 481 367 517.5 348 c 128,-1,11
 554 329 554 329 575 294 c 128,-1,12
 596 259 596 259 596 203 c 0,13,14
 596 106 596 106 529.5 53 c 128,-1,15
 463 0 463 0 348 0 c 2,16,-1
 97 0 l 1,0,-1
187 410 m 1,17,-1
 319 410 l 2,18,19
 411 410 411 410 445 439.5 c 128,-1,20
 479 469 479 469 479 527 c 0,21,22
 479 586 479 586 437.5 611.5 c 128,-1,23
 396 637 396 637 305 637 c 2,24,-1
 187 637 l 1,25,-1
 187 410 l 1,17,-1
187 76 m 1,26,-1
 331 76 l 2,27,28
 426 76 426 76 463 113 c 128,-1,29
 500 150 500 150 500 210 c 0,30,31
 500 266 500 266 461.5 300.5 c 128,-1,32
 423 335 423 335 324 335 c 2,33,-1
 187 335 l 1,34,-1
 187 76 l 1,26,-1
EndSplineSet
EndChar
StartChar: E
Encoding: 69 69 2158
Width: 556
GlyphClass: 2
Flags: W
LayerCount: 2
Fore
SplineSet
97 0 m 1,0,-1
 97 714 l 1,1,-1
 496 714 l 1,2,-1
 496 635 l 1,3,-1
 187 635 l 1,4,-1
 187 412 l 1,5,-1
 478 412 l 1,6,-1
 478 334 l 1,7,-1
 187 334 l 1,8,-1
 187 79 l 1,9,-1
 496 79 l 1,10,-1
 496 0 l 1,11,-1
 97 0 l 1,0,-1
EndSplineSet
EndChar
StartChar: J
Encoding: 74 74 2563
Width: 273
GlyphClass: 2
Flags: W
LayerCount: 2
Fore
SplineSet
-4 -190 m 0,0,1
 -28 -190 -28 -190 -46 -186.5 c 128,-1,2
 -64 -183 -64 -183 -78 -177 c 1,3,-1
 -78 -101 l 1,4,5
 -62 -105 -62 -105 -44 -108 c 128,-1,6
 -26 -111 -26 -111 -6 -111 c 0,7,8
 19 -111 19 -111 41.5 -101 c 128,-1,9
 64 -91 64 -91 78 -66 c 128,-1,10
 92 -41 92 -41 92 4 c 2,11,-1
 92 714 l 1,12,-1
 182 714 l 1,13,-1
 182 11 l 2,14,15
 182 -92 182 -92 131 -141 c 128,-1,16
 80 -190 80 -190 -4 -190 c 0,0,1
EndSplineSet
EndChar
StartChar: K
Encoding: 75 75 14
Width: 619
GlyphClass: 2
Flags: W
LayerCount: 2
Fore
SplineSet
97 0 m 1,0,-1
 97 714 l 1,1,-1
 187 714 l 1,2,-1
 187 362 l 1,3,4
 217 396 217 396 248 430 c 128,-1,5
 279 464 279 464 310 498 c 2,6,-1
 503 714 l 1,7,-1
 608 714 l 1,8,-1
 325 403 l 1,9,-1
 619 0 l 1,10,-1
 513 0 l 1,11,-1
 260 341 l 1,12,-1
 187 277 l 1,13,-1
 187 0 l 1,14,-1
 97 0 l 1,0,-1
EndSplineSet
EndChar
StartChar: N
Encoding: 78 78 17
Width: 760
GlyphClass: 2
Flags: W
LayerCount: 2
Fore
SplineSet
97 0 m 1,0,-1
 97 714 l 1,1,-1
 201 714 l 1,2,-1
 582 123 l 1,3,-1
 586 123 l 1,4,5
 585 139 585 139 583.5 171 c 128,-1,6
 582 203 582 203 580.5 241 c 128,-1,7
 579 279 579 279 579 311 c 2,8,-1
 579 714 l 1,9,-1
 663 714 l 1,10,-1
 663 0 l 1,11,-1
 558 0 l 1,12,-1
 176 593 l 1,13,-1
 172 593 l 1,14,15
 174 558 174 558 177 506 c 128,-1,16
 180 454 180 454 180 399 c 2,17,-1
 180 0 l 1,18,-1
 97 0 l 1,0,-1
EndSplineSet
EndChar
StartChar: P
Encoding: 80 80 2594
Width: 605
GlyphClass: 2
Flags: W
LayerCount: 2
Fore
SplineSet
97 0 m 1,0,-1
 97 714 l 1,1,-1
 286 714 l 2,2,3
 426 714 426 714 490 659 c 128,-1,4
 554 604 554 604 554 504 c 0,5,6
 554 445 554 445 527.5 393.5 c 128,-1,7
 501 342 501 342 438.5 310 c 128,-1,8
 376 278 376 278 269 278 c 2,9,-1
 187 278 l 1,10,-1
 187 0 l 1,11,-1
 97 0 l 1,0,-1
187 355 m 1,12,-1
 259 355 l 2,13,14
 361 355 361 355 411 388 c 128,-1,15
 461 421 461 421 461 500 c 0,16,17
 461 569 461 569 417 603 c 128,-1,18
 373 637 373 637 278 637 c 2,19,-1
 187 637 l 1,20,-1
 187 355 l 1,12,-1
EndSplineSet
EndChar
StartChar: Q
Encoding: 81 81 20
Width: 781
GlyphClass: 2
Flags: W
LayerCount: 2
Fore
SplineSet
554 -170 m 1,0,-1
 416 -9 l 1,1,2
 410 -9 410 -9 403.5 -9.5 c 128,-1,3
 397 -10 397 -10 391 -10 c 0,4,5
 280 -10 280 -10 206.5 36 c 128,-1,6
 133 82 133 82 97 165 c 128,-1,7
 61 248 61 248 61 359 c 0,8,9
 61 469 61 469 97 551 c 128,-1,10
 133 633 133 633 206.5 679 c 128,-1,11
 280 725 280 725 392 725 c 0,12,13
 499 725 499 725 572 679.5 c 128,-1,14
 645 634 645 634 682.5 551.5 c 128,-1,15
 720 469 720 469 720 358 c 0,16,17
 720 227 720 227 667.5 135 c 128,-1,18
 615 43 615 43 512 8 c 1,19,-1
 683 -170 l 1,20,-1
 554 -170 l 1,0,-1
391 68 m 0,21,22
 513 68 513 68 569 145.5 c 128,-1,23
 625 223 625 223 625 358 c 256,24,25
 625 493 625 493 569 569.5 c 128,-1,26
 513 646 513 646 392 646 c 256,27,28
 271 646 271 646 213.5 569.5 c 128,-1,29
 156 493 156 493 156 358 c 256,30,31
 156 223 156 223 213 145.5 c 128,-1,32
 270 68 270 68 391 68 c 0,21,22
EndSplineSet
EndChar
StartChar: U
Encoding: 85 85 3099
Width: 731
GlyphClass: 2
Flags: W
LayerCount: 2
Fore
SplineSet
362 -10 m 0,0,1
 229 -10 229 -10 159.5 62.5 c 128,-1,2
 90 135 90 135 90 254 c 2,3,-1
 90 714 l 1,4,-1
 180 714 l 1,5,-1
 180 251 l 2,6,7
 180 164 180 164 226.5 116 c 128,-1,8
 273 68 273 68 367 68 c 0,9,10
 464 68 464 68 507.5 119.5 c 128,-1,11
 551 171 551 171 551 252 c 2,12,-1
 551 714 l 1,13,-1
 640 714 l 1,14,-1
 640 252 l 2,15,16
 640 178 640 178 610 118.5 c 128,-1,17
 580 59 580 59 518.5 24.5 c 128,-1,18
 457 -10 457 -10 362 -10 c 0,0,1
EndSplineSet
EndChar
StartChar: Z
Encoding: 90 90 29
Width: 572
GlyphClass: 2
Flags: W
LayerCount: 2
Fore
SplineSet
38 0 m 1,0,-1
 38 68 l 1,1,-1
 414 634 l 1,2,-1
 50 634 l 1,3,-1
 50 714 l 1,4,-1
 523 714 l 1,5,-1
 523 646 l 1,6,-1
 147 80 l 1,7,-1
 533 80 l 1,8,-1
 533 0 l 1,9,-1
 38 0 l 1,0,-1
EndSplineSet
EndChar
StartChar: a
Encoding: 97 97 160
Width: 561
GlyphClass: 2
Flags: W
LayerCount: 2
Fore
SplineSet
215 -10 m 0,0,1
 142 -10 142 -10 94 28.5 c 128,-1,2
 46 67 46 67 46 149 c 0,3,4
 46 229 46 229 109 272.5 c 128,-1,5
 172 316 172 316 303 320 c 2,6,-1
 394 323 l 1,7,-1
 394 355 l 2,8,9
 394 422 394 422 365 448 c 128,-1,10
 336 474 336 474 283 474 c 0,11,12
 241 474 241 474 203 461.5 c 128,-1,13
 165 449 165 449 132 433 c 1,14,-1
 105 499 l 1,15,16
 140 518 140 518 188 531.5 c 128,-1,17
 236 545 236 545 288 545 c 0,18,19
 386 545 386 545 433 502 c 128,-1,20
 480 459 480 459 480 365 c 2,21,-1
 480 0 l 1,22,-1
 416 0 l 1,23,-1
 399 76 l 1,24,-1
 395 76 l 1,25,26
 360 32 360 32 321.5 11 c 128,-1,27
 283 -10 283 -10 215 -10 c 0,0,1
235 61 m 0,28,29
 303 61 303 61 348 98.5 c 128,-1,30
 393 136 393 136 393 214 c 2,31,-1
 393 262 l 1,32,-1
 314 259 l 2,33,34
 214 255 214 255 175.5 227 c 128,-1,35
 137 199 137 199 137 148 c 0,36,37
 137 103 137 103 164.5 82 c 128,-1,38
 192 61 192 61 235 61 c 0,28,29
EndSplineSet
EndChar
StartChar: f
Encoding: 102 102 2062
Width: 344
GlyphClass: 2
Flags: W
LayerCount: 2
Fore
SplineSet
109 0 m 1,0,-1
 109 468 l 1,1,-1
 15 468 l 1,2,-1
 15 509 l 1,3,-1
 109 539 l 1,4,-1
 109 570 l 2,5,6
 109 674 109 674 155 719.5 c 128,-1,7
 201 765 201 765 283 765 c 0,8,9
 315 765 315 765 341.5 759.5 c 128,-1,10
 368 754 368 754 387 747 c 1,11,-1
 364 678 l 1,12,13
 348 683 348 683 327 688 c 128,-1,14
 306 693 306 693 284 693 c 0,15,16
 240 693 240 693 218.5 663.5 c 128,-1,17
 197 634 197 634 197 571 c 2,18,-1
 197 536 l 1,19,-1
 332 536 l 1,20,-1
 332 468 l 1,21,-1
 197 468 l 1,22,-1
 197 0 l 1,23,-1
 109 0 l 1,0,-1
EndSplineSet
EndChar
StartChar: g
Encoding: 103 103 166
Width: 615
GlyphClass: 2
Flags: W
LayerCount: 2
Fore
SplineSet
290 -240 m 0,0,1
 172 -240 172 -240 97 -206 c 1,2,-1
 97 -125 l 1,3,4
 176 -167 176 -167 295 -167 c 0,5,6
 364 -167 364 -167 403.5 -126.5 c 128,-1,7
 443 -86 443 -86 443 -16 c 2,8,-1
 443 5 l 2,9,10
 443 17 443 17 444 39.5 c 128,-1,11
 445 62 445 62 446 71 c 1,12,-1
 442 71 l 1,13,14
 388 -10 388 -10 276 -10 c 0,15,16
 172 -10 172 -10 113.5 63 c 128,-1,17
 55 136 55 136 55 267 c 0,18,19
 55 395 55 395 113.5 470.5 c 128,-1,20
 172 546 172 546 275 546 c 0,21,22
 328 546 328 546 370.5 526 c 128,-1,23
 413 506 413 506 443 465 c 1,24,-1
 448 465 l 1,25,-1
 460 536 l 1,26,-1
 530 536 l 1,27,-1
 530 -9 l 2,28,29
 530 -124 530 -124 471.5 -182 c 128,-1,30
 413 -240 413 -240 290 -240 c 0,0,1
289 62 m 0,31,32
 370 62 370 62 407 105.5 c 128,-1,33
 444 149 444 149 444 246 c 2,34,-1
 444 267 l 2,35,36
 444 377 444 377 406 424.5 c 128,-1,37
 368 472 368 472 287 472 c 0,38,39
 220 472 220 472 183 418.5 c 128,-1,40
 146 365 146 365 146 266 c 256,41,42
 146 167 146 167 182.5 114.5 c 128,-1,43
 219 62 219 62 289 62 c 0,31,32
EndSplineSet
EndChar
StartChar: h
Encoding: 104 104 2208
Width: 618
GlyphClass: 2
Flags: W
LayerCount: 2
Fore
SplineSet
85 0 m 1,0,-1
 85 760 l 1,1,-1
 173 760 l 1,2,-1
 173 537 l 2,3,4
 173 497 173 497 168 462 c 1,5,-1
 174 462 l 1,6,7
 200 503 200 503 244.5 524 c 128,-1,8
 289 545 289 545 341 545 c 0,9,10
 439 545 439 545 488 498.5 c 128,-1,11
 537 452 537 452 537 349 c 2,12,-1
 537 0 l 1,13,-1
 450 0 l 1,14,-1
 450 343 l 2,15,16
 450 472 450 472 330 472 c 0,17,18
 240 472 240 472 206.5 421.5 c 128,-1,19
 173 371 173 371 173 277 c 2,20,-1
 173 0 l 1,21,-1
 85 0 l 1,0,-1
EndSplineSet
EndChar
StartChar: j
Encoding: 106 106 169
Width: 258
GlyphClass: 2
Flags: W
LayerCount: 2
Fore
SplineSet
130 625 m 0,0,1
 108 625 108 625 93 639 c 128,-1,2
 78 653 78 653 78 681 c 0,3,4
 78 710 78 710 93 723.5 c 128,-1,5
 108 737 108 737 130 737 c 0,6,7
 150 737 150 737 165.5 723.5 c 128,-1,8
 181 710 181 710 181 681 c 0,9,10
 181 653 181 653 165.5 639 c 128,-1,11
 150 625 150 625 130 625 c 0,0,1
22 -240 m 0,12,13
 -3 -240 -3 -240 -22 -236.5 c 128,-1,14
 -41 -233 -41 -233 -55 -228 c 1,15,-1
 -55 -157 l 1,16,17
 -40 -161 -40 -161 -24 -164 c 128,-1,18
 -8 -167 -8 -167 11 -167 c 0,19,20
 43 -167 43 -167 64 -149.5 c 128,-1,21
 85 -132 85 -132 85 -83 c 2,22,-1
 85 536 l 1,23,-1
 173 536 l 1,24,-1
 173 -80 l 2,25,26
 173 -155 173 -155 137 -197.5 c 128,-1,27
 101 -240 101 -240 22 -240 c 0,12,13
EndSplineSet
EndChar
StartChar: k
Encoding: 107 107 3065
Width: 534
GlyphClass: 2
Flags: W
LayerCount: 2
Fore
SplineSet
85 0 m 1,0,-1
 85 760 l 1,1,-1
 172 760 l 1,2,-1
 172 363 l 2,3,4
 172 347 172 347 170.5 321 c 128,-1,5
 169 295 169 295 168 276 c 1,6,-1
 172 276 l 1,7,8
 178 284 178 284 190 299 c 128,-1,9
 202 314 202 314 214.5 329.5 c 128,-1,10
 227 345 227 345 236 355 c 2,11,-1
 407 536 l 1,12,-1
 510 536 l 1,13,-1
 293 307 l 1,14,-1
 525 0 l 1,15,-1
 419 0 l 1,16,-1
 233 250 l 1,17,-1
 172 197 l 1,18,-1
 172 0 l 1,19,-1
 85 0 l 1,0,-1
EndSplineSet
EndChar
StartChar: l
Encoding: 108 108 2425
Width: 258
GlyphClass: 2
Flags: W
LayerCount: 2
Fore
SplineSet
85 0 m 1,0,-1
 85 760 l 1,1,-1
 173 760 l 1,2,-1
 173 0 l 1,3,-1
 85 0 l 1,0,-1
EndSplineSet
EndChar
StartChar: o
Encoding: 111 111 2700
Width: 605
GlyphClass: 2
Flags: W
LayerCount: 2
Fore
SplineSet
301 -10 m 0,0,1
 230 -10 230 -10 174.5 22.5 c 128,-1,2
 119 55 119 55 87 117.5 c 128,-1,3
 55 180 55 180 55 269 c 0,4,5
 55 402 55 402 122 474 c 128,-1,6
 189 546 189 546 304 546 c 0,7,8
 377 546 377 546 432.5 513.5 c 128,-1,9
 488 481 488 481 519.5 419.5 c 128,-1,10
 551 358 551 358 551 269 c 0,11,12
 551 136 551 136 483.5 63 c 128,-1,13
 416 -10 416 -10 301 -10 c 0,0,1
303 63 m 0,14,15
 384 63 384 63 422 118.5 c 128,-1,16
 460 174 460 174 460 269 c 256,17,18
 460 364 460 364 422 418 c 128,-1,19
 384 472 384 472 302 472 c 256,20,21
 220 472 220 472 183 418 c 128,-1,22
 146 364 146 364 146 269 c 256,23,24
 146 174 146 174 183.5 118.5 c 128,-1,25
 221 63 221 63 303 63 c 0,14,15
EndSplineSet
EndChar
StartChar: r
Encoding: 114 114 2844
Width: 413
GlyphClass: 2
Flags: W
LayerCount: 2
Fore
SplineSet
85 0 m 1,0,-1
 85 536 l 1,1,-1
 157 536 l 1,2,-1
 167 438 l 1,3,-1
 171 438 l 1,4,5
 197 482 197 482 238 514 c 128,-1,6
 279 546 279 546 335 546 c 0,7,8
 350 546 350 546 367.5 544.5 c 128,-1,9
 385 543 385 543 398 540 c 1,10,-1
 387 459 l 1,11,12
 374 462 374 462 358.5 464 c 128,-1,13
 343 466 343 466 329 466 c 0,14,15
 288 466 288 466 252 443.5 c 128,-1,16
 216 421 216 421 194.5 380.5 c 128,-1,17
 173 340 173 340 173 286 c 2,18,-1
 173 0 l 1,19,-1
 85 0 l 1,0,-1
EndSplineSet
EndChar
StartChar: s
Encoding: 115 115 2998
Width: 479
GlyphClass: 2
Flags: W
LayerCount: 2
Fore
SplineSet
220 -10 m 0,0,1
 164 -10 164 -10 123.5 -1 c 128,-1,2
 83 8 83 8 52 24 c 1,3,-1
 52 104 l 1,4,5
 84 88 84 88 129.5 74.5 c 128,-1,6
 175 61 175 61 222 61 c 0,7,8
 289 61 289 61 319 82.5 c 128,-1,9
 349 104 349 104 349 140 c 0,10,11
 349 160 349 160 338 176 c 128,-1,12
 327 192 327 192 298.5 208 c 128,-1,13
 270 224 270 224 217 244 c 0,14,15
 165 264 165 264 128 284 c 128,-1,16
 91 304 91 304 71 332 c 128,-1,17
 51 360 51 360 51 404 c 0,18,19
 51 472 51 472 106.5 509 c 128,-1,20
 162 546 162 546 252 546 c 0,21,22
 301 546 301 546 343.5 536.5 c 128,-1,23
 386 527 386 527 423 510 c 1,24,-1
 393 440 l 1,25,26
 359 454 359 454 322 464 c 128,-1,27
 285 474 285 474 246 474 c 0,28,29
 192 474 192 474 163.5 456.5 c 128,-1,30
 135 439 135 439 135 409 c 0,31,32
 135 387 135 387 148 371.5 c 128,-1,33
 161 356 161 356 191.5 341.5 c 128,-1,34
 222 327 222 327 273 307 c 0,35,36
 324 288 324 288 360 268 c 128,-1,37
 396 248 396 248 415 219.5 c 128,-1,38
 434 191 434 191 434 148 c 0,39,40
 434 70 434 70 376 30 c 128,-1,41
 318 -10 318 -10 220 -10 c 0,0,1
EndSplineSet
EndChar
StartChar: x
Encoding: 120 120 2699
Width: 529
GlyphClass: 2
Flags: W
LayerCount: 2
Fore
SplineSet
18 0 m 1,0,-1
 212 274 l 1,1,-1
 27 536 l 1,2,-1
 127 536 l 1,3,-1
 265 334 l 1,4,-1
 402 536 l 1,5,-1
 501 536 l 1,6,-1
 316 274 l 1,7,-1
 511 0 l 1,8,-1
 411 0 l 1,9,-1
 265 214 l 1,10,-1
 117 0 l 1,11,-1
 18 0 l 1,0,-1
EndSplineSet
EndChar
StartChar: z
Encoding: 122 122 185
Width: 470
GlyphClass: 2
Flags: W
LayerCount: 2
Fore
SplineSet
39 0 m 1,0,-1
 39 58 l 1,1,-1
 327 468 l 1,2,-1
 56 468 l 1,3,-1
 56 536 l 1,4,-1
 424 536 l 1,5,-1
 424 470 l 1,6,-1
 140 68 l 1,7,-1
 431 68 l 1,8,-1
 431 0 l 1,9,-1
 39 0 l 1,0,-1
EndSplineSet
EndChar
StartChar: bullet
Encoding: 8226 8226 81
Width: 442
Flags: W
LayerCount: 2
Fore
SplineSet
221 192 m 256,0,1
 174 192 174 192 135.5 214.5 c 128,-1,2
 97 237 97 237 74 275.5 c 128,-1,3
 51 314 51 314 51 362 c 256,4,5
 51 410 51 410 74 448.5 c 128,-1,6
 97 487 97 487 135.5 509.5 c 128,-1,7
 174 532 174 532 221 532 c 256,8,9
 268 532 268 532 306.5 509 c 128,-1,10
 345 486 345 486 368 447 c 128,-1,11
 391 408 391 408 391 362 c 0,12,13
 391 315 391 315 368 276.5 c 128,-1,14
 345 238 345 238 306.5 215 c 128,-1,15
 268 192 268 192 221 192 c 256,0,1
EndSplineSet
EndChar
StartChar: enclosingcirclecomb
Encoding: 8413 8413 1085
Width: 0
Flags: W
LayerCount: 2
Fore
SplineSet
0 -292 m 256,0,1
 -108 -292 -108 -292 -205.5 -259 c 128,-1,2
 -303 -226 -303 -226 -384 -166.5 c 128,-1,3
 -465 -107 -465 -107 -524.5 -26 c 128,-1,4
 -584 55 -584 55 -617 152.5 c 128,-1,5
 -650 250 -650 250 -650 358 c 256,6,7
 -650 466 -650 466 -617 563.5 c 128,-1,8
 -584 661 -584 661 -524.5 742 c 128,-1,9
 -465 823 -465 823 -384 882.5 c 128,-1,10
 -303 942 -303 942 -205.5 975 c 128,-1,11
 -108 1008 -108 1008 0 1008 c 256,12,13
 108 1008 108 1008 205.5 975 c 128,-1,14
 303 942 303 942 384 882.5 c 128,-1,15
 465 823 465 823 524.5 742 c 128,-1,16
 584 661 584 661 617 563.5 c 128,-1,17
 650 466 650 466 650 358 c 256,18,19
 650 250 650 250 617 152.5 c 128,-1,20
 584 55 584 55 524.5 -26 c 128,-1,21
 465 -107 465 -107 384 -166.5 c 128,-1,22
 303 -226 303 -226 205.5 -259 c 128,-1,23
 108 -292 108 -292 0 -292 c 256,0,1
0 -230 m 256,24,25
 97 -230 97 -230 185.5 -200.5 c 128,-1,26
 274 -171 274 -171 347.5 -117 c 128,-1,27
 421 -63 421 -63 475 10.5 c 128,-1,28
 529 84 529 84 558.5 172.5 c 128,-1,29
 588 261 588 261 588 358 c 0,30,31
 588 456 588 456 558.5 544 c 128,-1,32
 529 632 529 632 475 705.5 c 128,-1,33
 421 779 421 779 347.5 833 c 128,-1,34
 274 887 274 887 186 916.5 c 128,-1,35
 98 946 98 946 0 946 c 0,36,37
 -97 946 -97 946 -185.5 916.5 c 128,-1,38
 -274 887 -274 887 -347.5 833 c 128,-1,39
 -421 779 -421 779 -475 705.5 c 128,-1,40
 -529 632 -529 632 -558.5 544 c 128,-1,41
 -588 456 -588 456 -588 358 c 0,42,43
 -588 261 -588 261 -558.5 172.5 c 128,-1,44
 -529 84 -529 84 -475 10.5 c 128,-1,45
 -421 -63 -421 -63 -347.5 -117 c 128,-1,46
 -274 -171 -274 -171 -185.5 -200.5 c 128,-1,47
 -97 -230 -97 -230 0 -230 c 256,24,25
EndSplineSet
EndChar
StartChar: enclosingsquarecomb
Encoding: 8414 8414 1089
Width: 0
Flags: W
LayerCount: 2
Fore
SplineSet
-660 -292 m 1,0,-1
 -660 1028 l 1,1,-1
 660 1028 l 1,2,-1
 660 -292 l 1,3,-1
 -660 -292 l 1,0,-1
-598 -230 m 1,4,-1
 598 -230 l 1,5,-1
 598 966 l 1,6,-1
 -598 966 l 1,7,-1
 -598 -230 l 1,4,-1
EndSplineSet
EndChar
StartChar: enclosingdiamondcomb
Encoding: 8415 8415 1086
Width: 0
Flags: W
LayerCount: 2
Fore
SplineSet
0 -565 m 1,0,-1
 -914 368 l 1,1,-1
 0 1301 l 1,2,-1
 914 368 l 1,3,-1
 0 -565 l 1,0,-1
0 -476 m 1,4,-1
 826 368 l 1,5,-1
 0 1212 l 1,6,-1
 -826 368 l 1,7,-1
 0 -476 l 1,4,-1
EndSplineSet
EndChar
StartChar: enclosingscreencomb
Encoding: 8418 8418 1088
Width: 0
Flags: W
LayerCount: 2
Fore
SplineSet
-1 -293 m 256,0,1
 -147 -293 -147 -293 -290.5 -286.5 c 128,-1,2
 -434 -280 -434 -280 -564 -268.5 c 128,-1,3
 -694 -257 -694 -257 -800 -241.5 c 128,-1,4
 -906 -226 -906 -226 -977 -208 c 1,5,6
 -1010 -103 -1010 -103 -1029.5 -10.5 c 128,-1,7
 -1049 82 -1049 82 -1058 178 c 128,-1,8
 -1067 274 -1067 274 -1067 387 c 0,9,10
 -1067 501 -1067 501 -1058 597.5 c 128,-1,11
 -1049 694 -1049 694 -1029 787.5 c 128,-1,12
 -1009 881 -1009 881 -977 984 c 1,13,14
 -905 1002 -905 1002 -798.5 1017.5 c 128,-1,15
 -692 1033 -692 1033 -562.5 1044.5 c 128,-1,16
 -433 1056 -433 1056 -290 1062.5 c 128,-1,17
 -147 1069 -147 1069 -2 1069 c 256,18,19
 143 1069 143 1069 286 1062.5 c 128,-1,20
 429 1056 429 1056 559 1044.5 c 128,-1,21
 689 1033 689 1033 796 1017.5 c 128,-1,22
 903 1002 903 1002 975 984 c 1,23,24
 1001 905 1001 905 1018.5 834 c 128,-1,25
 1036 763 1036 763 1046.5 693.5 c 128,-1,26
 1057 624 1057 624 1062 549 c 128,-1,27
 1067 474 1067 474 1067 387 c 256,28,29
 1067 300 1067 300 1062 225 c 128,-1,30
 1057 150 1057 150 1046.5 81 c 128,-1,31
 1036 12 1036 12 1018.5 -58.5 c 128,-1,32
 1001 -129 1001 -129 975 -208 c 1,33,34
 903 -226 903 -226 796.5 -241.5 c 128,-1,35
 690 -257 690 -257 560.5 -268.5 c 128,-1,36
 431 -280 431 -280 288 -286.5 c 128,-1,37
 145 -293 145 -293 -1 -293 c 256,0,1
-1 -231 m 0,38,39
 103 -231 103 -231 214 -227 c 128,-1,40
 325 -223 325 -223 432 -215.5 c 128,-1,41
 539 -208 539 -208 635.5 -198 c 128,-1,42
 732 -188 732 -188 808 -177 c 128,-1,43
 884 -166 884 -166 931 -155 c 1,44,45
 1005 56 1005 56 1005 387 c 0,46,47
 1005 544 1005 544 987.5 678.5 c 128,-1,48
 970 813 970 813 931 931 c 1,49,50
 862 947 862 947 757.5 960.5 c 128,-1,51
 653 974 653 974 526.5 984.5 c 128,-1,52
 400 995 400 995 265 1001 c 128,-1,53
 130 1007 130 1007 -1 1007 c 0,54,55
 -103 1007 -103 1007 -210 1003 c 128,-1,56
 -317 999 -317 999 -421 992 c 128,-1,57
 -525 985 -525 985 -620 975.5 c 128,-1,58
 -715 966 -715 966 -794.5 955 c 128,-1,59
 -874 944 -874 944 -930 931 c 1,60,61
 -967 832 -967 832 -986 696 c 128,-1,62
 -1005 560 -1005 560 -1005 387 c 0,63,64
 -1005 219 -1005 219 -985 77.5 c 128,-1,65
 -965 -64 -965 -64 -930 -155 c 1,66,67
 -884 -166 -884 -166 -808 -177 c 128,-1,68
 -732 -188 -732 -188 -635.5 -198 c 128,-1,69
 -539 -208 -539 -208 -431.5 -215.5 c 128,-1,70
 -324 -223 -324 -223 -214 -227 c 128,-1,71
 -104 -231 -104 -231 -1 -231 c 0,38,39
EndSplineSet
EndChar
StartChar: uni20E2
Encoding: 8418 8418 1941
Width: 0
Flags: W
LayerCount: 2
Fore
SplineSet
-1 -193 m 256,0,1
 -120 -193 -120 -193 -237 -188 c 128,-1,2
 -354 -183 -354 -183 -460 -173.5 c 128,-1,3
 -566 -164 -566 -164 -652.5 -151.5 c 128,-1,4
 -739 -139 -739 -139 -796 -124 c 1,5,6
 -823 -38 -823 -38 -839.5 37.5 c 128,-1,7
 -856 113 -856 113 -863 190.5 c 128,-1,8
 -870 268 -870 268 -870 361 c 256,9,10
 -870 454 -870 454 -862.5 533 c 128,-1,11
 -855 612 -855 612 -838.5 688 c 128,-1,12
 -822 764 -822 764 -796 848 c 1,13,14
 -737 863 -737 863 -650.5 875.5 c 128,-1,15
 -564 888 -564 888 -458.5 897.5 c 128,-1,16
 -353 907 -353 907 -236.5 912 c 128,-1,17
 -120 917 -120 917 -2 917 c 256,18,19
 116 917 116 917 233 912 c 128,-1,20
 350 907 350 907 455.5 897.5 c 128,-1,21
 561 888 561 888 648 875.5 c 128,-1,22
 735 863 735 863 794 848 c 1,23,24
 822 762 822 762 838.5 687 c 128,-1,25
 855 612 855 612 862.5 534 c 128,-1,26
 870 456 870 456 870 361 c 256,27,28
 870 266 870 266 862.5 188.5 c 128,-1,29
 855 111 855 111 838.5 36.5 c 128,-1,30
 822 -38 822 -38 794 -124 c 1,31,32
 735 -139 735 -139 648.5 -151.5 c 128,-1,33
 562 -164 562 -164 456.5 -173.5 c 128,-1,34
 351 -183 351 -183 234.5 -188 c 128,-1,35
 118 -193 118 -193 -1 -193 c 256,0,1
-1 -90 m 0,36,37
 98 -90 98 -90 204 -85.5 c 128,-1,38
 310 -81 310 -81 408.5 -73 c 128,-1,39
 507 -65 507 -65 585 -55.5 c 128,-1,40
 663 -46 663 -46 708 -35 c 1,41,42
 764 119 764 119 764 361 c 0,43,44
 764 476 764 476 751 574 c 128,-1,45
 738 672 738 672 708 759 c 1,46,47
 656 770 656 770 576 780 c 128,-1,48
 496 790 496 790 400 797.5 c 128,-1,49
 304 805 304 805 201 809.5 c 128,-1,50
 98 814 98 814 -1 814 c 0,51,52
 -98 814 -98 814 -200 809.5 c 128,-1,53
 -302 805 -302 805 -397.5 797.5 c 128,-1,54
 -493 790 -493 790 -573.5 780 c 128,-1,55
 -654 770 -654 770 -707 759 c 1,56,57
 -764 614 -764 614 -764 361 c 0,58,59
 -764 238 -764 238 -749 134.5 c 128,-1,60
 -734 31 -734 31 -707 -35 c 1,61,62
 -672 -43 -672 -43 -614 -51 c 128,-1,63
 -556 -59 -556 -59 -483 -66 c 128,-1,64
 -410 -73 -410 -73 -328.5 -78.5 c 128,-1,65
 -247 -84 -247 -84 -163 -87 c 128,-1,66
 -79 -90 -79 -90 -1 -90 c 0,36,37
EndSplineSet
EndChar
StartChar: enclosingkeycapcomb
Encoding: 8419 8419 2352
Width: 0
Flags: W
LayerCount: 2
Fore
SplineSet
-335 -10 m 2,0,1
 -374 -10 -374 -10 -398 13.5 c 128,-1,2
 -422 37 -422 37 -422 76 c 2,3,-1
 -422 746 l 2,4,5
 -422 785 -422 785 -398 808.5 c 128,-1,6
 -374 832 -374 832 -335 832 c 2,7,-1
 336 832 l 2,8,9
 375 832 375 832 398.5 808.5 c 128,-1,10
 422 785 422 785 422 746 c 2,11,-1
 422 76 l 2,12,13
 422 37 422 37 398.5 13.5 c 128,-1,14
 375 -10 375 -10 336 -10 c 2,15,-1
 -335 -10 l 2,0,1
398 52 m 1,16,-1
 398 733 l 2,17,18
 398 765 398 765 378.5 786.5 c 128,-1,19
 359 808 359 808 327 808 c 2,20,-1
 -355 808 l 1,21,-1
 -282 748 l 1,22,-1
 247 748 l 2,23,24
 314 748 314 748 314 678 c 2,25,-1
 314 93 l 1,26,-1
 398 52 l 1,16,-1
-197 122 m 2,27,-1
 198 122 l 2,28,29
 236 122 236 122 251 137 c 128,-1,30
 266 152 266 152 266 190 c 2,31,-1
 266 631 l 2,32,33
 266 669 266 669 251 684.5 c 128,-1,34
 236 700 236 700 198 700 c 2,35,-1
 -197 700 l 2,36,37
 -234 700 -234 700 -249.5 684 c 128,-1,38
 -265 668 -265 668 -265 631 c 2,39,-1
 -265 190 l 2,40,41
 -265 153 -265 153 -249.5 137.5 c 128,-1,42
 -234 122 -234 122 -197 122 c 2,27,-1
EndSplineSet
EndChar
StartChar: enclosingupwardpointingtrianglecomb
Encoding: 8420 8420 1090
Width: 0
Flags: W
LayerCount: 2
Fore
SplineSet
-963 -193 m 1,0,-1
 0 1471 l 1,1,-1
 963 -193 l 1,2,-1
 -963 -193 l 1,0,-1
-855 -131 m 1,3,-1
 855 -131 l 1,4,-1
 0 1349 l 1,5,-1
 -855 -131 l 1,3,-1
EndSplineSet
EndChar
StartChar: Three-roman
Encoding: 8546 8546 2284
Width: 1017
Flags: W
LayerCount: 2
Fore
SplineSet
718 0 m 1,0,-1
 718 52 l 1,1,-1
 802 71 l 1,2,-1
 802 642 l 1,3,-1
 718 662 l 1,4,-1
 718 714 l 1,5,-1
 976 714 l 1,6,-1
 976 662 l 1,7,-1
 892 642 l 1,8,-1
 892 71 l 1,9,-1
 976 52 l 1,10,-1
 976 0 l 1,11,-1
 718 0 l 1,0,-1
40 0 m 1,12,-1
 40 52 l 1,13,-1
 124 71 l 1,14,-1
 124 642 l 1,15,-1
 40 662 l 1,16,-1
 40 714 l 1,17,-1
 298 714 l 1,18,-1
 298 662 l 1,19,-1
 214 642 l 1,20,-1
 214 71 l 1,21,-1
 298 52 l 1,22,-1
 298 0 l 1,23,-1
 40 0 l 1,12,-1
379 0 m 1,24,-1
 379 52 l 1,25,-1
 463 71 l 1,26,-1
 463 642 l 1,27,-1
 379 662 l 1,28,-1
 379 714 l 1,29,-1
 637 714 l 1,30,-1
 637 662 l 1,31,-1
 553 642 l 1,32,-1
 553 71 l 1,33,-1
 637 52 l 1,34,-1
 637 0 l 1,35,-1
 379 0 l 1,24,-1
EndSplineSet
EndChar
StartChar: Four-roman
Encoding: 8547 8547 505
Width: 939
Flags: W
LayerCount: 2
Fore
SplineSet
594 0 m 1,0,-1
 339 714 l 1,1,-1
 433 714 l 1,2,-1
 594 256 l 2,3,4
 610 212 610 212 621 173.5 c 128,-1,5
 632 135 632 135 639 100 c 1,6,7
 646 135 646 135 657 174 c 128,-1,8
 668 213 668 213 684 258 c 2,9,-1
 844 714 l 1,10,-1
 939 714 l 1,11,-1
 684 0 l 1,12,-1
 594 0 l 1,0,-1
40 0 m 1,13,-1
 40 52 l 1,14,-1
 124 71 l 1,15,-1
 124 642 l 1,16,-1
 40 662 l 1,17,-1
 40 714 l 1,18,-1
 298 714 l 1,19,-1
 298 662 l 1,20,-1
 214 642 l 1,21,-1
 214 71 l 1,22,-1
 298 52 l 1,23,-1
 298 0 l 1,24,-1
 40 0 l 1,13,-1
EndSplineSet
EndChar
StartChar: Five-roman
Encoding: 8548 8548 506
Width: 600
Flags: W
LayerCount: 2
Fore
SplineSet
255 0 m 1,0,-1
 0 714 l 1,1,-1
 94 714 l 1,2,-1
 255 256 l 2,3,4
 271 212 271 212 282 173.5 c 128,-1,5
 293 135 293 135 300 100 c 1,6,7
 307 135 307 135 318 174 c 128,-1,8
 329 213 329 213 345 258 c 2,9,-1
 505 714 l 1,10,-1
 600 714 l 1,11,-1
 345 0 l 1,12,-1
 255 0 l 1,0,-1
EndSplineSet
EndChar
StartChar: Seven-roman
Encoding: 8550 8550 508
Width: 1278
Flags: W
LayerCount: 2
Fore
SplineSet
255 0 m 1,0,-1
 0 714 l 1,1,-1
 94 714 l 1,2,-1
 255 256 l 2,3,4
 271 212 271 212 282 173.5 c 128,-1,5
 293 135 293 135 300 100 c 1,6,7
 307 135 307 135 318 174 c 128,-1,8
 329 213 329 213 345 258 c 2,9,-1
 505 714 l 1,10,-1
 600 714 l 1,11,-1
 345 0 l 1,12,-1
 255 0 l 1,0,-1
640 0 m 1,13,-1
 640 52 l 1,14,-1
 724 71 l 1,15,-1
 724 642 l 1,16,-1
 640 662 l 1,17,-1
 640 714 l 1,18,-1
 898 714 l 1,19,-1
 898 662 l 1,20,-1
 814 642 l 1,21,-1
 814 71 l 1,22,-1
 898 52 l 1,23,-1
 898 0 l 1,24,-1
 640 0 l 1,13,-1
979 0 m 1,25,-1
 979 52 l 1,26,-1
 1063 71 l 1,27,-1
 1063 642 l 1,28,-1
 979 662 l 1,29,-1
 979 714 l 1,30,-1
 1237 714 l 1,31,-1
 1237 662 l 1,32,-1
 1153 642 l 1,33,-1
 1153 71 l 1,34,-1
 1237 52 l 1,35,-1
 1237 0 l 1,36,-1
 979 0 l 1,25,-1
EndSplineSet
EndChar
StartChar: Twelve-roman
Encoding: 8555 8555 2448
Width: 1264
Flags: W
LayerCount: 2
Fore
SplineSet
4 0 m 1,0,-1
 241 372 l 1,1,-1
 19 714 l 1,2,-1
 119 714 l 1,3,-1
 294 434 l 1,4,-1
 470 714 l 1,5,-1
 565 714 l 1,6,-1
 344 374 l 1,7,-1
 582 0 l 1,8,-1
 480 0 l 1,9,-1
 291 310 l 1,10,-1
 99 0 l 1,11,-1
 4 0 l 1,0,-1
626 0 m 1,12,-1
 626 52 l 1,13,-1
 710 71 l 1,14,-1
 710 642 l 1,15,-1
 626 662 l 1,16,-1
 626 714 l 1,17,-1
 884 714 l 1,18,-1
 884 662 l 1,19,-1
 800 642 l 1,20,-1
 800 71 l 1,21,-1
 884 52 l 1,22,-1
 884 0 l 1,23,-1
 626 0 l 1,12,-1
965 0 m 1,24,-1
 965 52 l 1,25,-1
 1049 71 l 1,26,-1
 1049 642 l 1,27,-1
 965 662 l 1,28,-1
 965 714 l 1,29,-1
 1223 714 l 1,30,-1
 1223 662 l 1,31,-1
 1139 642 l 1,32,-1
 1139 71 l 1,33,-1
 1223 52 l 1,34,-1
 1223 0 l 1,35,-1
 965 0 l 1,24,-1
EndSplineSet
EndChar
StartChar: Hundred-roman
Encoding: 8557 8557 515
Width: 632
Flags: W
LayerCount: 2
Fore
SplineSet
389 -10 m 0,0,1
 280 -10 280 -10 207 35 c 128,-1,2
 134 80 134 80 97.5 163 c 128,-1,3
 61 246 61 246 61 358 c 0,4,5
 61 466 61 466 100.5 548.5 c 128,-1,6
 140 631 140 631 217 677.5 c 128,-1,7
 294 724 294 724 404 724 c 0,8,9
 517 724 517 724 601 682 c 1,10,-1
 565 606 l 1,11,12
 532 621 532 621 491.5 633 c 128,-1,13
 451 645 451 645 403 645 c 0,14,15
 288 645 288 645 222 568 c 128,-1,16
 156 491 156 491 156 357 c 0,17,18
 156 224 156 224 217.5 146.5 c 128,-1,19
 279 69 279 69 402 69 c 0,20,21
 449 69 449 69 491 77 c 128,-1,22
 533 85 533 85 573 97 c 1,23,-1
 573 19 l 1,24,25
 533 4 533 4 490.5 -3 c 128,-1,26
 448 -10 448 -10 389 -10 c 0,0,1
EndSplineSet
EndChar
StartChar: one-roman
Encoding: 8560 8560 2043
Width: 258
Flags: W
LayerCount: 2
Fore
SplineSet
130 614 m 0,0,1
 108 614 108 614 93 628 c 128,-1,2
 78 642 78 642 78 670 c 0,3,4
 78 699 78 699 93 712.5 c 128,-1,5
 108 726 108 726 130 726 c 0,6,7
 150 726 150 726 165.5 712.5 c 128,-1,8
 181 699 181 699 181 670 c 0,9,10
 181 642 181 642 165.5 628 c 128,-1,11
 150 614 150 614 130 614 c 0,0,1
85 0 m 1,12,-1
 85 536 l 1,13,-1
 173 536 l 1,14,-1
 173 0 l 1,15,-1
 85 0 l 1,12,-1
EndSplineSet
EndChar
StartChar: two-roman
Encoding: 8561 8561 519
Width: 516
Flags: W
LayerCount: 2
Fore
SplineSet
130 614 m 0,0,1
 108 614 108 614 93 628 c 128,-1,2
 78 642 78 642 78 670 c 0,3,4
 78 699 78 699 93 712.5 c 128,-1,5
 108 726 108 726 130 726 c 0,6,7
 150 726 150 726 165.5 712.5 c 128,-1,8
 181 699 181 699 181 670 c 0,9,10
 181 642 181 642 165.5 628 c 128,-1,11
 150 614 150 614 130 614 c 0,0,1
388 614 m 0,12,13
 366 614 366 614 351 628 c 128,-1,14
 336 642 336 642 336 670 c 0,15,16
 336 699 336 699 351 712.5 c 128,-1,17
 366 726 366 726 388 726 c 0,18,19
 408 726 408 726 423.5 712.5 c 128,-1,20
 439 699 439 699 439 670 c 0,21,22
 439 642 439 642 423.5 628 c 128,-1,23
 408 614 408 614 388 614 c 0,12,13
343 0 m 1,24,-1
 343 536 l 1,25,-1
 431 536 l 1,26,-1
 431 0 l 1,27,-1
 343 0 l 1,24,-1
85 0 m 1,28,-1
 85 536 l 1,29,-1
 173 536 l 1,30,-1
 173 0 l 1,31,-1
 85 0 l 1,28,-1
EndSplineSet
EndChar
StartChar: five-roman
Encoding: 8564 8564 522
Width: 508
Flags: W
LayerCount: 2
Fore
SplineSet
203 0 m 1,0,-1
 0 536 l 1,1,-1
 94 536 l 1,2,-1
 208 220 l 2,3,4
 216 198 216 198 225 171 c 128,-1,5
 234 144 234 144 241 119.5 c 128,-1,6
 248 95 248 95 251 78 c 1,7,-1
 255 78 l 1,8,9
 259 95 259 95 266.5 120 c 128,-1,10
 274 145 274 145 283.5 172 c 128,-1,11
 293 199 293 199 300 220 c 2,12,-1
 414 536 l 1,13,-1
 508 536 l 1,14,-1
 304 0 l 1,15,-1
 203 0 l 1,0,-1
EndSplineSet
EndChar
StartChar: seven-roman
Encoding: 8566 8566 2792
Width: 1024
Flags: W
LayerCount: 2
Fore
SplineSet
638 614 m 0,0,1
 616 614 616 614 601 628 c 128,-1,2
 586 642 586 642 586 670 c 0,3,4
 586 699 586 699 601 712.5 c 128,-1,5
 616 726 616 726 638 726 c 0,6,7
 658 726 658 726 673.5 712.5 c 128,-1,8
 689 699 689 699 689 670 c 0,9,10
 689 642 689 642 673.5 628 c 128,-1,11
 658 614 658 614 638 614 c 0,0,1
896 614 m 0,12,13
 874 614 874 614 859 628 c 128,-1,14
 844 642 844 642 844 670 c 0,15,16
 844 699 844 699 859 712.5 c 128,-1,17
 874 726 874 726 896 726 c 0,18,19
 916 726 916 726 931.5 712.5 c 128,-1,20
 947 699 947 699 947 670 c 0,21,22
 947 642 947 642 931.5 628 c 128,-1,23
 916 614 916 614 896 614 c 0,12,13
203 0 m 1,24,-1
 0 536 l 1,25,-1
 94 536 l 1,26,-1
 208 220 l 2,27,28
 216 198 216 198 225 171 c 128,-1,29
 234 144 234 144 241 119.5 c 128,-1,30
 248 95 248 95 251 78 c 1,31,-1
 255 78 l 1,32,33
 259 95 259 95 266.5 120 c 128,-1,34
 274 145 274 145 283 172 c 128,-1,35
 292 199 292 199 300 220 c 2,36,-1
 414 536 l 1,37,-1
 508 536 l 1,38,-1
 304 0 l 1,39,-1
 203 0 l 1,24,-1
593 0 m 1,40,-1
 593 536 l 1,41,-1
 681 536 l 1,42,-1
 681 0 l 1,43,-1
 593 0 l 1,40,-1
851 0 m 1,44,-1
 851 536 l 1,45,-1
 938 536 l 1,46,-1
 938 0 l 1,47,-1
 851 0 l 1,44,-1
EndSplineSet
EndChar
StartChar: onethousand-roman
Encoding: 8575 8575 2108
Width: 935
Flags: W
LayerCount: 2
Fore
SplineSet
85 0 m 1,0,-1
 85 536 l 1,1,-1
 156 536 l 1,2,-1
 169 463 l 1,3,-1
 174 463 l 1,4,5
 199 505 199 505 241.5 525.5 c 128,-1,6
 284 546 284 546 332 546 c 0,7,8
 458 546 458 546 496 456 c 1,9,-1
 501 456 l 1,10,11
 528 502 528 502 574.5 524 c 128,-1,12
 621 546 621 546 673 546 c 0,13,14
 764 546 764 546 809 499.5 c 128,-1,15
 854 453 854 453 854 349 c 2,16,-1
 854 0 l 1,17,-1
 767 0 l 1,18,-1
 767 345 l 2,19,20
 767 472 767 472 658 472 c 0,21,22
 580 472 580 472 546.5 427 c 128,-1,23
 513 382 513 382 513 296 c 2,24,-1
 513 0 l 1,25,-1
 426 0 l 1,26,-1
 426 345 l 2,27,28
 426 472 426 472 316 472 c 0,29,30
 235 472 235 472 204 422 c 128,-1,31
 173 372 173 372 173 278 c 2,32,-1
 173 0 l 1,33,-1
 85 0 l 1,0,-1
EndSplineSet
EndChar
StartChar: Onethousandcd-roman
Encoding: 8576 8576 2614
Width: 1161
Flags: W
LayerCount: 2
Fore
SplineSet
423 0 m 2,0,1
 246 0 246 0 147 92.5 c 128,-1,2
 48 185 48 185 48 367 c 0,3,4
 48 482 48 482 91.5 560.5 c 128,-1,5
 135 639 135 639 214.5 679 c 128,-1,6
 294 719 294 719 402 719 c 2,7,-1
 759 719 l 2,8,9
 867 719 867 719 946.5 679 c 128,-1,10
 1026 639 1026 639 1069.5 560.5 c 128,-1,11
 1113 482 1113 482 1113 367 c 0,12,13
 1113 185 1113 185 1014 92.5 c 128,-1,14
 915 0 915 0 738 0 c 2,15,-1
 423 0 l 2,0,1
431 87 m 2,16,-1
 532 87 l 1,17,-1
 532 632 l 1,18,-1
 412 632 l 2,19,20
 287 632 287 632 218 567 c 128,-1,21
 149 502 149 502 149 364 c 0,22,23
 149 87 149 87 431 87 c 2,16,-1
629 87 m 1,24,-1
 730 87 l 2,25,26
 1012 87 1012 87 1012 364 c 0,27,28
 1012 502 1012 502 943.5 567 c 128,-1,29
 875 632 875 632 749 632 c 2,30,-1
 629 632 l 1,31,-1
 629 87 l 1,24,-1
EndSplineSet
EndChar
StartChar: Fivethousand-roman
Encoding: 8577 8577 2754
Width: 707
Flags: W
LayerCount: 2
Fore
SplineSet
77 0 m 1,0,-1
 77 720 l 1,1,-1
 305 720 l 2,2,3
 413 720 413 720 492.5 680 c 128,-1,4
 572 640 572 640 615.5 561.5 c 128,-1,5
 659 483 659 483 659 367 c 0,6,7
 659 186 659 186 560 93 c 128,-1,8
 461 0 461 0 284 0 c 2,9,-1
 77 0 l 1,0,-1
175 87 m 1,10,-1
 276 87 l 2,11,12
 558 87 558 87 558 364 c 0,13,14
 558 503 558 503 489 568 c 128,-1,15
 420 633 420 633 295 633 c 2,16,-1
 175 633 l 1,17,-1
 175 565 l 1,18,-1
 255 565 l 2,19,20
 349 565 349 565 404.5 514 c 128,-1,21
 460 463 460 463 460 364 c 0,22,23
 460 261 460 261 403 208 c 128,-1,24
 346 155 346 155 243 155 c 2,25,-1
 175 155 l 1,26,-1
 175 87 l 1,10,-1
175 205 m 1,27,-1
 224 205 l 2,28,29
 387 205 387 205 387 363 c 0,30,31
 387 442 387 442 347.5 479 c 128,-1,32
 308 516 308 516 234 516 c 2,33,-1
 175 516 l 1,34,-1
 175 205 l 1,27,-1
EndSplineSet
EndChar
StartChar: fiftythousand-roman
Encoding: 8583 8583 540
Width: 707
Flags: W
LayerCount: 2
Fore
SplineSet
77 0 m 1,0,-1
 77 719 l 1,1,-1
 305 719 l 2,2,3
 413 719 413 719 492.5 679 c 128,-1,4
 572 639 572 639 615.5 560.5 c 128,-1,5
 659 482 659 482 659 367 c 0,6,7
 659 185 659 185 560 92.5 c 128,-1,8
 461 0 461 0 284 0 c 2,9,-1
 77 0 l 1,0,-1
175 87 m 1,10,-1
 276 87 l 2,11,12
 558 87 558 87 558 364 c 0,13,14
 558 502 558 502 489 567 c 128,-1,15
 420 632 420 632 295 632 c 2,16,-1
 175 632 l 1,17,-1
 175 604 l 1,18,-1
 263 604 l 2,19,20
 374 604 374 604 439 543 c 128,-1,21
 504 482 504 482 504 365 c 0,22,23
 504 241 504 241 437 178 c 128,-1,24
 370 115 370 115 249 115 c 2,25,-1
 175 115 l 1,26,-1
 175 87 l 1,10,-1
175 174 m 1,27,-1
 239 174 l 2,28,29
 431 174 431 174 431 363 c 0,30,31
 431 457 431 457 384.5 501 c 128,-1,32
 338 545 338 545 252 545 c 2,33,-1
 175 545 l 1,34,-1
 175 514 l 1,35,-1
 230 514 l 2,36,37
 301 514 301 514 342 475.5 c 128,-1,38
 383 437 383 437 383 363 c 0,39,40
 383 284 383 284 340.5 244.5 c 128,-1,41
 298 205 298 205 222 205 c 2,42,-1
 175 205 l 1,43,-1
 175 174 l 1,27,-1
175 243 m 1,44,-1
 199 243 l 2,45,46
 320 243 320 243 320 361 c 0,47,48
 320 421 320 421 290.5 449 c 128,-1,49
 261 477 261 477 207 477 c 2,50,-1
 175 477 l 1,51,-1
 175 243 l 1,44,-1
EndSplineSet
EndChar
StartChar: Onehundredthousand-roman
Encoding: 8584 8584 2048
Width: 1162
Flags: W
LayerCount: 2
Fore
SplineSet
423 0 m 2,0,1
 246 0 246 0 147 92.5 c 128,-1,2
 48 185 48 185 48 367 c 0,3,4
 48 482 48 482 91.5 560.5 c 128,-1,5
 135 639 135 639 214.5 679 c 128,-1,6
 294 719 294 719 402 719 c 2,7,-1
 760 719 l 2,8,9
 868 719 868 719 947.5 679 c 128,-1,10
 1027 639 1027 639 1070.5 560.5 c 128,-1,11
 1114 482 1114 482 1114 367 c 0,12,13
 1114 185 1114 185 1015 92.5 c 128,-1,14
 916 0 916 0 739 0 c 2,15,-1
 423 0 l 2,0,1
431 87 m 2,16,-1
 532 87 l 1,17,-1
 532 115 l 1,18,-1
 458 115 l 2,19,20
 337 115 337 115 270 178 c 128,-1,21
 203 241 203 241 203 365 c 0,22,23
 203 482 203 482 268 543 c 128,-1,24
 333 604 333 604 444 604 c 2,25,-1
 532 604 l 1,26,-1
 532 632 l 1,27,-1
 412 632 l 2,28,29
 287 632 287 632 218 567 c 128,-1,30
 149 502 149 502 149 364 c 0,31,32
 149 87 149 87 431 87 c 2,16,-1
630 87 m 1,33,-1
 731 87 l 2,34,35
 1013 87 1013 87 1013 364 c 0,36,37
 1013 502 1013 502 944 567 c 128,-1,38
 875 632 875 632 750 632 c 2,39,-1
 630 632 l 1,40,-1
 630 604 l 1,41,-1
 718 604 l 2,42,43
 829 604 829 604 894 543 c 128,-1,44
 959 482 959 482 959 365 c 0,45,46
 959 241 959 241 892 178 c 128,-1,47
 825 115 825 115 704 115 c 2,48,-1
 630 115 l 1,49,-1
 630 87 l 1,33,-1
468 174 m 2,50,-1
 532 174 l 1,51,-1
 532 205 l 1,52,-1
 485 205 l 2,53,54
 409 205 409 205 366.5 244.5 c 128,-1,55
 324 284 324 284 324 363 c 0,56,57
 324 437 324 437 365.5 475.5 c 128,-1,58
 407 514 407 514 477 514 c 2,59,-1
 532 514 l 1,60,-1
 532 545 l 1,61,-1
 455 545 l 2,62,63
 370 545 370 545 323 501 c 128,-1,64
 276 457 276 457 276 363 c 0,65,66
 276 174 276 174 468 174 c 2,50,-1
630 174 m 1,67,-1
 694 174 l 2,68,69
 886 174 886 174 886 363 c 0,70,71
 886 457 886 457 839.5 501 c 128,-1,72
 793 545 793 545 707 545 c 2,73,-1
 630 545 l 1,74,-1
 630 514 l 1,75,-1
 686 514 l 2,76,77
 756 514 756 514 797 475.5 c 128,-1,78
 838 437 838 437 838 363 c 0,79,80
 838 284 838 284 795.5 244.5 c 128,-1,81
 753 205 753 205 677 205 c 2,82,-1
 630 205 l 1,83,-1
 630 174 l 1,67,-1
508 243 m 2,84,-1
 532 243 l 1,85,-1
 532 477 l 1,86,-1
 500 477 l 2,87,88
 446 477 446 477 416.5 449 c 128,-1,89
 387 421 387 421 387 361 c 0,90,91
 387 243 387 243 508 243 c 2,84,-1
630 243 m 1,92,-1
 654 243 l 2,93,94
 775 243 775 243 775 361 c 0,95,96
 775 421 775 421 745.5 449 c 128,-1,97
 716 477 716 477 662 477 c 2,98,-1
 630 477 l 1,99,-1
 630 243 l 1,92,-1
EndSplineSet
EndChar
StartChar: twoTurned
Encoding: 8586 8586 2493
Width: 582
Flags: W
LayerCount: 2
Fore
SplineSet
304 -30 m 0,0,1
 200 -30 200 -30 139.5 24.5 c 128,-1,2
 79 79 79 79 79 174 c 0,3,4
 79 233 79 233 102 284.5 c 128,-1,5
 125 336 125 336 167 386.5 c 128,-1,6
 209 437 209 437 266 493 c 2,7,-1
 418 644 l 1,8,-1
 57 644 l 1,9,-1
 57 729 l 1,10,-1
 540 729 l 1,11,-1
 540 655 l 1,12,-1
 348 462 l 2,13,14
 292 406 292 406 254.5 359.5 c 128,-1,15
 217 313 217 313 198 270 c 128,-1,16
 179 227 179 227 179 180 c 0,17,18
 179 117 179 117 214 86 c 128,-1,19
 249 55 249 55 311 55 c 0,20,21
 360 55 360 55 400.5 73.5 c 128,-1,22
 441 92 441 92 483 134 c 1,23,-1
 531 55 l 1,24,25
 488 19 488 19 433 -5.5 c 128,-1,26
 378 -30 378 -30 304 -30 c 0,0,1
EndSplineSet
EndChar
StartChar: leftArrow
Encoding: 8592 8592 559
Width: 1000
Flags: W
LayerCount: 2
Fore
SplineSet
286 225 m 1,0,1
 223 299 223 299 154 333 c 1,2,-1
 154 351 l 1,3,4
 223 386 223 386 286 459 c 1,5,-1
 321 459 l 1,6,7
 291 396 291 396 263 363 c 1,8,-1
 846 363 l 1,9,-1
 846 321 l 1,10,-1
 263 321 l 1,11,12
 291 288 291 288 321 225 c 1,13,-1
 286 225 l 1,0,1
EndSplineSet
EndChar
StartChar: upArrow
Encoding: 8593 8593 2514
Width: 500
Flags: W
LayerCount: 2
Fore
SplineSet
229 0 m 1,0,-1
 229 583 l 1,1,2
 197 556 197 556 133 525 c 1,3,-1
 133 560 l 1,4,5
 207 623 207 623 241 692 c 1,6,-1
 259 692 l 1,7,8
 294 623 294 623 367 560 c 1,9,-1
 367 525 l 1,10,11
 303 556 303 556 271 583 c 1,12,-1
 271 0 l 1,13,-1
 229 0 l 1,0,-1
EndSplineSet
EndChar
StartChar: downArrow
Encoding: 8595 8595 557
Width: 500
Flags: W
LayerCount: 2
Fore
SplineSet
241 0 m 1,0,1
 207 71 207 71 133 132 c 1,2,-1
 133 167 l 1,3,4
 197 136 197 136 229 109 c 1,5,-1
 229 692 l 1,6,-1
 271 692 l 1,7,-1
 271 109 l 1,8,9
 303 136 303 136 367 167 c 1,10,-1
 367 132 l 1,11,12
 294 71 294 71 259 0 c 1,13,-1
 241 0 l 1,0,1
EndSplineSet
EndChar
StartChar: upDownArrow
Encoding: 8597 8597 2659
Width: 500
Flags: W
LayerCount: 2
Fore
SplineSet
241 0 m 1,0,1
 207 71 207 71 133 132 c 1,2,-1
 133 167 l 1,3,4
 197 136 197 136 229 109 c 1,5,-1
 229 583 l 1,6,7
 197 556 197 556 133 525 c 1,8,-1
 133 560 l 1,9,10
 207 623 207 623 241 692 c 1,11,-1
 259 692 l 1,12,13
 294 623 294 623 367 560 c 1,14,-1
 367 525 l 1,15,16
 303 556 303 556 271 583 c 1,17,-1
 271 109 l 1,18,19
 303 136 303 136 367 167 c 1,20,-1
 367 132 l 1,21,22
 294 71 294 71 259 0 c 1,23,-1
 241 0 l 1,0,1
EndSplineSet
EndChar
StartChar: northWestArrow
Encoding: 8598 8598 2604
Width: 750
Flags: W
LayerCount: 2
Fore
SplineSet
600 86 m 1,0,-1
 188 499 l 1,1,2
 185 456 185 456 161 390 c 1,3,-1
 136 415 l 1,4,5
 140 463 140 463 136 505.5 c 128,-1,6
 132 548 132 548 119 584 c 1,7,-1
 132 597 l 1,8,9
 207 573 207 573 302 580 c 1,10,-1
 327 555 l 1,11,12
 261 532 261 532 218 528 c 1,13,-1
 630 116 l 1,14,-1
 600 86 l 1,0,-1
EndSplineSet
EndChar
StartChar: southEastArrow
Encoding: 8600 8600 3056
Width: 750
Flags: W
LayerCount: 2
Fore
SplineSet
618 86 m 1,0,1
 543 110 543 110 448 103 c 1,2,-1
 423 128 l 1,3,4
 489 151 489 151 532 155 c 1,5,-1
 120 567 l 1,6,-1
 150 597 l 1,7,-1
 562 184 l 1,8,9
 565 227 565 227 589 293 c 1,10,-1
 614 268 l 1,11,12
 610 220 610 220 614 177.5 c 128,-1,13
 618 135 618 135 631 99 c 1,14,-1
 618 86 l 1,0,1
EndSplineSet
EndChar
StartChar: southWestArrow
Encoding: 8601 8601 2625
Width: 750
Flags: W
LayerCount: 2
Fore
SplineSet
132 86 m 1,0,-1
 119 99 l 1,1,2
 132 135 132 135 136 177.5 c 128,-1,3
 140 220 140 220 136 268 c 1,4,-1
 161 293 l 1,5,6
 185 227 185 227 188 184 c 1,7,-1
 600 597 l 1,8,-1
 630 567 l 1,9,-1
 218 155 l 1,10,11
 261 151 261 151 327 128 c 1,12,-1
 302 103 l 1,13,14
 207 110 207 110 132 86 c 1,0,-1
EndSplineSet
EndChar
StartChar: uni21AF
Encoding: 8623 8623 1857
Width: 526
Flags: W
LayerCount: 2
Fore
SplineSet
227 -30 m 1,0,-1
 210 -23 l 1,1,2
 204 54 204 54 160 141 c 1,3,-1
 173 173 l 1,4,5
 220 120 220 120 239 83 c 1,6,-1
 338 325 l 1,7,-1
 106 216 l 1,8,-1
 214 562 l 1,9,-1
 256 552 l 1,10,-1
 174 291 l 1,11,-1
 419 408 l 1,12,-1
 277 68 l 1,13,14
 298 74 298 74 326.5 78 c 128,-1,15
 355 82 355 82 389 84 c 1,16,-1
 376 52 l 1,17,18
 284 21 284 21 227 -30 c 1,0,-1
EndSplineSet
EndChar
StartChar: uni21E7
Encoding: 8679 8679 2337
Width: 662
Flags: W
LayerCount: 2
Fore
SplineSet
204 -30 m 1,0,-1
 204 403 l 1,1,-1
 51 403 l 1,2,-1
 331 683 l 1,3,-1
 611 403 l 1,4,-1
 458 403 l 1,5,-1
 458 -30 l 1,6,-1
 204 -30 l 1,0,-1
234 0 m 1,7,-1
 428 0 l 1,8,-1
 428 433 l 1,9,-1
 538 433 l 1,10,-1
 331 640 l 1,11,-1
 124 433 l 1,12,-1
 234 433 l 1,13,-1
 234 0 l 1,7,-1
EndSplineSet
EndChar
StartChar: uni21E9
Encoding: 8681 8681 2886
Width: 662
Flags: W
LayerCount: 2
Fore
SplineSet
331 -30 m 1,0,-1
 51 250 l 1,1,-1
 204 250 l 1,2,-1
 204 683 l 1,3,-1
 458 683 l 1,4,-1
 458 250 l 1,5,-1
 611 250 l 1,6,-1
 331 -30 l 1,0,-1
331 13 m 1,7,-1
 538 220 l 1,8,-1
 428 220 l 1,9,-1
 428 653 l 1,10,-1
 234 653 l 1,11,-1
 234 220 l 1,12,-1
 124 220 l 1,13,-1
 331 13 l 1,7,-1
EndSplineSet
EndChar
StartChar: uni21EA
Encoding: 8682 8682 2605
Width: 662
Flags: W
LayerCount: 2
Fore
SplineSet
204 97 m 1,0,-1
 204 403 l 1,1,-1
 51 403 l 1,2,-1
 331 683 l 1,3,-1
 611 403 l 1,4,-1
 458 403 l 1,5,-1
 458 97 l 1,6,-1
 204 97 l 1,0,-1
234 127 m 1,7,-1
 428 127 l 1,8,-1
 428 433 l 1,9,-1
 538 433 l 1,10,-1
 331 640 l 1,11,-1
 124 433 l 1,12,-1
 234 433 l 1,13,-1
 234 127 l 1,7,-1
204 -117 m 1,14,-1
 204 30 l 1,15,-1
 458 30 l 1,16,-1
 458 -117 l 1,17,-1
 204 -117 l 1,14,-1
234 -87 m 1,18,-1
 428 -87 l 1,19,-1
 428 0 l 1,20,-1
 234 0 l 1,21,-1
 234 -87 l 1,18,-1
EndSplineSet
EndChar
StartChar: uni21EF
Encoding: 8687 8687 2901
Width: 662
Flags: W
LayerCount: 2
Fore
SplineSet
51 -117 m 1,0,-1
 51 30 l 1,1,-1
 204 30 l 1,2,-1
 204 403 l 1,3,-1
 51 403 l 1,4,-1
 173 525 l 1,5,-1
 51 525 l 1,6,-1
 331 805 l 1,7,-1
 611 525 l 1,8,-1
 489 525 l 1,9,-1
 611 403 l 1,10,-1
 458 403 l 1,11,-1
 458 30 l 1,12,-1
 611 30 l 1,13,-1
 611 -117 l 1,14,-1
 51 -117 l 1,0,-1
124 555 m 1,15,-1
 203 555 l 1,16,-1
 331 683 l 1,17,-1
 459 555 l 1,18,-1
 538 555 l 1,19,-1
 331 762 l 1,20,-1
 124 555 l 1,15,-1
81 -87 m 1,21,-1
 581 -87 l 1,22,-1
 581 0 l 1,23,-1
 428 0 l 1,24,-1
 428 433 l 1,25,-1
 538 433 l 1,26,-1
 331 640 l 1,27,-1
 124 433 l 1,28,-1
 234 433 l 1,29,-1
 234 0 l 1,30,-1
 81 0 l 1,31,-1
 81 -87 l 1,21,-1
EndSplineSet
EndChar
StartChar: uni2219
Encoding: 8729 8729 99
Width: 270
Flags: W
LayerCount: 2
Fore
SplineSet
135 278 m 256,0,1
 100 278 100 278 75.5 303 c 128,-1,2
 51 328 51 328 51 362 c 256,3,4
 51 396 51 396 75.5 421 c 128,-1,5
 100 446 100 446 135 446 c 256,6,7
 170 446 170 446 194.5 421 c 128,-1,8
 219 396 219 396 219 362 c 256,9,10
 219 328 219 328 194.5 303 c 128,-1,11
 170 278 170 278 135 278 c 256,0,1
EndSplineSet
EndChar
StartChar: dotmath
Encoding: 8901 8901 3
Width: 230
Flags: W
LayerCount: 2
Fore
SplineSet
115 298 m 256,0,1
 89 298 89 298 70 317 c 128,-1,2
 51 336 51 336 51 362 c 256,3,4
 51 388 51 388 70 407 c 128,-1,5
 89 426 89 426 115 426 c 256,6,7
 141 426 141 426 160 407 c 128,-1,8
 179 388 179 388 179 362 c 256,9,10
 179 336 179 336 160 317 c 128,-1,11
 141 298 141 298 115 298 c 256,0,1
EndSplineSet
EndChar
StartChar: house
Encoding: 8962 8962 2834
Width: 716
Flags: W
LayerCount: 2
Fore
SplineSet
51 0 m 1,0,-1
 51 425 l 1,1,-1
 358 713 l 1,2,-1
 665 425 l 1,3,-1
 665 0 l 1,4,-1
 51 0 l 1,0,-1
122 71 m 1,5,-1
 594 71 l 1,6,-1
 594 402 l 1,7,-1
 358 623 l 1,8,-1
 122 402 l 1,9,-1
 122 71 l 1,5,-1
EndSplineSet
EndChar
StartChar: control
Encoding: 8963 8963 2552
Width: 512
Flags: W
LayerCount: 2
Fore
SplineSet
51 409 m 1,0,-1
 246 785 l 1,1,-1
 266 785 l 1,2,-1
 461 409 l 1,3,-1
 380 409 l 1,4,-1
 256 655 l 1,5,-1
 132 409 l 1,6,-1
 51 409 l 1,0,-1
EndSplineSet
EndChar
StartChar: projective
Encoding: 8965 8965 934
Width: 560
Flags: W
LayerCount: 2
Fore
SplineSet
51 449 m 1,0,-1
 51 520 l 1,1,-1
 509 520 l 1,2,-1
 509 449 l 1,3,-1
 51 449 l 1,0,-1
76 0 m 1,4,-1
 271 376 l 1,5,-1
 291 376 l 1,6,-1
 486 0 l 1,7,-1
 405 0 l 1,8,-1
 281 246 l 1,9,-1
 157 0 l 1,10,-1
 76 0 l 1,4,-1
EndSplineSet
EndChar
StartChar: wavyLine
Encoding: 8967 8967 2295
Width: 333
Flags: W
LayerCount: 2
Fore
SplineSet
246 -100 m 1,0,1
 210 -81 210 -81 171 -54 c 128,-1,2
 132 -27 132 -27 109 -8 c 0,3,4
 62 33 62 33 62 79 c 0,5,6
 62 101 62 101 72.5 122.5 c 128,-1,7
 83 144 83 144 112 169 c 2,8,-1
 166 216 l 2,9,10
 186 233 186 233 192.5 243.5 c 128,-1,11
 199 254 199 254 199 261 c 0,12,13
 199 269 199 269 192.5 279 c 128,-1,14
 186 289 186 289 166 306 c 2,15,-1
 112 353 l 2,16,17
 83 379 83 379 72.5 398.5 c 128,-1,18
 62 418 62 418 62 441 c 256,19,20
 62 464 62 464 72.5 484 c 128,-1,21
 83 504 83 504 112 529 c 2,22,-1
 166 576 l 2,23,24
 186 593 186 593 192.5 603.5 c 128,-1,25
 199 614 199 614 199 621 c 0,26,27
 199 629 199 629 192.5 638.5 c 128,-1,28
 186 648 186 648 168 664 c 0,29,30
 141 687 141 687 107.5 709.5 c 128,-1,31
 74 732 74 732 50 746 c 1,32,-1
 89 804 l 1,33,34
 115 787 115 787 153.5 762.5 c 128,-1,35
 192 738 192 738 221 712 c 0,36,37
 250 687 250 687 261 665.5 c 128,-1,38
 272 644 272 644 272 621 c 256,39,40
 272 598 272 598 261.5 578.5 c 128,-1,41
 251 559 251 559 222 533 c 2,42,-1
 168 486 l 2,43,44
 149 469 149 469 142 459 c 128,-1,45
 135 449 135 449 135 441 c 0,46,47
 135 434 135 434 142 423.5 c 128,-1,48
 149 413 149 413 168 396 c 2,49,-1
 222 349 l 2,50,51
 251 324 251 324 261.5 304 c 128,-1,52
 272 284 272 284 272 261 c 256,53,54
 272 238 272 238 261.5 218.5 c 128,-1,55
 251 199 251 199 222 173 c 2,56,-1
 168 126 l 2,57,58
 149 109 149 109 142 98.5 c 128,-1,59
 135 88 135 88 135 80 c 256,60,61
 135 72 135 72 143.5 59 c 128,-1,62
 152 46 152 46 181 23 c 0,63,64
 203 7 203 7 231 -10.5 c 128,-1,65
 259 -28 259 -28 283 -42 c 1,66,-1
 246 -100 l 1,0,1
EndSplineSet
EndChar
StartChar: leftCeiling
Encoding: 8968 8968 2856
Width: 404
Flags: W
LayerCount: 2
Fore
SplineSet
51 -80 m 1,0,-1
 51 794 l 1,1,-1
 353 794 l 1,2,-1
 353 730 l 1,3,-1
 122 730 l 1,4,-1
 122 -80 l 1,5,-1
 51 -80 l 1,0,-1
EndSplineSet
EndChar
StartChar: bottomRightCrop
Encoding: 8972 8972 565
Width: 522
Flags: W
LayerCount: 2
Fore
SplineSet
182 0 m 1,0,-1
 182 71 l 1,1,-1
 431 71 l 1,2,-1
 431 0 l 1,3,-1
 182 0 l 1,0,-1
91 -297 m 1,4,-1
 91 -48 l 1,5,-1
 162 -48 l 1,6,-1
 162 -297 l 1,7,-1
 91 -297 l 1,4,-1
EndSplineSet
EndChar
StartChar: sector
Encoding: 8980 8980 2545
Width: 564
Flags: W
LayerCount: 2
Fore
SplineSet
282 112 m 1,0,-1
 25 380 l 1,1,2
 75 428 75 428 140.5 455.5 c 128,-1,3
 206 483 206 483 282 483 c 256,4,5
 358 483 358 483 423.5 455.5 c 128,-1,6
 489 428 489 428 539 380 c 1,7,-1
 282 112 l 1,0,-1
282 200 m 1,8,-1
 439 368 l 1,9,10
 405 389 405 389 365.5 400.5 c 128,-1,11
 326 412 326 412 282 412 c 0,12,13
 239 412 239 412 199.5 400.5 c 128,-1,14
 160 389 160 389 125 368 c 1,15,-1
 282 200 l 1,8,-1
EndSplineSet
EndChar
StartChar: telephoneRecorder
Encoding: 8981 8981 2174
Width: 634
Flags: W
LayerCount: 2
Fore
SplineSet
90 43 m 1,0,-1
 51 85 l 1,1,-1
 173 205 l 1,2,3
 119 271 119 271 119 354 c 0,4,5
 119 418 119 418 150.5 470.5 c 128,-1,6
 182 523 182 523 235 554.5 c 128,-1,7
 288 586 288 586 351 586 c 0,8,9
 415 586 415 586 467.5 554.5 c 128,-1,10
 520 523 520 523 551.5 470.5 c 128,-1,11
 583 418 583 418 583 354 c 0,12,13
 583 291 583 291 551.5 238 c 128,-1,14
 520 185 520 185 467.5 153.5 c 128,-1,15
 415 122 415 122 351 122 c 0,16,17
 276 122 276 122 215 166 c 1,18,-1
 90 43 l 1,0,-1
351 185 m 0,19,20
 397 185 397 185 435.5 207.5 c 128,-1,21
 474 230 474 230 497 268.5 c 128,-1,22
 520 307 520 307 520 354 c 256,23,24
 520 401 520 401 497 439.5 c 128,-1,25
 474 478 474 478 436 500.5 c 128,-1,26
 398 523 398 523 351 523 c 256,27,28
 304 523 304 523 265.5 500.5 c 128,-1,29
 227 478 227 478 204.5 439.5 c 128,-1,30
 182 401 182 401 182 354 c 256,31,32
 182 307 182 307 204.5 268.5 c 128,-1,33
 227 230 227 230 265.5 207.5 c 128,-1,34
 304 185 304 185 351 185 c 0,19,20
EndSplineSet
EndChar
StartChar: viewdataDquare
Encoding: 8983 8983 993
Width: 823
Flags: W
LayerCount: 2
Fore
SplineSet
51 111 m 1,0,-1
 51 180 l 1,1,-1
 165 180 l 1,2,-1
 165 535 l 1,3,-1
 51 535 l 1,4,-1
 51 604 l 1,5,-1
 165 604 l 1,6,-1
 165 718 l 1,7,-1
 234 718 l 1,8,-1
 234 604 l 1,9,-1
 589 604 l 1,10,-1
 589 718 l 1,11,-1
 658 718 l 1,12,-1
 658 604 l 1,13,-1
 772 604 l 1,14,-1
 772 535 l 1,15,-1
 658 535 l 1,16,-1
 658 180 l 1,17,-1
 772 180 l 1,18,-1
 772 111 l 1,19,-1
 658 111 l 1,20,-1
 658 -3 l 1,21,-1
 589 -3 l 1,22,-1
 589 111 l 1,23,-1
 234 111 l 1,24,-1
 234 -3 l 1,25,-1
 165 -3 l 1,26,-1
 165 111 l 1,27,-1
 51 111 l 1,0,-1
234 180 m 1,28,-1
 589 180 l 1,29,-1
 589 535 l 1,30,-1
 234 535 l 1,31,-1
 234 180 l 1,28,-1
EndSplineSet
EndChar
StartChar: bottomRightCorner
Encoding: 8991 8991 2232
Width: 442
Flags: W
LayerCount: 2
Fore
SplineSet
51 0 m 1,0,-1
 51 71 l 1,1,-1
 320 71 l 1,2,-1
 320 368 l 1,3,-1
 391 368 l 1,4,-1
 391 0 l 1,5,-1
 51 0 l 1,0,-1
EndSplineSet
EndChar
StartChar: smile
Encoding: 8995 8995 2219
Width: 951
Flags: W
LayerCount: 2
Fore
SplineSet
475 96 m 0,0,1
 351 96 351 96 239.5 150.5 c 128,-1,2
 128 205 128 205 51 303 c 1,3,-1
 144 303 l 1,4,5
 207 239 207 239 293.5 203 c 128,-1,6
 380 167 380 167 475 167 c 256,7,8
 570 167 570 167 656 203 c 128,-1,9
 742 239 742 239 806 303 c 1,10,-1
 900 303 l 1,11,12
 824 206 824 206 712.5 151 c 128,-1,13
 601 96 601 96 475 96 c 0,0,1
EndSplineSet
EndChar
StartChar: uni2326
Encoding: 8998 8998 2351
Width: 1197
Flags: W
LayerCount: 2
Fore
SplineSet
51 0 m 1,0,-1
 51 694 l 1,1,-1
 844 694 l 1,2,-1
 1146 347 l 1,3,-1
 844 0 l 1,4,-1
 51 0 l 1,0,-1
123 71 m 1,5,-1
 807 71 l 1,6,-1
 1049 347 l 1,7,-1
 807 623 l 1,8,-1
 123 623 l 1,9,-1
 123 71 l 1,5,-1
312 110 m 1,10,-1
 259 160 l 1,11,-1
 437 347 l 1,12,-1
 259 534 l 1,13,-1
 311 584 l 1,14,-1
 487 399 l 1,15,-1
 663 584 l 1,16,-1
 715 534 l 1,17,-1
 537 347 l 1,18,-1
 715 160 l 1,19,-1
 662 110 l 1,20,-1
 487 294 l 1,21,-1
 312 110 l 1,10,-1
EndSplineSet
EndChar
StartChar: uni2327
Encoding: 8999 8999 864
Width: 1076
Flags: W
LayerCount: 2
Fore
SplineSet
51 0 m 1,0,-1
 51 694 l 1,1,-1
 1025 694 l 1,2,-1
 1025 0 l 1,3,-1
 51 0 l 1,0,-1
123 71 m 1,4,-1
 953 71 l 1,5,-1
 953 623 l 1,6,-1
 123 623 l 1,7,-1
 123 71 l 1,4,-1
363 110 m 1,8,-1
 310 160 l 1,9,-1
 488 347 l 1,10,-1
 310 534 l 1,11,-1
 362 584 l 1,12,-1
 538 399 l 1,13,-1
 714 584 l 1,14,-1
 766 534 l 1,15,-1
 588 347 l 1,16,-1
 766 160 l 1,17,-1
 713 110 l 1,18,-1
 538 294 l 1,19,-1
 363 110 l 1,8,-1
EndSplineSet
EndChar
StartChar: angleLeft
Encoding: 9001 9001 542
Width: 292
Flags: W
LayerCount: 2
Fore
SplineSet
166 -200 m 1,0,-1
 25 277 l 1,1,-1
 166 754 l 1,2,-1
 241 754 l 1,3,-1
 100 277 l 1,4,-1
 241 -200 l 1,5,-1
 166 -200 l 1,0,-1
EndSplineSet
EndChar
StartChar: angleRight
Encoding: 9002 9002 2639
Width: 292
Flags: W
LayerCount: 2
Fore
SplineSet
51 -200 m 1,0,-1
 192 277 l 1,1,-1
 51 754 l 1,2,-1
 126 754 l 1,3,-1
 267 277 l 1,4,-1
 126 -200 l 1,5,-1
 51 -200 l 1,0,-1
EndSplineSet
EndChar
StartChar: benzenering
Encoding: 9004 9004 2350
Width: 788
Flags: W
LayerCount: 2
Fore
SplineSet
394 -1 m 1,0,-1
 51 168 l 1,1,-1
 51 610 l 1,2,-1
 394 779 l 1,3,-1
 737 610 l 1,4,-1
 737 168 l 1,5,-1
 394 -1 l 1,0,-1
394 74 m 1,6,-1
 669 208 l 1,7,-1
 669 570 l 1,8,-1
 394 704 l 1,9,-1
 119 570 l 1,10,-1
 119 208 l 1,11,-1
 394 74 l 1,6,-1
602 493 m 1,12,-1
 384 601 l 1,13,-1
 403 640 l 1,14,-1
 622 532 l 1,15,-1
 602 493 l 1,12,-1
173 234 m 1,16,-1
 173 544 l 1,17,-1
 216 544 l 1,18,-1
 216 234 l 1,19,-1
 173 234 l 1,16,-1
403 138 m 1,20,-1
 384 177 l 1,21,-1
 602 285 l 1,22,-1
 622 246 l 1,23,-1
 403 138 l 1,20,-1
EndSplineSet
EndChar
StartChar: cylindricity
Encoding: 9005 9005 2796
Width: 925
Flags: W
LayerCount: 2
Fore
SplineSet
111 41 m 1,0,-1
 51 76 l 1,1,-1
 399 673 l 1,2,-1
 460 638 l 1,3,-1
 416 563 l 1,4,5
 427 565 427 565 438.5 566.5 c 128,-1,6
 450 568 450 568 462 568 c 0,7,8
 509 568 509 568 550 549 c 128,-1,9
 591 530 591 530 621 496 c 128,-1,10
 651 462 651 462 664 418 c 1,11,-1
 813 673 l 1,12,-1
 874 638 l 1,13,-1
 525 41 l 1,14,-1
 465 76 l 1,15,-1
 507 149 l 1,16,17
 497 147 497 147 485.5 145.5 c 128,-1,18
 474 144 474 144 462 144 c 0,19,20
 415 144 415 144 374 163 c 128,-1,21
 333 182 333 182 303 216 c 128,-1,22
 273 250 273 250 259 294 c 1,23,-1
 111 41 l 1,0,-1
462 213 m 256,24,25
 502 213 502 213 534.5 232.5 c 128,-1,26
 567 252 567 252 586 284.5 c 128,-1,27
 605 317 605 317 605 356 c 256,28,29
 605 395 605 395 585.5 427.5 c 128,-1,30
 566 460 566 460 533.5 479.5 c 128,-1,31
 501 499 501 499 462 499 c 256,32,33
 423 499 423 499 390.5 480 c 128,-1,34
 358 461 358 461 338.5 428.5 c 128,-1,35
 319 396 319 396 319 356 c 256,36,37
 319 316 319 316 338 283.5 c 128,-1,38
 357 251 357 251 389.5 232 c 128,-1,39
 422 213 422 213 462 213 c 256,24,25
EndSplineSet
EndChar
StartChar: conicalTaper
Encoding: 9010 9010 780
Width: 872
Flags: W
LayerCount: 2
Fore
SplineSet
51 -44 m 1,0,-1
 51 640 l 1,1,-1
 821 314 l 1,2,-1
 821 282 l 1,3,-1
 51 -44 l 1,0,-1
122 333 m 1,4,-1
 608 333 l 1,5,-1
 122 541 l 1,6,-1
 122 333 l 1,4,-1
122 55 m 1,7,-1
 610 264 l 1,8,-1
 122 264 l 1,9,-1
 122 55 l 1,7,-1
EndSplineSet
EndChar
StartChar: counterbore
Encoding: 9012 9012 2273
Width: 715
Flags: W
LayerCount: 2
Fore
SplineSet
51 0 m 1,0,-1
 51 354 l 1,1,-1
 123 354 l 1,2,-1
 123 71 l 1,3,-1
 592 71 l 1,4,-1
 592 354 l 1,5,-1
 664 354 l 1,6,-1
 664 0 l 1,7,-1
 51 0 l 1,0,-1
EndSplineSet
EndChar
StartChar: countersink
Encoding: 9013 9013 790
Width: 976
Flags: W
LayerCount: 2
Fore
SplineSet
488 -22 m 1,0,-1
 51 354 l 1,1,-1
 162 354 l 1,2,-1
 488 72 l 1,3,-1
 814 354 l 1,4,-1
 925 354 l 1,5,-1
 488 -22 l 1,0,-1
EndSplineSet
EndChar
StartChar: uni237B
Encoding: 9083 9083 1905
Width: 712
Flags: W
LayerCount: 2
Fore
SplineSet
254 -7 m 1,0,-1
 65 372 l 1,1,-1
 145 372 l 1,2,-1
 280 90 l 1,3,-1
 406 453 l 1,4,-1
 256 453 l 1,5,-1
 256 524 l 1,6,-1
 431 524 l 1,7,-1
 537 827 l 1,8,-1
 608 827 l 1,9,-1
 503 524 l 1,10,-1
 651 524 l 1,11,-1
 651 453 l 1,12,-1
 478 453 l 1,13,-1
 319 -7 l 1,14,-1
 254 -7 l 1,0,-1
EndSplineSet
EndChar
StartChar: rightangledownzigzagArrow
Encoding: 9084 9084 552
Width: 943
Flags: W
LayerCount: 2
Fore
SplineSet
261 -157 m 1,0,-1
 51 -144 l 1,1,-1
 82 65 l 1,2,-1
 139 -34 l 1,3,-1
 222 30 l 1,4,-1
 222 323 l 1,5,6
 133 358 133 358 97.5 396 c 128,-1,7
 62 434 62 434 62 483 c 0,8,9
 62 518 62 518 83.5 547.5 c 128,-1,10
 105 577 105 577 141.5 605.5 c 128,-1,11
 178 634 178 634 222 664 c 1,12,-1
 222 714 l 1,13,-1
 293 714 l 1,14,-1
 293 713 l 1,15,-1
 358 758 l 1,16,-1
 393 705 l 1,17,-1
 293 637 l 1,18,-1
 293 367 l 1,19,20
 344 348 344 348 379.5 330.5 c 128,-1,21
 415 313 415 313 434 287.5 c 128,-1,22
 453 262 453 262 453 218 c 0,23,24
 453 178 453 178 431 143 c 128,-1,25
 409 108 409 108 370 71 c 1,26,-1
 892 71 l 1,27,-1
 892 0 l 1,28,-1
 284 0 l 1,29,-1
 180 -81 l 1,30,-1
 261 -157 l 1,0,-1
222 394 m 1,31,-1
 222 590 l 1,32,33
 181 565 181 565 157 536 c 128,-1,34
 133 507 133 507 133 483 c 0,35,36
 133 457 133 457 151.5 436 c 128,-1,37
 170 415 170 415 222 394 c 1,31,-1
293 87 m 1,38,39
 337 126 337 126 359.5 157 c 128,-1,40
 382 188 382 188 382 218 c 0,41,42
 382 244 382 244 358.5 261.5 c 128,-1,43
 335 279 335 279 293 296 c 1,44,-1
 293 87 l 1,38,39
EndSplineSet
EndChar
StartChar: uni237D
Encoding: 9085 9085 2617
Width: 935
Flags: W
LayerCount: 2
Fore
SplineSet
51 0 m 1,0,-1
 51 71 l 1,1,-1
 243 71 l 1,2,-1
 243 -138 l 1,3,-1
 692 -138 l 1,4,-1
 692 71 l 1,5,-1
 884 71 l 1,6,-1
 884 0 l 1,7,-1
 764 0 l 1,8,-1
 764 -209 l 1,9,-1
 171 -209 l 1,10,-1
 171 0 l 1,11,-1
 51 0 l 1,0,-1
EndSplineSet
EndChar
StartChar: uni237F
Encoding: 9087 9087 1907
Width: 320
Flags: W
LayerCount: 2
Fore
SplineSet
124 0 m 1,0,-1
 124 240 l 1,1,2
 105 250 105 250 94 268 c 128,-1,3
 83 286 83 286 83 309 c 256,4,5
 83 332 83 332 94 350 c 128,-1,6
 105 368 105 368 124 377 c 1,7,-1
 124 617 l 1,8,-1
 195 617 l 1,9,-1
 195 378 l 1,10,11
 214 368 214 368 225.5 350 c 128,-1,12
 237 332 237 332 237 309 c 256,13,14
 237 286 237 286 225.5 267.5 c 128,-1,15
 214 249 214 249 195 240 c 1,16,-1
 195 0 l 1,17,-1
 124 0 l 1,0,-1
EndSplineSet
EndChar
StartChar: insertionsymbol
Encoding: 9088 9088 844
Width: 812
Flags: W
LayerCount: 2
Fore
SplineSet
360 353 m 0,0,1
 313 353 313 353 285 377 c 128,-1,2
 257 401 257 401 257 452 c 0,3,4
 257 551 257 551 415 557 c 2,5,-1
 471 559 l 1,6,-1
 471 581 l 2,7,8
 471 611 471 611 452 625.5 c 128,-1,9
 433 640 433 640 400 640 c 0,10,11
 353 640 353 640 299 614 c 1,12,-1
 277 663 l 1,13,14
 337 692 337 692 402 692 c 256,15,16
 467 692 467 692 500 665.5 c 128,-1,17
 533 639 533 639 533 579 c 2,18,-1
 533 359 l 1,19,-1
 486 359 l 1,20,-1
 474 401 l 1,21,22
 427 353 427 353 360 353 c 0,0,1
375 404 m 0,23,24
 471 404 471 404 471 491 c 2,25,-1
 471 514 l 1,26,-1
 423 512 l 2,27,28
 368 510 368 510 344.5 496.5 c 128,-1,29
 321 483 321 483 321 452 c 0,30,31
 321 404 321 404 375 404 c 0,23,24
406 -33 m 1,32,-1
 51 372 l 1,33,-1
 143 372 l 1,34,-1
 406 73 l 1,35,-1
 669 372 l 1,36,-1
 761 372 l 1,37,-1
 406 -33 l 1,32,-1
EndSplineSet
EndChar
StartChar: discontinuousunderlinesymbol
Encoding: 9090 9090 819
Width: 812
Flags: W
LayerCount: 2
Fore
SplineSet
561 353 m 0,0,1
 514 353 514 353 486 377 c 128,-1,2
 458 401 458 401 458 452 c 0,3,4
 458 502 458 502 496.5 528 c 128,-1,5
 535 554 535 554 616 557 c 2,6,-1
 672 559 l 1,7,-1
 672 581 l 2,8,9
 672 610 672 610 653.5 625 c 128,-1,10
 635 640 635 640 601 640 c 0,11,12
 554 640 554 640 500 614 c 1,13,-1
 478 663 l 1,14,15
 538 692 538 692 603 692 c 0,16,17
 669 692 669 692 701.5 665 c 128,-1,18
 734 638 734 638 734 579 c 2,19,-1
 734 359 l 1,20,-1
 687 359 l 1,21,-1
 674 400 l 1,22,23
 627 353 627 353 561 353 c 0,0,1
190 353 m 0,24,25
 143 353 143 353 115 377 c 128,-1,26
 87 401 87 401 87 452 c 0,27,28
 87 551 87 551 245 557 c 2,29,-1
 301 559 l 1,30,-1
 301 581 l 2,31,32
 301 610 301 610 282.5 625 c 128,-1,33
 264 640 264 640 230 640 c 0,34,35
 184 640 184 640 129 614 c 1,36,-1
 107 663 l 1,37,38
 167 692 167 692 232 692 c 0,39,40
 298 692 298 692 330.5 665 c 128,-1,41
 363 638 363 638 363 579 c 2,42,-1
 363 359 l 1,43,-1
 316 359 l 1,44,-1
 304 401 l 1,45,46
 257 353 257 353 190 353 c 0,24,25
205 404 m 0,47,48
 301 404 301 404 301 491 c 2,49,-1
 301 514 l 1,50,-1
 253 512 l 2,51,52
 198 510 198 510 174.5 496.5 c 128,-1,53
 151 483 151 483 151 452 c 0,54,55
 151 404 151 404 205 404 c 0,47,48
576 404 m 0,56,57
 672 404 672 404 672 491 c 2,58,-1
 672 514 l 1,59,-1
 624 512 l 2,60,61
 569 510 569 510 545.5 496.5 c 128,-1,62
 522 483 522 483 522 452 c 0,63,64
 522 404 522 404 576 404 c 0,56,57
77 219 m 1,65,-1
 77 290 l 1,66,-1
 364 290 l 1,67,-1
 364 219 l 1,68,-1
 77 219 l 1,65,-1
448 219 m 1,69,-1
 448 290 l 1,70,-1
 735 290 l 1,71,-1
 735 219 l 1,72,-1
 448 219 l 1,69,-1
EndSplineSet
EndChar
StartChar: compositionsymbol
Encoding: 9092 9092 2299
Width: 1173
Flags: W
LayerCount: 2
Fore
SplineSet
51 0 m 1,0,-1
 51 714 l 1,1,-1
 765 714 l 2,2,3
 839 714 839 714 903.5 686.5 c 128,-1,4
 968 659 968 659 1017 610 c 128,-1,5
 1066 561 1066 561 1094 496 c 128,-1,6
 1122 431 1122 431 1122 357 c 256,7,8
 1122 283 1122 283 1094 218.5 c 128,-1,9
 1066 154 1066 154 1017 105 c 128,-1,10
 968 56 968 56 903.5 28 c 128,-1,11
 839 0 839 0 765 0 c 2,12,-1
 51 0 l 1,0,-1
122 71 m 1,13,-1
 551 71 l 1,14,15
 484 121 484 121 446 196.5 c 128,-1,16
 408 272 408 272 408 357 c 256,17,18
 408 442 408 442 445.5 517 c 128,-1,19
 483 592 483 592 551 643 c 1,20,-1
 122 643 l 1,21,-1
 122 71 l 1,13,-1
729 73 m 1,22,-1
 729 641 l 1,23,24
 659 633 659 633 602 592.5 c 128,-1,25
 545 552 545 552 512 491 c 128,-1,26
 479 430 479 430 479 357 c 0,27,28
 479 285 479 285 512 223.5 c 128,-1,29
 545 162 545 162 601.5 122 c 128,-1,30
 658 82 658 82 729 73 c 1,22,-1
800 73 m 1,31,32
 872 82 872 82 928.5 122 c 128,-1,33
 985 162 985 162 1018 224 c 128,-1,34
 1051 286 1051 286 1051 357 c 0,35,36
 1051 429 1051 429 1018 490 c 128,-1,37
 985 551 985 551 928 591.5 c 128,-1,38
 871 632 871 632 800 641 c 1,39,-1
 800 73 l 1,31,32
EndSplineSet
EndChar
StartChar: whitesquarecentreverticalline
Encoding: 9093 9093 1004
Width: 805
Flags: W
LayerCount: 2
Fore
SplineSet
368 -165 m 1,0,-1
 368 835 l 1,1,-1
 437 835 l 1,2,-1
 437 -165 l 1,3,-1
 368 -165 l 1,0,-1
501 0 m 1,4,-1
 501 71 l 1,5,-1
 683 71 l 1,6,-1
 683 643 l 1,7,-1
 501 643 l 1,8,-1
 501 714 l 1,9,-1
 754 714 l 1,10,-1
 754 0 l 1,11,-1
 501 0 l 1,4,-1
51 0 m 1,12,-1
 51 714 l 1,13,-1
 304 714 l 1,14,-1
 304 643 l 1,15,-1
 122 643 l 1,16,-1
 122 71 l 1,17,-1
 304 71 l 1,18,-1
 304 0 l 1,19,-1
 51 0 l 1,12,-1
EndSplineSet
EndChar
StartChar: horizontalbarnotchCircled
Encoding: 9097 9097 2497
Width: 772
Flags: W
LayerCount: 2
Fore
SplineSet
386 6 m 0,0,1
 317 6 317 6 256.5 32 c 128,-1,2
 196 58 196 58 149.5 104 c 128,-1,3
 103 150 103 150 77 211 c 128,-1,4
 51 272 51 272 51 341 c 256,5,6
 51 410 51 410 77 470.5 c 128,-1,7
 103 531 103 531 149.5 577.5 c 128,-1,8
 196 624 196 624 256.5 650 c 128,-1,9
 317 676 317 676 386 676 c 256,10,11
 455 676 455 676 516 650 c 128,-1,12
 577 624 577 624 623 578 c 128,-1,13
 669 532 669 532 695 471 c 128,-1,14
 721 410 721 410 721 341 c 256,15,16
 721 272 721 272 695 211 c 128,-1,17
 669 150 669 150 623 104 c 128,-1,18
 577 58 577 58 516.5 32 c 128,-1,19
 456 6 456 6 386 6 c 0,0,1
386 201 m 1,20,-1
 466 373 l 1,21,-1
 648 373 l 1,22,23
 640 438 640 438 603.5 490.5 c 128,-1,24
 567 543 567 543 510.5 574 c 128,-1,25
 454 605 454 605 386 605 c 0,26,27
 319 605 319 605 262.5 574.5 c 128,-1,28
 206 544 206 544 169 491.5 c 128,-1,29
 132 439 132 439 124 373 c 1,30,-1
 306 373 l 1,31,-1
 386 201 l 1,20,-1
382 77 m 1,32,-1
 270 309 l 1,33,-1
 124 309 l 1,34,35
 132 243 132 243 168.5 191 c 128,-1,36
 205 139 205 139 261 108.5 c 128,-1,37
 317 78 317 78 382 77 c 1,32,-1
390 77 m 1,38,39
 456 78 456 78 511.5 108.5 c 128,-1,40
 567 139 567 139 603.5 191 c 128,-1,41
 640 243 640 243 648 309 c 1,42,-1
 502 309 l 1,43,-1
 390 77 l 1,38,39
EndSplineSet
EndChar
StartChar: undosymbol
Encoding: 9100 9100 989
Width: 888
Flags: W
LayerCount: 2
Fore
SplineSet
709 54 m 0,0,1
 674 54 674 54 644.5 71 c 128,-1,2
 615 88 615 88 598 117.5 c 128,-1,3
 581 147 581 147 581 182 c 0,4,5
 581 228 581 228 609.5 263 c 128,-1,6
 638 298 638 298 680 307 c 1,7,-1
 680 332 l 2,8,9
 680 393 680 393 650.5 442.5 c 128,-1,10
 621 492 621 492 571.5 521.5 c 128,-1,11
 522 551 522 551 461 551 c 0,12,13
 382 551 382 551 323 502 c 1,14,-1
 393 460 l 1,15,-1
 189 339 l 1,16,-1
 203 576 l 1,17,-1
 270 534 l 1,18,19
 308 569 308 569 357 589.5 c 128,-1,20
 406 610 406 610 461 610 c 0,21,22
 519 610 519 610 569.5 588.5 c 128,-1,23
 620 567 620 567 658 529 c 128,-1,24
 696 491 696 491 717.5 440.5 c 128,-1,25
 739 390 739 390 739 332 c 2,26,-1
 739 306 l 1,27,28
 783 296 783 296 810 261 c 128,-1,29
 837 226 837 226 837 182 c 0,30,31
 837 147 837 147 820 117.5 c 128,-1,32
 803 88 803 88 774 71 c 128,-1,33
 745 54 745 54 709 54 c 0,0,1
230 408 m 1,34,-1
 318 459 l 1,35,-1
 237 507 l 1,36,-1
 230 408 l 1,34,-1
179 54 m 0,37,38
 144 54 144 54 114.5 71 c 128,-1,39
 85 88 85 88 68 117 c 128,-1,40
 51 146 51 146 51 182 c 256,41,42
 51 218 51 218 68 247 c 128,-1,43
 85 276 85 276 114.5 293 c 128,-1,44
 144 310 144 310 179 310 c 0,45,46
 215 310 215 310 244 293 c 128,-1,47
 273 276 273 276 290 247 c 128,-1,48
 307 218 307 218 307 182 c 0,49,50
 307 147 307 147 290 117.5 c 128,-1,51
 273 88 273 88 244 71 c 128,-1,52
 215 54 215 54 179 54 c 0,37,38
179 110 m 256,53,54
 209 110 209 110 230 131 c 128,-1,55
 251 152 251 152 251 182 c 256,56,57
 251 212 251 212 230 233 c 128,-1,58
 209 254 209 254 179 254 c 256,59,60
 149 254 149 254 128 233 c 128,-1,61
 107 212 107 212 107 182 c 256,62,63
 107 152 107 152 128 131 c 128,-1,64
 149 110 149 110 179 110 c 256,53,54
709 110 m 256,65,66
 739 110 739 110 760 131 c 128,-1,67
 781 152 781 152 781 182 c 256,68,69
 781 212 781 212 760 233 c 128,-1,70
 739 254 739 254 709 254 c 256,71,72
 679 254 679 254 658 233 c 128,-1,73
 637 212 637 212 637 182 c 256,74,75
 637 152 637 152 658 131 c 128,-1,76
 679 110 679 110 709 110 c 256,65,66
EndSplineSet
EndChar
StartChar: monostablesymbol
Encoding: 9101 9101 863
Width: 814
Flags: W
LayerCount: 2
Fore
SplineSet
51 0 m 1,0,-1
 51 71 l 1,1,-1
 201 71 l 1,2,-1
 201 714 l 1,3,-1
 613 714 l 1,4,-1
 613 71 l 1,5,-1
 763 71 l 1,6,-1
 763 0 l 1,7,-1
 542 0 l 1,8,-1
 542 643 l 1,9,-1
 272 643 l 1,10,-1
 272 0 l 1,11,-1
 51 0 l 1,0,-1
EndSplineSet
EndChar
StartChar: open-circuit-outputh-typesymbol
Encoding: 9103 9103 870
Width: 862
Flags: W
LayerCount: 2
Fore
SplineSet
431 0 m 1,0,-1
 51 380 l 1,1,-1
 360 689 l 1,2,-1
 51 689 l 1,3,-1
 51 760 l 1,4,-1
 811 760 l 1,5,-1
 811 689 l 1,6,-1
 502 689 l 1,7,-1
 811 380 l 1,8,-1
 431 0 l 1,0,-1
431 102 m 1,9,-1
 709 380 l 1,10,-1
 431 658 l 1,11,-1
 153 380 l 1,12,-1
 431 102 l 1,9,-1
EndSplineSet
EndChar
StartChar: open-circuit-outputl-typesymbol
Encoding: 9104 9104 871
Width: 862
Flags: W
LayerCount: 2
Fore
SplineSet
51 0 m 1,0,-1
 51 71 l 1,1,-1
 360 71 l 1,2,-1
 51 380 l 1,3,-1
 431 760 l 1,4,-1
 811 380 l 1,5,-1
 502 71 l 1,6,-1
 811 71 l 1,7,-1
 811 0 l 1,8,-1
 51 0 l 1,0,-1
431 102 m 1,9,-1
 709 380 l 1,10,-1
 431 658 l 1,11,-1
 153 380 l 1,12,-1
 431 102 l 1,9,-1
EndSplineSet
EndChar
StartChar: passive-pull-down-outputsymbol
Encoding: 9105 9105 924
Width: 862
Flags: W
LayerCount: 2
Fore
SplineSet
431 0 m 1,0,-1
 51 380 l 1,1,-1
 360 689 l 1,2,-1
 51 689 l 1,3,-1
 51 760 l 1,4,-1
 811 760 l 1,5,-1
 811 689 l 1,6,-1
 502 689 l 1,7,-1
 811 380 l 1,8,-1
 431 0 l 1,0,-1
189 416 m 1,9,-1
 673 416 l 1,10,-1
 431 658 l 1,11,-1
 189 416 l 1,9,-1
431 102 m 1,12,-1
 674 345 l 1,13,-1
 188 345 l 1,14,-1
 431 102 l 1,12,-1
EndSplineSet
EndChar
StartChar: directcurrentsymbolformtwo
Encoding: 9107 9107 818
Width: 802
Flags: W
LayerCount: 2
Fore
SplineSet
51 416 m 1,0,-1
 51 487 l 1,1,-1
 751 487 l 1,2,-1
 751 416 l 1,3,-1
 51 416 l 1,0,-1
51 274 m 1,4,-1
 51 345 l 1,5,-1
 244 345 l 1,6,-1
 244 274 l 1,7,-1
 51 274 l 1,4,-1
304 274 m 1,8,-1
 304 345 l 1,9,-1
 497 345 l 1,10,-1
 497 274 l 1,11,-1
 304 274 l 1,8,-1
558 274 m 1,12,-1
 558 345 l 1,13,-1
 751 345 l 1,14,-1
 751 274 l 1,15,-1
 558 274 l 1,12,-1
EndSplineSet
EndChar
StartChar: uni2394
Encoding: 9108 9108 1906
Width: 860
Flags: W
LayerCount: 2
Fore
SplineSet
247 44 m 1,0,-1
 67 357 l 1,1,-1
 247 670 l 1,2,-1
 613 670 l 1,3,-1
 793 357 l 1,4,-1
 613 44 l 1,5,-1
 247 44 l 1,0,-1
295 103 m 1,6,-1
 565 103 l 1,7,-1
 714 357 l 1,8,-1
 565 611 l 1,9,-1
 295 611 l 1,10,-1
 146 357 l 1,11,-1
 295 103 l 1,6,-1
EndSplineSet
EndChar
StartChar: nextpage
Encoding: 9112 9112 866
Width: 931
Flags: W
LayerCount: 2
Fore
SplineSet
51 112 m 1,0,-1
 51 702 l 1,1,-1
 568 702 l 1,2,-1
 568 617 l 1,3,-1
 510 617 l 1,4,-1
 510 644 l 1,5,-1
 110 644 l 1,6,-1
 110 170 l 1,7,-1
 315 170 l 1,8,-1
 315 112 l 1,9,-1
 51 112 l 1,0,-1
363 508 m 1,10,-1
 363 590 l 1,11,-1
 502 590 l 1,12,-1
 502 532 l 1,13,-1
 421 532 l 1,14,-1
 421 508 l 1,15,-1
 363 508 l 1,10,-1
550 532 m 1,16,-1
 550 590 l 1,17,-1
 694 590 l 1,18,-1
 694 532 l 1,19,-1
 550 532 l 1,16,-1
822 508 m 1,20,-1
 822 532 l 1,21,-1
 742 532 l 1,22,-1
 742 590 l 1,23,-1
 880 590 l 1,24,-1
 880 508 l 1,25,-1
 822 508 l 1,20,-1
363 128 m 1,26,-1
 363 245 l 1,27,-1
 230 245 l 1,28,-1
 230 377 l 1,29,-1
 363 377 l 1,30,-1
 363 460 l 1,31,-1
 421 460 l 1,32,-1
 421 377 l 1,33,-1
 512 377 l 1,34,-1
 512 483 l 1,35,-1
 678 311 l 1,36,-1
 512 139 l 1,37,-1
 512 245 l 1,38,-1
 421 245 l 1,39,-1
 421 128 l 1,40,-1
 363 128 l 1,26,-1
822 317 m 1,41,-1
 822 460 l 1,42,-1
 880 460 l 1,43,-1
 880 317 l 1,44,-1
 822 317 l 1,41,-1
542 220 m 1,45,-1
 630 311 l 1,46,-1
 542 402 l 1,47,-1
 542 343 l 1,48,-1
 263 343 l 1,49,-1
 263 279 l 1,50,-1
 542 279 l 1,51,-1
 542 220 l 1,45,-1
822 128 m 1,52,-1
 822 269 l 1,53,-1
 880 269 l 1,54,-1
 880 128 l 1,55,-1
 822 128 l 1,52,-1
363 0 m 1,56,-1
 363 80 l 1,57,-1
 421 80 l 1,58,-1
 421 58 l 1,59,-1
 502 58 l 1,60,-1
 502 0 l 1,61,-1
 363 0 l 1,56,-1
742 0 m 1,62,-1
 742 58 l 1,63,-1
 822 58 l 1,64,-1
 822 80 l 1,65,-1
 880 80 l 1,66,-1
 880 0 l 1,67,-1
 742 0 l 1,62,-1
550 0 m 1,68,-1
 550 58 l 1,69,-1
 694 58 l 1,70,-1
 694 0 l 1,71,-1
 550 0 l 1,68,-1
EndSplineSet
EndChar
StartChar: printscreensymbol
Encoding: 9113 9113 933
Width: 1064
Flags: W
LayerCount: 2
Fore
SplineSet
532 -16 m 0,0,1
 447 -16 447 -16 363 -11.5 c 128,-1,2
 279 -7 279 -7 208.5 2 c 128,-1,3
 138 11 138 11 92 22 c 1,4,5
 77 71 77 71 68 111.5 c 128,-1,6
 59 152 59 152 55 194.5 c 128,-1,7
 51 237 51 237 51 291 c 0,8,9
 51 344 51 344 55 387.5 c 128,-1,10
 59 431 59 431 68 472.5 c 128,-1,11
 77 514 77 514 92 560 c 1,12,13
 125 568 125 568 167 574.5 c 128,-1,14
 209 581 209 581 261 586 c 1,15,-1
 261 742 l 1,16,-1
 468 940 l 1,17,-1
 804 940 l 1,18,-1
 804 585 l 1,19,20
 857 580 857 580 899 573.5 c 128,-1,21
 941 567 941 567 972 560 c 1,22,23
 987 513 987 513 996 471.5 c 128,-1,24
 1005 430 1005 430 1009 387 c 128,-1,25
 1013 344 1013 344 1013 291 c 0,26,27
 1013 236 1013 236 1009 193.5 c 128,-1,28
 1005 151 1005 151 996.5 110.5 c 128,-1,29
 988 70 988 70 972 22 c 1,30,31
 925 11 925 11 855 2 c 128,-1,32
 785 -7 785 -7 702 -11.5 c 128,-1,33
 619 -16 619 -16 532 -16 c 0,0,1
331 320 m 1,34,-1
 734 320 l 1,35,-1
 734 870 l 1,36,-1
 533 870 l 1,37,-1
 533 664 l 1,38,-1
 331 664 l 1,39,-1
 331 320 l 1,34,-1
332 730 m 1,40,-1
 467 730 l 1,41,-1
 467 859 l 1,42,-1
 332 730 l 1,40,-1
532 55 m 0,43,44
 577 55 577 55 630.5 57 c 128,-1,45
 684 59 684 59 737 63 c 128,-1,46
 790 67 790 67 836 72 c 128,-1,47
 882 77 882 77 913 84 c 1,48,49
 942 163 942 163 942 291 c 256,50,51
 942 419 942 419 913 498 c 1,52,53
 892 502 892 502 865 506 c 128,-1,54
 838 510 838 510 804 514 c 1,55,-1
 804 250 l 1,56,-1
 261 250 l 1,57,-1
 261 514 l 1,58,59
 225 510 225 510 198 506 c 128,-1,60
 171 502 171 502 151 498 c 1,61,62
 122 419 122 419 122 291 c 256,63,64
 122 163 122 163 151 84 c 1,65,66
 180 77 180 77 225.5 72 c 128,-1,67
 271 67 271 67 324.5 63 c 128,-1,68
 378 59 378 59 432 57 c 128,-1,69
 486 55 486 55 532 55 c 0,43,44
EndSplineSet
EndChar
StartChar: horizontallineextension
Encoding: 9135 9135 549
Width: 1000
Flags: W
LayerCount: 2
Fore
SplineSet
-2 321 m 1,0,-1
 -2 363 l 1,1,-1
 1002 363 l 1,2,-1
 1002 321 l 1,3,-1
 -2 321 l 1,0,-1
EndSplineSet
EndChar
StartChar: verticalandtopright-dentistry
Encoding: 9150 9150 2823
Width: 755
Flags: W
LayerCount: 2
Fore
SplineSet
344 0 m 1,0,-1
 344 714 l 1,1,-1
 704 714 l 1,2,-1
 704 650 l 1,3,-1
 415 650 l 1,4,-1
 415 0 l 1,5,-1
 344 0 l 1,0,-1
EndSplineSet
EndChar
StartChar: upandhorizontalcircle-dentistry
Encoding: 9154 9154 806
Width: 755
Flags: W
LayerCount: 2
Fore
SplineSet
51 0 m 1,0,-1
 51 71 l 1,1,-1
 342 71 l 1,2,-1
 342 160 l 1,3,4
 293 169 293 169 254 198 c 128,-1,5
 215 227 215 227 192 270.5 c 128,-1,6
 169 314 169 314 169 365 c 256,7,8
 169 416 169 416 192 459.5 c 128,-1,9
 215 503 215 503 254 532.5 c 128,-1,10
 293 562 293 562 342 570 c 1,11,-1
 342 714 l 1,12,-1
 413 714 l 1,13,-1
 413 571 l 1,14,15
 464 562 464 562 503 532.5 c 128,-1,16
 542 503 542 503 564 459.5 c 128,-1,17
 586 416 586 416 586 365 c 256,18,19
 586 314 586 314 563.5 270.5 c 128,-1,20
 541 227 541 227 502 197.5 c 128,-1,21
 463 168 463 168 413 160 c 1,22,-1
 413 71 l 1,23,-1
 704 71 l 1,24,-1
 704 0 l 1,25,-1
 51 0 l 1,0,-1
342 227 m 1,26,-1
 342 504 l 1,27,28
 295 492 295 492 264.5 453.5 c 128,-1,29
 234 415 234 415 234 365 c 0,30,31
 234 316 234 316 263.5 277.5 c 128,-1,32
 293 239 293 239 342 227 c 1,26,-1
413 226 m 1,33,34
 461 238 461 238 491 276.5 c 128,-1,35
 521 315 521 315 521 365 c 256,36,37
 521 415 521 415 491.5 453.5 c 128,-1,38
 462 492 462 492 413 504 c 1,39,-1
 413 226 l 1,33,34
EndSplineSet
EndChar
StartChar: verticaltriangle-dentistry
Encoding: 9155 9155 807
Width: 755
Flags: W
LayerCount: 2
Fore
SplineSet
341 0 m 1,0,-1
 341 141 l 1,1,-1
 139 141 l 1,2,-1
 139 193 l 1,3,-1
 341 569 l 1,4,-1
 341 714 l 1,5,-1
 412 714 l 1,6,-1
 412 569 l 1,7,-1
 615 193 l 1,8,-1
 615 141 l 1,9,-1
 412 141 l 1,10,-1
 412 0 l 1,11,-1
 341 0 l 1,0,-1
412 206 m 1,12,-1
 536 206 l 1,13,-1
 412 454 l 1,14,-1
 412 206 l 1,12,-1
217 206 m 1,15,-1
 341 206 l 1,16,-1
 341 452 l 1,17,-1
 217 206 l 1,15,-1
EndSplineSet
EndChar
StartChar: downandhorizontaltriangle-dentistry
Encoding: 9156 9156 808
Width: 755
Flags: W
LayerCount: 2
Fore
SplineSet
342 0 m 1,0,-1
 342 141 l 1,1,-1
 140 141 l 1,2,-1
 140 193 l 1,3,-1
 342 569 l 1,4,-1
 342 643 l 1,5,-1
 51 643 l 1,6,-1
 51 714 l 1,7,-1
 704 714 l 1,8,-1
 704 643 l 1,9,-1
 413 643 l 1,10,-1
 413 569 l 1,11,-1
 616 193 l 1,12,-1
 616 141 l 1,13,-1
 413 141 l 1,14,-1
 413 0 l 1,15,-1
 342 0 l 1,0,-1
413 206 m 1,16,-1
 537 206 l 1,17,-1
 413 454 l 1,18,-1
 413 206 l 1,16,-1
218 206 m 1,19,-1
 342 206 l 1,20,-1
 342 452 l 1,21,-1
 218 206 l 1,19,-1
EndSplineSet
EndChar
StartChar: upandhorizontal-dentistry
Encoding: 9162 9162 814
Width: 755
Flags: W
LayerCount: 2
Fore
SplineSet
51 0 m 1,0,-1
 51 71 l 1,1,-1
 342 71 l 1,2,-1
 342 714 l 1,3,-1
 413 714 l 1,4,-1
 413 71 l 1,5,-1
 704 71 l 1,6,-1
 704 0 l 1,7,-1
 51 0 l 1,0,-1
EndSplineSet
EndChar
StartChar: verticalandbottomleft-dentistry
Encoding: 9164 9164 2873
Width: 755
Flags: W
LayerCount: 2
Fore
SplineSet
51 0 m 1,0,-1
 51 71 l 1,1,-1
 342 71 l 1,2,-1
 342 714 l 1,3,-1
 413 714 l 1,4,-1
 413 0 l 1,5,-1
 51 0 l 1,0,-1
EndSplineSet
EndChar
StartChar: squarefoot
Encoding: 9165 9165 967
Width: 788
Flags: W
LayerCount: 2
Fore
SplineSet
324 534 m 1,0,-1
 388 792 l 1,1,-1
 477 792 l 1,2,-1
 387 534 l 1,3,-1
 324 534 l 1,0,-1
51 0 m 1,4,-1
 51 714 l 1,5,-1
 310 714 l 1,6,-1
 292 643 l 1,7,-1
 122 643 l 1,8,-1
 122 71 l 1,9,-1
 666 71 l 1,10,-1
 666 643 l 1,11,-1
 479 643 l 1,12,-1
 496 714 l 1,13,-1
 737 714 l 1,14,-1
 737 0 l 1,15,-1
 51 0 l 1,4,-1
EndSplineSet
EndChar
StartChar: uni23CE
Encoding: 9166 9166 869
Width: 749
Flags: W
LayerCount: 2
Fore
SplineSet
296 -21 m 1,0,-1
 51 251 l 1,1,-1
 296 523 l 1,2,-1
 296 364 l 1,3,-1
 472 364 l 1,4,-1
 472 652 l 1,5,-1
 698 652 l 1,6,-1
 698 253 l 2,7,8
 698 192 698 192 674.5 165 c 128,-1,9
 651 138 651 138 583 138 c 2,10,-1
 296 138 l 1,11,-1
 296 -21 l 1,0,-1
254 88 m 1,12,-1
 254 180 l 1,13,-1
 583 180 l 2,14,15
 629 180 629 180 642.5 193.5 c 128,-1,16
 656 207 656 207 656 253 c 2,17,-1
 656 610 l 1,18,-1
 514 610 l 1,19,-1
 514 322 l 1,20,-1
 254 322 l 1,21,-1
 254 414 l 1,22,-1
 107 251 l 1,23,-1
 254 88 l 1,12,-1
EndSplineSet
EndChar
StartChar: metricallongovershort
Encoding: 9170 9170 855
Width: 438
Flags: W
LayerCount: 2
Fore
SplineSet
51 388 m 1,0,-1
 51 452 l 1,1,-1
 387 452 l 1,2,-1
 387 388 l 1,3,-1
 51 388 l 1,0,-1
219 184 m 0,4,5
 175 184 175 184 138.5 205 c 128,-1,6
 102 226 102 226 78.5 262.5 c 128,-1,7
 55 299 55 299 51 344 c 1,8,-1
 116 344 l 1,9,10
 122 298 122 298 146.5 275 c 128,-1,11
 171 252 171 252 219 252 c 0,12,13
 260 252 260 252 288.5 278 c 128,-1,14
 317 304 317 304 322 344 c 1,15,-1
 387 344 l 1,16,17
 383 299 383 299 360 262.5 c 128,-1,18
 337 226 337 226 300.5 205 c 128,-1,19
 264 184 264 184 219 184 c 0,4,5
EndSplineSet
EndChar
StartChar: metricallongovertwoshorts
Encoding: 9172 9172 2672
Width: 808
Flags: W
LayerCount: 2
Fore
SplineSet
51 388 m 1,0,-1
 51 452 l 1,1,-1
 757 452 l 1,2,-1
 757 388 l 1,3,-1
 51 388 l 1,0,-1
589 184 m 0,4,5
 545 184 545 184 508.5 205 c 128,-1,6
 472 226 472 226 448.5 262.5 c 128,-1,7
 425 299 425 299 421 344 c 1,8,-1
 486 344 l 1,9,10
 493 295 493 295 517.5 273.5 c 128,-1,11
 542 252 542 252 589 252 c 0,12,13
 630 252 630 252 659 278 c 128,-1,14
 688 304 688 304 692 344 c 1,15,-1
 757 344 l 1,16,17
 753 298 753 298 729.5 262 c 128,-1,18
 706 226 706 226 669 205 c 128,-1,19
 632 184 632 184 589 184 c 0,4,5
219 184 m 0,20,21
 175 184 175 184 138.5 205 c 128,-1,22
 102 226 102 226 78.5 262.5 c 128,-1,23
 55 299 55 299 51 344 c 1,24,-1
 116 344 l 1,25,26
 122 298 122 298 146.5 275 c 128,-1,27
 171 252 171 252 219 252 c 0,28,29
 260 252 260 252 288.5 278 c 128,-1,30
 317 304 317 304 322 344 c 1,31,-1
 387 344 l 1,32,33
 383 299 383 299 360 262.5 c 128,-1,34
 337 226 337 226 300.5 205 c 128,-1,35
 264 184 264 184 219 184 c 0,20,21
EndSplineSet
EndChar
StartChar: metricaltwoshortsjoined
Encoding: 9174 9174 3081
Width: 808
Flags: W
LayerCount: 2
Fore
SplineSet
589 184 m 0,0,1
 545 184 545 184 508.5 205 c 128,-1,2
 472 226 472 226 448.5 262.5 c 128,-1,3
 425 299 425 299 421 344 c 1,4,-1
 486 344 l 1,5,6
 493 295 493 295 517.5 273.5 c 128,-1,7
 542 252 542 252 589 252 c 0,8,9
 630 252 630 252 659 278 c 128,-1,10
 688 304 688 304 692 344 c 1,11,-1
 757 344 l 1,12,13
 753 298 753 298 729.5 262 c 128,-1,14
 706 226 706 226 669 205 c 128,-1,15
 632 184 632 184 589 184 c 0,0,1
219 184 m 0,16,17
 175 184 175 184 138.5 205 c 128,-1,18
 102 226 102 226 78.5 262.5 c 128,-1,19
 55 299 55 299 51 344 c 1,20,-1
 116 344 l 1,21,22
 122 298 122 298 146.5 275 c 128,-1,23
 171 252 171 252 219 252 c 0,24,25
 260 252 260 252 288.5 278 c 128,-1,26
 317 304 317 304 322 344 c 1,27,-1
 387 344 l 1,28,29
 383 299 383 299 360 262.5 c 128,-1,30
 337 226 337 226 300.5 205 c 128,-1,31
 264 184 264 184 219 184 c 0,16,17
EndSplineSet
EndChar
StartChar: metricaltriseme
Encoding: 9175 9175 860
Width: 769
Flags: W
LayerCount: 2
Fore
SplineSet
51 379 m 1,0,-1
 51 450 l 1,1,-1
 654 450 l 1,2,-1
 654 700 l 1,3,-1
 718 700 l 1,4,-1
 718 379 l 1,5,-1
 51 379 l 1,0,-1
EndSplineSet
EndChar
StartChar: earthground
Encoding: 9178 9178 2684
Width: 755
Flags: W
LayerCount: 2
Fore
SplineSet
51 286 m 1,0,-1
 51 357 l 1,1,-1
 342 357 l 1,2,-1
 342 714 l 1,3,-1
 413 714 l 1,4,-1
 413 357 l 1,5,-1
 704 357 l 1,6,-1
 704 286 l 1,7,-1
 51 286 l 1,0,-1
141 144 m 1,8,-1
 141 215 l 1,9,-1
 614 215 l 1,10,-1
 614 144 l 1,11,-1
 141 144 l 1,8,-1
231 1 m 1,12,-1
 231 72 l 1,13,-1
 524 72 l 1,14,-1
 524 1 l 1,15,-1
 231 1 l 1,12,-1
EndSplineSet
EndChar
StartChar: whitetrapezium
Encoding: 9186 9186 2165
Width: 1016
Flags: W
LayerCount: 2
Fore
SplineSet
51 0 m 1,0,-1
 51 619 l 1,1,-1
 684 619 l 1,2,-1
 965 0 l 1,3,-1
 51 0 l 1,0,-1
122 71 m 1,4,-1
 855 71 l 1,5,-1
 638 548 l 1,6,-1
 122 548 l 1,7,-1
 122 71 l 1,4,-1
EndSplineSet
EndChar
StartChar: electricalintersection
Encoding: 9191 9191 827
Width: 862
Flags: W
LayerCount: 2
Fore
SplineSet
130 -261 m 1,0,-1
 94 -244 l 1,1,-1
 292 159 l 1,2,3
 260 197 260 197 260 246 c 0,4,5
 260 306 260 306 306 346 c 1,6,-1
 198 772 l 1,7,-1
 236 782 l 1,8,-1
 341 367 l 1,9,10
 353 373 353 373 366 375.5 c 128,-1,11
 379 378 379 378 392 378 c 0,12,13
 438 378 438 378 472 351 c 1,14,-1
 787 599 l 1,15,-1
 811 568 l 1,16,-1
 499 323 l 1,17,18
 524 289 524 289 524 246 c 0,19,20
 524 198 524 198 493 161 c 1,21,-1
 693 -244 l 1,22,-1
 657 -261 l 1,23,-1
 462 134 l 1,24,25
 430 114 430 114 392 114 c 256,26,27
 354 114 354 114 323 133 c 1,28,-1
 130 -261 l 1,0,-1
174 325 m 1,29,-1
 75 391 l 1,30,-1
 134 396 l 1,31,-1
 51 730 l 1,32,-1
 89 740 l 1,33,-1
 172 406 l 1,34,-1
 229 430 l 1,35,-1
 174 325 l 1,29,-1
EndSplineSet
EndChar
StartChar: decimalExponentSymbol
Encoding: 9192 9192 2200
Width: 561
Flags: W
LayerCount: 2
Fore
SplineSet
388 -5 m 0,0,1
 331 -5 331 -5 299 40.5 c 128,-1,2
 267 86 267 86 267 168 c 0,3,4
 267 251 267 251 298.5 296 c 128,-1,5
 330 341 330 341 388 341 c 0,6,7
 445 341 445 341 477.5 295.5 c 128,-1,8
 510 250 510 250 510 168 c 0,9,10
 510 85 510 85 478.5 40 c 128,-1,11
 447 -5 447 -5 388 -5 c 0,0,1
135 0 m 1,12,-1
 135 225 l 2,13,14
 135 251 135 251 138 282 c 1,15,16
 130 275 130 275 114.5 262 c 128,-1,17
 99 249 99 249 76 231 c 1,18,-1
 51 265 l 1,19,-1
 142 336 l 1,20,-1
 186 336 l 1,21,-1
 186 0 l 1,22,-1
 135 0 l 1,12,-1
388 40 m 256,23,24
 426 40 426 40 442 72.5 c 128,-1,25
 458 105 458 105 458 168 c 0,26,27
 458 230 458 230 442 263 c 128,-1,28
 426 296 426 296 388 296 c 256,29,30
 350 296 350 296 334 263 c 128,-1,31
 318 230 318 230 318 168 c 0,32,33
 318 105 318 105 334 72.5 c 128,-1,34
 350 40 350 40 388 40 c 256,23,24
EndSplineSet
EndChar
StartChar: uni23F4
Encoding: 9204 9204 2287
Width: 586
Flags: W
LayerCount: 2
Fore
SplineSet
432 72 m 1,0,-1
 154 350 l 1,1,-1
 432 628 l 1,2,-1
 432 72 l 1,0,-1
EndSplineSet
EndChar
StartChar: uni23FD
Encoding: 9213 9213 1949
Width: 894
Flags: W
LayerCount: 2
Fore
SplineSet
395 24 m 1,0,-1
 395 700 l 1,1,-1
 499 700 l 1,2,-1
 499 24 l 1,3,-1
 395 24 l 1,0,-1
EndSplineSet
EndChar
StartChar: uni2400
Encoding: 9216 9216 3062
Width: 600
Flags: W
LayerCount: 2
Fore
SplineSet
35 463 m 1,0,-1
 35 690 l 1,1,-1
 75 690 l 1,2,-1
 154 518 l 1,3,-1
 153 540 l 1,4,-1
 153 690 l 1,5,-1
 188 690 l 1,6,-1
 188 463 l 1,7,-1
 148 463 l 1,8,-1
 68 636 l 1,9,-1
 70 590 l 1,10,-1
 70 463 l 1,11,-1
 35 463 l 1,0,-1
314 228 m 0,12,13
 277 228 277 228 256.5 250 c 128,-1,14
 236 272 236 272 236 310 c 2,15,-1
 236 458 l 1,16,-1
 274 458 l 1,17,-1
 274 309 l 2,18,19
 274 258 274 258 315 258 c 0,20,21
 354 258 354 258 354 309 c 2,22,-1
 354 458 l 1,23,-1
 392 458 l 1,24,-1
 392 309 l 2,25,26
 392 273 392 273 372 250.5 c 128,-1,27
 352 228 352 228 314 228 c 0,12,13
436 0 m 1,28,-1
 436 227 l 1,29,-1
 473 227 l 1,30,-1
 473 30 l 1,31,-1
 570 30 l 1,32,-1
 570 0 l 1,33,-1
 436 0 l 1,28,-1
EndSplineSet
EndChar
StartChar: uni2403
Encoding: 9219 9219 2197
Width: 600
Flags: W
LayerCount: 2
Fore
SplineSet
41 463 m 1,0,-1
 41 690 l 1,1,-1
 181 690 l 1,2,-1
 181 660 l 1,3,-1
 78 660 l 1,4,-1
 78 596 l 1,5,-1
 175 596 l 1,6,-1
 175 566 l 1,7,-1
 78 566 l 1,8,-1
 78 493 l 1,9,-1
 181 493 l 1,10,-1
 181 463 l 1,11,-1
 41 463 l 1,0,-1
298 231 m 1,12,-1
 298 428 l 1,13,-1
 237 428 l 1,14,-1
 237 458 l 1,15,-1
 396 458 l 1,16,-1
 396 428 l 1,17,-1
 335 428 l 1,18,-1
 335 231 l 1,19,-1
 298 231 l 1,12,-1
399 0 m 1,20,-1
 469 117 l 1,21,-1
 403 227 l 1,22,-1
 443 227 l 1,23,-1
 491 145 l 1,24,-1
 539 227 l 1,25,-1
 576 227 l 1,26,-1
 511 118 l 1,27,-1
 582 0 l 1,28,-1
 542 0 l 1,29,-1
 489 90 l 1,30,-1
 437 0 l 1,31,-1
 399 0 l 1,20,-1
EndSplineSet
EndChar
StartChar: uni2404
Encoding: 9220 9220 791
Width: 600
Flags: W
LayerCount: 2
Fore
SplineSet
41 463 m 1,0,-1
 41 690 l 1,1,-1
 181 690 l 1,2,-1
 181 660 l 1,3,-1
 78 660 l 1,4,-1
 78 596 l 1,5,-1
 175 596 l 1,6,-1
 175 566 l 1,7,-1
 78 566 l 1,8,-1
 78 493 l 1,9,-1
 181 493 l 1,10,-1
 181 463 l 1,11,-1
 41 463 l 1,0,-1
298 227 m 0,12,13
 207 227 207 227 207 347 c 0,14,15
 207 463 207 463 299 463 c 256,16,17
 391 463 391 463 391 347 c 0,18,19
 391 294 391 294 369.5 260.5 c 128,-1,20
 348 227 348 227 298 227 c 0,12,13
298 257 m 0,21,22
 350 257 350 257 350 347 c 0,23,24
 350 433 350 433 299 433 c 256,25,26
 248 433 248 433 248 347 c 0,27,28
 248 257 248 257 298 257 c 0,21,22
484 0 m 1,29,-1
 484 197 l 1,30,-1
 423 197 l 1,31,-1
 423 227 l 1,32,-1
 582 227 l 1,33,-1
 582 197 l 1,34,-1
 521 197 l 1,35,-1
 521 0 l 1,36,-1
 484 0 l 1,29,-1
EndSplineSet
EndChar
StartChar: uni2406
Encoding: 9222 9222 399
Width: 600
Flags: W
LayerCount: 2
Fore
SplineSet
11 463 m 1,0,-1
 90 690 l 1,1,-1
 118 690 l 1,2,-1
 197 463 l 1,3,-1
 160 463 l 1,4,-1
 140 531 l 1,5,-1
 68 531 l 1,6,-1
 48 463 l 1,7,-1
 11 463 l 1,0,-1
78 561 m 1,8,-1
 130 561 l 1,9,-1
 104 651 l 1,10,-1
 78 561 l 1,8,-1
323 227 m 0,11,12
 269 227 269 227 243 259 c 128,-1,13
 217 291 217 291 217 345 c 0,14,15
 217 396 217 396 244.5 429.5 c 128,-1,16
 272 463 272 463 322 463 c 0,17,18
 357 463 357 463 378 448 c 1,19,-1
 366 421 l 1,20,21
 345 433 345 433 322 433 c 0,22,23
 288 433 288 433 273 406 c 128,-1,24
 258 379 258 379 258 345 c 0,25,26
 258 257 258 257 324 257 c 0,27,28
 350 257 350 257 369 266 c 1,29,-1
 369 236 l 1,30,31
 346 227 346 227 323 227 c 0,11,12
415 0 m 1,32,-1
 415 227 l 1,33,-1
 453 227 l 1,34,-1
 453 134 l 1,35,-1
 536 227 l 1,36,-1
 580 227 l 1,37,-1
 487 127 l 1,38,-1
 583 0 l 1,39,-1
 539 0 l 1,40,-1
 462 103 l 1,41,-1
 453 94 l 1,42,-1
 453 0 l 1,43,-1
 415 0 l 1,32,-1
EndSplineSet
EndChar
StartChar: uni2407
Encoding: 9223 9223 2887
Width: 600
Flags: W
LayerCount: 2
Fore
SplineSet
38 463 m 1,0,-1
 38 690 l 1,1,-1
 99 690 l 2,2,3
 150 690 150 690 170 675.5 c 128,-1,4
 190 661 190 661 190 631 c 0,5,6
 190 613 190 613 177 599.5 c 128,-1,7
 164 586 164 586 146 582 c 1,8,9
 198 569 198 569 198 528 c 0,10,11
 198 493 198 493 173.5 478 c 128,-1,12
 149 463 149 463 114 463 c 2,13,-1
 38 463 l 1,0,-1
76 595 m 1,14,-1
 105 595 l 2,15,16
 131 595 131 595 140 603.5 c 128,-1,17
 149 612 149 612 149 629 c 0,18,19
 149 649 149 649 136.5 655 c 128,-1,20
 124 661 124 661 101 661 c 2,21,-1
 76 661 l 1,22,-1
 76 595 l 1,14,-1
76 492 m 1,23,-1
 109 492 l 2,24,25
 157 492 157 492 157 531 c 0,26,27
 157 566 157 566 107 566 c 2,28,-1
 76 566 l 1,29,-1
 76 492 l 1,23,-1
229 231 m 1,30,-1
 229 458 l 1,31,-1
 369 458 l 1,32,-1
 369 428 l 1,33,-1
 266 428 l 1,34,-1
 266 364 l 1,35,-1
 363 364 l 1,36,-1
 363 334 l 1,37,-1
 266 334 l 1,38,-1
 266 261 l 1,39,-1
 369 261 l 1,40,-1
 369 231 l 1,41,-1
 229 231 l 1,30,-1
436 0 m 1,42,-1
 436 227 l 1,43,-1
 473 227 l 1,44,-1
 473 30 l 1,45,-1
 570 30 l 1,46,-1
 570 0 l 1,47,-1
 436 0 l 1,42,-1
EndSplineSet
EndChar
StartChar: uni2408
Encoding: 9224 9224 408
Width: 600
Flags: W
LayerCount: 2
Fore
SplineSet
114 351 m 1,0,-1
 114 578 l 1,1,-1
 175 578 l 2,2,3
 226 578 226 578 246 563.5 c 128,-1,4
 266 549 266 549 266 519 c 0,5,6
 266 501 266 501 253 488 c 128,-1,7
 240 475 240 475 222 470 c 1,8,9
 274 457 274 457 274 416 c 0,10,11
 274 381 274 381 249.5 366 c 128,-1,12
 225 351 225 351 190 351 c 2,13,-1
 114 351 l 1,0,-1
152 483 m 1,14,-1
 181 483 l 2,15,16
 207 483 207 483 216 491.5 c 128,-1,17
 225 500 225 500 225 517 c 0,18,19
 225 537 225 537 212.5 543 c 128,-1,20
 200 549 200 549 177 549 c 2,21,-1
 152 549 l 1,22,-1
 152 483 l 1,14,-1
152 380 m 1,23,-1
 185 380 l 2,24,25
 233 380 233 380 233 419 c 0,26,27
 233 454 233 454 183 454 c 2,28,-1
 152 454 l 1,29,-1
 152 380 l 1,23,-1
394 119 m 0,30,31
 374 119 374 119 356.5 122.5 c 128,-1,32
 339 126 339 126 325 132 c 1,33,-1
 325 165 l 1,34,35
 362 148 362 148 394 148 c 0,36,37
 441 148 441 148 441 182 c 0,38,39
 441 206 441 206 408 219 c 256,40,41
 375 232 375 232 352 248 c 128,-1,42
 329 264 329 264 329 296 c 0,43,44
 329 327 329 327 352 341 c 128,-1,45
 375 355 375 355 406 355 c 0,46,47
 441 355 441 355 474 341 c 1,48,-1
 463 313 l 1,49,50
 436 326 436 326 408 326 c 0,51,52
 390 326 390 326 378.5 318 c 128,-1,53
 367 310 367 310 367 296 c 0,54,55
 367 275 367 275 393 263 c 0,56,57
 410 255 410 255 430.5 245 c 128,-1,58
 451 235 451 235 465.5 220.5 c 128,-1,59
 480 206 480 206 480 185 c 0,60,61
 480 151 480 151 456 135 c 128,-1,62
 432 119 432 119 394 119 c 0,30,31
EndSplineSet
EndChar
StartChar: uni2409
Encoding: 9225 9225 2696
Width: 600
Flags: W
LayerCount: 2
Fore
SplineSet
114 351 m 1,0,-1
 114 578 l 1,1,-1
 151 578 l 1,2,-1
 151 484 l 1,3,-1
 232 484 l 1,4,-1
 232 578 l 1,5,-1
 269 578 l 1,6,-1
 269 351 l 1,7,-1
 232 351 l 1,8,-1
 232 454 l 1,9,-1
 151 454 l 1,10,-1
 151 351 l 1,11,-1
 114 351 l 1,0,-1
403 124 m 1,12,-1
 403 321 l 1,13,-1
 342 321 l 1,14,-1
 342 351 l 1,15,-1
 501 351 l 1,16,-1
 501 321 l 1,17,-1
 440 321 l 1,18,-1
 440 124 l 1,19,-1
 403 124 l 1,12,-1
EndSplineSet
EndChar
StartChar: uni240A
Encoding: 9226 9226 2465
Width: 600
Flags: W
LayerCount: 2
Fore
SplineSet
143 351 m 1,0,-1
 143 578 l 1,1,-1
 180 578 l 1,2,-1
 180 381 l 1,3,-1
 277 381 l 1,4,-1
 277 351 l 1,5,-1
 143 351 l 1,0,-1
359 124 m 1,6,-1
 359 351 l 1,7,-1
 499 351 l 1,8,-1
 499 321 l 1,9,-1
 396 321 l 1,10,-1
 396 247 l 1,11,-1
 493 247 l 1,12,-1
 493 217 l 1,13,-1
 396 217 l 1,14,-1
 396 124 l 1,15,-1
 359 124 l 1,6,-1
EndSplineSet
EndChar
StartChar: uni240E
Encoding: 9230 9230 2391
Width: 600
Flags: W
LayerCount: 2
Fore
SplineSet
185 345 m 0,0,1
 165 345 165 345 147.5 348.5 c 128,-1,2
 130 352 130 352 116 358 c 1,3,-1
 116 391 l 1,4,5
 153 374 153 374 185 374 c 0,6,7
 232 374 232 374 232 408 c 0,8,9
 232 431 232 431 197 445 c 0,10,11
 162 458 162 458 141 474.5 c 128,-1,12
 120 491 120 491 120 522 c 256,13,14
 120 553 120 553 143 567 c 128,-1,15
 166 581 166 581 197 581 c 0,16,17
 232 581 232 581 265 567 c 1,18,-1
 254 539 l 1,19,20
 240 545 240 545 226 548.5 c 128,-1,21
 212 552 212 552 199 552 c 0,22,23
 181 552 181 552 169.5 544 c 128,-1,24
 158 536 158 536 158 522 c 0,25,26
 158 500 158 500 186 488 c 0,27,28
 204 480 204 480 224 470.5 c 128,-1,29
 244 461 244 461 257.5 446.5 c 128,-1,30
 271 432 271 432 271 411 c 0,31,32
 271 377 271 377 247 361 c 128,-1,33
 223 345 223 345 185 345 c 0,0,1
402 119 m 0,34,35
 311 119 311 119 311 239 c 0,36,37
 311 355 311 355 403 355 c 256,38,39
 495 355 495 355 495 239 c 0,40,41
 495 186 495 186 473.5 152.5 c 128,-1,42
 452 119 452 119 402 119 c 0,34,35
402 149 m 0,43,44
 454 149 454 149 454 239 c 0,45,46
 454 325 454 325 403 325 c 256,47,48
 352 325 352 325 352 239 c 0,49,50
 352 149 352 149 402 149 c 0,43,44
EndSplineSet
EndChar
StartChar: uni2410
Encoding: 9232 9232 2962
Width: 600
Flags: W
LayerCount: 2
Fore
SplineSet
38 463 m 1,0,-1
 38 690 l 1,1,-1
 102 690 l 2,2,3
 205 690 205 690 205 578 c 0,4,5
 205 524 205 524 179 493.5 c 128,-1,6
 153 463 153 463 102 463 c 2,7,-1
 38 463 l 1,0,-1
75 493 m 1,8,-1
 95 493 l 2,9,10
 136 493 136 493 150 514 c 128,-1,11
 164 535 164 535 164 577 c 256,12,13
 164 619 164 619 148 639.5 c 128,-1,14
 132 660 132 660 92 660 c 2,15,-1
 75 660 l 1,16,-1
 75 493 l 1,8,-1
238 231 m 1,17,-1
 238 458 l 1,18,-1
 275 458 l 1,19,-1
 275 261 l 1,20,-1
 372 261 l 1,21,-1
 372 231 l 1,22,-1
 238 231 l 1,17,-1
429 0 m 1,23,-1
 429 227 l 1,24,-1
 569 227 l 1,25,-1
 569 197 l 1,26,-1
 466 197 l 1,27,-1
 466 133 l 1,28,-1
 563 133 l 1,29,-1
 563 103 l 1,30,-1
 466 103 l 1,31,-1
 466 30 l 1,32,-1
 569 30 l 1,33,-1
 569 0 l 1,34,-1
 429 0 l 1,23,-1
EndSplineSet
EndChar
StartChar: uni2411
Encoding: 9233 9233 2956
Width: 600
Flags: W
LayerCount: 2
Fore
SplineSet
38 463 m 1,0,-1
 38 690 l 1,1,-1
 102 690 l 2,2,3
 205 690 205 690 205 578 c 0,4,5
 205 524 205 524 179 493.5 c 128,-1,6
 153 463 153 463 102 463 c 2,7,-1
 38 463 l 1,0,-1
75 493 m 1,8,-1
 95 493 l 2,9,10
 136 493 136 493 150 514 c 128,-1,11
 164 535 164 535 164 577 c 256,12,13
 164 619 164 619 148 639.5 c 128,-1,14
 132 660 132 660 92 660 c 2,15,-1
 75 660 l 1,16,-1
 75 493 l 1,8,-1
315 227 m 0,17,18
 261 227 261 227 235 259 c 128,-1,19
 209 291 209 291 209 345 c 0,20,21
 209 396 209 396 236.5 429.5 c 128,-1,22
 264 463 264 463 314 463 c 0,23,24
 349 463 349 463 370 448 c 1,25,-1
 358 421 l 1,26,27
 336 433 336 433 314 433 c 0,28,29
 280 433 280 433 265 406 c 128,-1,30
 250 379 250 379 250 345 c 0,31,32
 250 257 250 257 316 257 c 0,33,34
 342 257 342 257 361 266 c 1,35,-1
 361 236 l 1,36,37
 338 227 338 227 315 227 c 0,17,18
479 0 m 1,38,-1
 479 148 l 1,39,-1
 481 195 l 1,40,-1
 456 174 l 1,41,-1
 427 154 l 1,42,-1
 409 180 l 1,43,-1
 478 228 l 1,44,-1
 517 228 l 1,45,-1
 517 0 l 1,46,-1
 479 0 l 1,38,-1
EndSplineSet
EndChar
StartChar: uni2414
Encoding: 9236 9236 513
Width: 600
Flags: W
LayerCount: 2
Fore
SplineSet
38 463 m 1,0,-1
 38 690 l 1,1,-1
 102 690 l 2,2,3
 205 690 205 690 205 578 c 0,4,5
 205 524 205 524 179 493.5 c 128,-1,6
 153 463 153 463 102 463 c 2,7,-1
 38 463 l 1,0,-1
75 493 m 1,8,-1
 95 493 l 2,9,10
 136 493 136 493 150 514 c 128,-1,11
 164 535 164 535 164 577 c 256,12,13
 164 619 164 619 148 639.5 c 128,-1,14
 132 660 132 660 92 660 c 2,15,-1
 75 660 l 1,16,-1
 75 493 l 1,8,-1
315 227 m 0,17,18
 261 227 261 227 235 259 c 128,-1,19
 209 291 209 291 209 345 c 0,20,21
 209 396 209 396 236.5 429.5 c 128,-1,22
 264 463 264 463 314 463 c 0,23,24
 349 463 349 463 370 448 c 1,25,-1
 358 421 l 1,26,27
 336 433 336 433 314 433 c 0,28,29
 280 433 280 433 265 406 c 128,-1,30
 250 379 250 379 250 345 c 0,31,32
 250 257 250 257 316 257 c 0,33,34
 342 257 342 257 361 266 c 1,35,-1
 361 236 l 1,36,37
 338 227 338 227 315 227 c 0,17,18
475 0 m 1,38,-1
 475 53 l 1,39,-1
 372 53 l 1,40,-1
 372 79 l 1,41,-1
 476 229 l 1,42,-1
 513 229 l 1,43,-1
 513 83 l 1,44,-1
 545 83 l 1,45,-1
 545 53 l 1,46,-1
 513 53 l 1,47,-1
 513 0 l 1,48,-1
 475 0 l 1,38,-1
409 83 m 1,49,-1
 475 83 l 1,50,-1
 475 131 l 1,51,-1
 478 189 l 1,52,53
 471 174 471 174 409 83 c 1,49,-1
EndSplineSet
EndChar
StartChar: uni2419
Encoding: 9241 9241 789
Width: 600
Flags: W
LayerCount: 2
Fore
SplineSet
114 351 m 1,0,-1
 114 578 l 1,1,-1
 254 578 l 1,2,-1
 254 548 l 1,3,-1
 151 548 l 1,4,-1
 151 484 l 1,5,-1
 248 484 l 1,6,-1
 248 454 l 1,7,-1
 151 454 l 1,8,-1
 151 381 l 1,9,-1
 254 381 l 1,10,-1
 254 351 l 1,11,-1
 114 351 l 1,0,-1
320 124 m 1,12,-1
 320 351 l 1,13,-1
 358 351 l 1,14,-1
 403 230 l 1,15,-1
 447 351 l 1,16,-1
 485 351 l 1,17,-1
 485 124 l 1,18,-1
 451 124 l 1,19,-1
 451 263 l 1,20,-1
 452 297 l 1,21,-1
 414 188 l 1,22,-1
 390 188 l 1,23,-1
 353 297 l 1,24,-1
 354 261 l 1,25,-1
 354 124 l 1,26,-1
 320 124 l 1,12,-1
EndSplineSet
EndChar
StartChar: uni241A
Encoding: 9242 9242 2228
Width: 600
Flags: W
LayerCount: 2
Fore
SplineSet
98 458 m 0,0,1
 56 458 56 458 29 471 c 1,2,-1
 29 504 l 1,3,4
 66 487 66 487 98 487 c 0,5,6
 145 487 145 487 145 521 c 0,7,8
 145 546 145 546 112 558 c 0,9,10
 78 570 78 570 55.5 587 c 128,-1,11
 33 604 33 604 33 635 c 256,12,13
 33 666 33 666 56 680 c 128,-1,14
 79 694 79 694 110 694 c 0,15,16
 145 694 145 694 178 680 c 1,17,-1
 167 652 l 1,18,19
 140 665 140 665 112 665 c 0,20,21
 94 665 94 665 82.5 657 c 128,-1,22
 71 649 71 649 71 635 c 0,23,24
 71 613 71 613 98 601 c 0,25,26
 116 593 116 593 136 583.5 c 128,-1,27
 156 574 156 574 170 560 c 128,-1,28
 184 546 184 546 184 524 c 0,29,30
 184 490 184 490 160 474 c 128,-1,31
 136 458 136 458 98 458 c 0,0,1
307 228 m 0,32,33
 270 228 270 228 249.5 250 c 128,-1,34
 229 272 229 272 229 310 c 2,35,-1
 229 458 l 1,36,-1
 267 458 l 1,37,-1
 267 309 l 2,38,39
 267 258 267 258 308 258 c 0,40,41
 347 258 347 258 347 309 c 2,42,-1
 347 458 l 1,43,-1
 385 458 l 1,44,-1
 385 309 l 2,45,46
 385 273 385 273 365 250.5 c 128,-1,47
 345 228 345 228 307 228 c 0,32,33
415 0 m 1,48,-1
 415 227 l 1,49,-1
 476 227 l 2,50,51
 527 227 527 227 547 212.5 c 128,-1,52
 567 198 567 198 567 168 c 0,53,54
 567 150 567 150 554 137 c 128,-1,55
 541 124 541 124 523 119 c 1,56,57
 575 106 575 106 575 65 c 0,58,59
 575 30 575 30 550.5 15 c 128,-1,60
 526 0 526 0 491 0 c 2,61,-1
 415 0 l 1,48,-1
453 132 m 1,62,-1
 482 132 l 2,63,64
 508 132 508 132 517 140.5 c 128,-1,65
 526 149 526 149 526 166 c 0,66,67
 526 186 526 186 513.5 192 c 128,-1,68
 501 198 501 198 478 198 c 2,69,-1
 453 198 l 1,70,-1
 453 132 l 1,62,-1
453 29 m 1,71,-1
 486 29 l 2,72,73
 534 29 534 29 534 68 c 0,74,75
 534 103 534 103 484 103 c 2,76,-1
 453 103 l 1,77,-1
 453 29 l 1,71,-1
EndSplineSet
EndChar
StartChar: uni241C
Encoding: 9244 9244 803
Width: 600
Flags: W
LayerCount: 2
Fore
SplineSet
143 351 m 1,0,-1
 143 578 l 1,1,-1
 283 578 l 1,2,-1
 283 548 l 1,3,-1
 180 548 l 1,4,-1
 180 474 l 1,5,-1
 277 474 l 1,6,-1
 277 444 l 1,7,-1
 180 444 l 1,8,-1
 180 351 l 1,9,-1
 143 351 l 1,0,-1
394 119 m 0,10,11
 374 119 374 119 356.5 122.5 c 128,-1,12
 339 126 339 126 325 132 c 1,13,-1
 325 165 l 1,14,15
 362 148 362 148 394 148 c 0,16,17
 441 148 441 148 441 182 c 0,18,19
 441 206 441 206 408 219 c 256,20,21
 375 232 375 232 352 248 c 128,-1,22
 329 264 329 264 329 296 c 0,23,24
 329 327 329 327 352 341 c 128,-1,25
 375 355 375 355 406 355 c 0,26,27
 441 355 441 355 474 341 c 1,28,-1
 463 313 l 1,29,30
 436 326 436 326 408 326 c 0,31,32
 390 326 390 326 378.5 318 c 128,-1,33
 367 310 367 310 367 296 c 0,34,35
 367 275 367 275 393 263 c 0,36,37
 410 255 410 255 430.5 245 c 128,-1,38
 451 235 451 235 465.5 220.5 c 128,-1,39
 480 206 480 206 480 185 c 0,40,41
 480 151 480 151 456 135 c 128,-1,42
 432 119 432 119 394 119 c 0,10,11
EndSplineSet
EndChar
StartChar: uni241F
Encoding: 9247 9247 1136
Width: 600
Flags: W
LayerCount: 2
Fore
SplineSet
188 348 m 0,0,1
 151 348 151 348 130.5 370 c 128,-1,2
 110 392 110 392 110 430 c 2,3,-1
 110 578 l 1,4,-1
 148 578 l 1,5,-1
 148 429 l 2,6,7
 148 378 148 378 189 378 c 0,8,9
 228 378 228 378 228 429 c 2,10,-1
 228 578 l 1,11,-1
 266 578 l 1,12,-1
 266 429 l 2,13,14
 266 393 266 393 246 370.5 c 128,-1,15
 226 348 226 348 188 348 c 0,0,1
394 119 m 0,16,17
 374 119 374 119 356.5 122.5 c 128,-1,18
 339 126 339 126 325 132 c 1,19,-1
 325 165 l 1,20,21
 362 148 362 148 394 148 c 0,22,23
 441 148 441 148 441 182 c 0,24,25
 441 206 441 206 408 219 c 256,26,27
 375 232 375 232 352 248 c 128,-1,28
 329 264 329 264 329 296 c 0,29,30
 329 327 329 327 352 341 c 128,-1,31
 375 355 375 355 406 355 c 0,32,33
 441 355 441 355 474 341 c 1,34,-1
 463 313 l 1,35,36
 436 326 436 326 408 326 c 0,37,38
 390 326 390 326 378.5 318 c 128,-1,39
 367 310 367 310 367 296 c 0,40,41
 367 275 367 275 393 263 c 0,42,43
 410 255 410 255 430.5 245 c 128,-1,44
 451 235 451 235 465.5 220.5 c 128,-1,45
 480 206 480 206 480 185 c 0,46,47
 480 151 480 151 456 135 c 128,-1,48
 432 119 432 119 394 119 c 0,16,17
EndSplineSet
EndChar
StartChar: uni2442
Encoding: 9282 9282 2629
Width: 500
Flags: W
LayerCount: 2
Fore
SplineSet
250 0 m 256,0,1
 233 0 233 0 227 6 c 128,-1,2
 221 12 221 12 221 29 c 2,3,-1
 221 235 l 1,4,-1
 85 235 l 2,5,6
 68 235 68 235 62.5 241.5 c 128,-1,7
 57 248 57 248 57 264 c 2,8,-1
 57 494 l 2,9,10
 57 511 57 511 63 516.5 c 128,-1,11
 69 522 69 522 86 522 c 256,12,13
 103 522 103 522 109 516 c 128,-1,14
 115 510 115 510 115 494 c 2,15,-1
 115 293 l 1,16,-1
 385 293 l 1,17,-1
 385 494 l 2,18,19
 385 510 385 510 391 516 c 128,-1,20
 397 522 397 522 414 522 c 256,21,22
 431 522 431 522 437 516.5 c 128,-1,23
 443 511 443 511 443 494 c 2,24,-1
 443 263 l 2,25,26
 443 245 443 245 439 240 c 128,-1,27
 435 235 435 235 419 235 c 2,28,-1
 279 235 l 1,29,-1
 279 29 l 2,30,31
 279 12 279 12 273 6 c 128,-1,32
 267 0 267 0 250 0 c 256,0,1
EndSplineSet
EndChar
StartChar: uni2443
Encoding: 9283 9283 981
Width: 500
Flags: W
LayerCount: 2
Fore
SplineSet
86 0 m 256,0,1
 69 0 69 0 63 6 c 128,-1,2
 57 12 57 12 57 28 c 2,3,-1
 57 258 l 2,4,5
 57 274 57 274 62.5 280.5 c 128,-1,6
 68 287 68 287 85 287 c 2,7,-1
 221 287 l 1,8,-1
 221 493 l 2,9,10
 221 510 221 510 227 516 c 128,-1,11
 233 522 233 522 250 522 c 256,12,13
 267 522 267 522 273 516 c 128,-1,14
 279 510 279 510 279 493 c 2,15,-1
 279 287 l 1,16,-1
 419 287 l 2,17,18
 435 287 435 287 439 282 c 128,-1,19
 443 277 443 277 443 259 c 2,20,-1
 443 28 l 2,21,22
 443 12 443 12 437 6 c 128,-1,23
 431 0 431 0 414 0 c 256,24,25
 397 0 397 0 391 6 c 128,-1,26
 385 12 385 12 385 28 c 2,27,-1
 385 229 l 1,28,-1
 115 229 l 1,29,-1
 115 28 l 2,30,31
 115 12 115 12 109 6 c 128,-1,32
 103 0 103 0 86 0 c 256,0,1
EndSplineSet
EndChar
StartChar: uni2444
Encoding: 9284 9284 972
Width: 500
Flags: W
LayerCount: 2
Fore
SplineSet
87 4 m 2,0,1
 70 4 70 4 64 9.5 c 128,-1,2
 58 15 58 15 58 32 c 2,3,-1
 58 184 l 2,4,5
 58 201 58 201 64 207 c 128,-1,6
 70 213 70 213 87 213 c 256,7,8
 104 213 104 213 110 207 c 128,-1,9
 116 201 116 201 116 185 c 2,10,-1
 116 62 l 1,11,-1
 222 62 l 1,12,-1
 222 460 l 1,13,-1
 116 460 l 1,14,-1
 116 337 l 2,15,16
 116 321 116 321 110 315 c 128,-1,17
 104 309 104 309 87 309 c 256,18,19
 70 309 70 309 64 314.5 c 128,-1,20
 58 320 58 320 58 337 c 2,21,-1
 58 489 l 2,22,23
 58 506 58 506 64 512 c 128,-1,24
 70 518 70 518 87 518 c 2,25,-1
 414 518 l 2,26,27
 430 518 430 518 436 511 c 128,-1,28
 442 504 442 504 442 490 c 2,29,-1
 442 337 l 2,30,31
 442 320 442 320 436 314.5 c 128,-1,32
 430 309 430 309 413 309 c 256,33,34
 396 309 396 309 390 315 c 128,-1,35
 384 321 384 321 384 338 c 2,36,-1
 384 460 l 1,37,-1
 280 460 l 1,38,-1
 280 62 l 1,39,-1
 384 62 l 1,40,-1
 384 184 l 2,41,42
 384 201 384 201 390 207 c 128,-1,43
 396 213 396 213 413 213 c 256,44,45
 430 213 430 213 436 207.5 c 128,-1,46
 442 202 442 202 442 185 c 2,47,-1
 442 32 l 2,48,49
 442 15 442 15 436.5 9.5 c 128,-1,50
 431 4 431 4 414 4 c 2,51,-1
 87 4 l 2,0,1
EndSplineSet
EndChar
StartChar: uni2445
Encoding: 9285 9285 973
Width: 500
Flags: W
LayerCount: 2
Fore
SplineSet
51 189 m 1,0,-1
 51 459 l 1,1,-1
 258 350 l 1,2,-1
 464 459 l 1,3,-1
 464 189 l 1,4,-1
 258 297 l 1,5,-1
 51 189 l 1,0,-1
98 266 m 1,6,-1
 207 324 l 1,7,-1
 98 382 l 1,8,-1
 98 266 l 1,6,-1
417 266 m 1,9,-1
 417 382 l 1,10,-1
 308 324 l 1,11,-1
 417 266 l 1,9,-1
EndSplineSet
EndChar
StartChar: uni2449
Encoding: 9289 9289 976
Width: 500
Flags: W
LayerCount: 2
Fore
SplineSet
274 137 m 0,0,1
 242 137 242 137 226 146 c 128,-1,2
 210 155 210 155 210 183 c 2,3,-1
 210 343 l 2,4,5
 210 369 210 369 226.5 378 c 128,-1,6
 243 387 243 387 274 387 c 0,7,8
 308 387 308 387 324.5 378 c 128,-1,9
 341 369 341 369 341 343 c 2,10,-1
 341 183 l 2,11,12
 341 155 341 155 324.5 146 c 128,-1,13
 308 137 308 137 274 137 c 0,0,1
107 137 m 0,14,15
 76 137 76 137 59 146 c 128,-1,16
 42 155 42 155 42 183 c 2,17,-1
 42 343 l 2,18,19
 42 369 42 369 59 378 c 128,-1,20
 76 387 76 387 107 387 c 0,21,22
 140 387 140 387 156.5 378 c 128,-1,23
 173 369 173 369 173 343 c 2,24,-1
 173 183 l 2,25,26
 173 155 173 155 156.5 146 c 128,-1,27
 140 137 140 137 107 137 c 0,14,15
418 141 m 0,28,29
 398 141 398 141 388 150 c 128,-1,30
 378 159 378 159 378 185 c 2,31,-1
 378 345 l 2,32,33
 378 370 378 370 388 378.5 c 128,-1,34
 398 387 398 387 418 387 c 0,35,36
 441 387 441 387 449.5 379 c 128,-1,37
 458 371 458 371 458 345 c 2,38,-1
 458 185 l 2,39,40
 458 159 458 159 449 150 c 128,-1,41
 440 141 440 141 418 141 c 0,28,29
EndSplineSet
EndChar
StartChar: uni244A
Encoding: 9290 9290 3060
Width: 500
Flags: W
LayerCount: 2
Fore
SplineSet
453 -66 m 0,0,1
 435 -66 435 -66 423 -39 c 2,2,-1
 178 512 l 2,3,4
 172 524 172 524 172 535 c 0,5,6
 172 542 172 542 179.5 552 c 128,-1,7
 187 562 187 562 202 562 c 0,8,9
 219 562 219 562 231 536 c 2,10,-1
 476 -15 l 1,11,-1
 482 -38 l 2,12,13
 482 -47 482 -47 474 -56.5 c 128,-1,14
 466 -66 466 -66 453 -66 c 0,0,1
299 -66 m 0,15,16
 281 -66 281 -66 269 -39 c 2,17,-1
 24 512 l 2,18,19
 18 524 18 524 18 535 c 0,20,21
 18 542 18 542 25.5 552 c 128,-1,22
 33 562 33 562 48 562 c 0,23,24
 65 562 65 562 77 536 c 2,25,-1
 322 -15 l 1,26,-1
 328 -38 l 2,27,28
 328 -47 328 -47 320.5 -56.5 c 128,-1,29
 313 -66 313 -66 299 -66 c 0,15,16
EndSplineSet
EndChar
StartChar: three.circled
Encoding: 9314 9314 482
Width: 1000
Flags: W
LayerCount: 2
Fore
SplineSet
500 -55 m 0,0,1
 415 -55 415 -55 340 -23 c 128,-1,2
 265 9 265 9 208.5 65.5 c 128,-1,3
 152 122 152 122 120 197 c 128,-1,4
 88 272 88 272 88 357 c 0,5,6
 88 443 88 443 120 517.5 c 128,-1,7
 152 592 152 592 208.5 648.5 c 128,-1,8
 265 705 265 705 340 737 c 128,-1,9
 415 769 415 769 500 769 c 0,10,11
 586 769 586 769 660.5 737 c 128,-1,12
 735 705 735 705 791.5 648.5 c 128,-1,13
 848 592 848 592 880 517.5 c 128,-1,14
 912 443 912 443 912 357 c 0,15,16
 912 272 912 272 880 197 c 128,-1,17
 848 122 848 122 791.5 65.5 c 128,-1,18
 735 9 735 9 660.5 -23 c 128,-1,19
 586 -55 586 -55 500 -55 c 0,0,1
500 1 m 256,20,21
 574 1 574 1 638.5 28.5 c 128,-1,22
 703 56 703 56 752 105 c 128,-1,23
 801 154 801 154 828.5 218.5 c 128,-1,24
 856 283 856 283 856 357 c 256,25,26
 856 431 856 431 828.5 495.5 c 128,-1,27
 801 560 801 560 752 609 c 128,-1,28
 703 658 703 658 638.5 685.5 c 128,-1,29
 574 713 574 713 500 713 c 256,30,31
 426 713 426 713 361.5 685.5 c 128,-1,32
 297 658 297 658 248 609 c 128,-1,33
 199 560 199 560 171.5 495.5 c 128,-1,34
 144 431 144 431 144 357 c 256,35,36
 144 283 144 283 171.5 218.5 c 128,-1,37
 199 154 199 154 248 105 c 128,-1,38
 297 56 297 56 361.5 28.5 c 128,-1,39
 426 1 426 1 500 1 c 256,20,21
495 135 m 0,40,41
 420 135 420 135 367 163 c 1,42,-1
 367 226 l 1,43,44
 435 192 435 192 496 192 c 0,45,46
 594 192 594 192 594 268 c 0,47,48
 594 337 594 337 487 337 c 2,49,-1
 431 337 l 1,50,-1
 431 392 l 1,51,-1
 487 392 l 2,52,53
 582 392 582 392 582 462 c 0,54,55
 582 494 582 494 562 508.5 c 128,-1,56
 542 523 542 523 513 523 c 0,57,58
 465 523 465 523 404 485 c 1,59,-1
 369 531 l 1,60,61
 435 580 435 580 512 580 c 0,62,63
 582 580 582 580 617 549 c 128,-1,64
 652 518 652 518 652 470 c 0,65,66
 652 396 652 396 582 369 c 1,67,68
 665 347 665 347 665 266 c 0,69,70
 665 208 665 208 623.5 171.5 c 128,-1,71
 582 135 582 135 495 135 c 0,40,41
EndSplineSet
EndChar
StartChar: seven.circled
Encoding: 9318 9318 2439
Width: 1000
Flags: W
LayerCount: 2
Fore
SplineSet
500 -55 m 0,0,1
 415 -55 415 -55 340 -23 c 128,-1,2
 265 9 265 9 208.5 65.5 c 128,-1,3
 152 122 152 122 120 197 c 128,-1,4
 88 272 88 272 88 357 c 0,5,6
 88 443 88 443 120 517.5 c 128,-1,7
 152 592 152 592 208.5 648.5 c 128,-1,8
 265 705 265 705 340 737 c 128,-1,9
 415 769 415 769 500 769 c 0,10,11
 586 769 586 769 660.5 737 c 128,-1,12
 735 705 735 705 791.5 648.5 c 128,-1,13
 848 592 848 592 880 517.5 c 128,-1,14
 912 443 912 443 912 357 c 0,15,16
 912 272 912 272 880 197 c 128,-1,17
 848 122 848 122 791.5 65.5 c 128,-1,18
 735 9 735 9 660.5 -23 c 128,-1,19
 586 -55 586 -55 500 -55 c 0,0,1
500 1 m 256,20,21
 574 1 574 1 638.5 28.5 c 128,-1,22
 703 56 703 56 752 105 c 128,-1,23
 801 154 801 154 828.5 218.5 c 128,-1,24
 856 283 856 283 856 357 c 256,25,26
 856 431 856 431 828.5 495.5 c 128,-1,27
 801 560 801 560 752 609 c 128,-1,28
 703 658 703 658 638.5 685.5 c 128,-1,29
 574 713 574 713 500 713 c 256,30,31
 426 713 426 713 361.5 685.5 c 128,-1,32
 297 658 297 658 248 609 c 128,-1,33
 199 560 199 560 171.5 495.5 c 128,-1,34
 144 431 144 431 144 357 c 256,35,36
 144 283 144 283 171.5 218.5 c 128,-1,37
 199 154 199 154 248 105 c 128,-1,38
 297 56 297 56 361.5 28.5 c 128,-1,39
 426 1 426 1 500 1 c 256,20,21
420 144 m 1,40,-1
 587 512 l 1,41,-1
 370 512 l 1,42,-1
 370 572 l 1,43,-1
 659 572 l 1,44,-1
 659 523 l 1,45,-1
 492 144 l 1,46,-1
 420 144 l 1,40,-1
EndSplineSet
EndChar
StartChar: one_zero.circled
Encoding: 9321 9321 3088
Width: 1000
Flags: W
LayerCount: 2
Fore
SplineSet
500 -55 m 0,0,1
 415 -55 415 -55 340 -23 c 128,-1,2
 265 9 265 9 208.5 65.5 c 128,-1,3
 152 122 152 122 120 197 c 128,-1,4
 88 272 88 272 88 357 c 0,5,6
 88 443 88 443 120 517.5 c 128,-1,7
 152 592 152 592 208.5 648.5 c 128,-1,8
 265 705 265 705 340 737 c 128,-1,9
 415 769 415 769 500 769 c 0,10,11
 586 769 586 769 660.5 737 c 128,-1,12
 735 705 735 705 791.5 648.5 c 128,-1,13
 848 592 848 592 880 517.5 c 128,-1,14
 912 443 912 443 912 357 c 0,15,16
 912 272 912 272 880 197 c 128,-1,17
 848 122 848 122 791.5 65.5 c 128,-1,18
 735 9 735 9 660.5 -23 c 128,-1,19
 586 -55 586 -55 500 -55 c 0,0,1
500 1 m 256,20,21
 574 1 574 1 638.5 28.5 c 128,-1,22
 703 56 703 56 752 105 c 128,-1,23
 801 154 801 154 828.5 218.5 c 128,-1,24
 856 283 856 283 856 357 c 256,25,26
 856 431 856 431 828.5 495.5 c 128,-1,27
 801 560 801 560 752 609 c 128,-1,28
 703 658 703 658 638.5 685.5 c 128,-1,29
 574 713 574 713 500 713 c 256,30,31
 426 713 426 713 361.5 685.5 c 128,-1,32
 297 658 297 658 248 609 c 128,-1,33
 199 560 199 560 171.5 495.5 c 128,-1,34
 144 431 144 431 144 357 c 256,35,36
 144 283 144 283 171.5 218.5 c 128,-1,37
 199 154 199 154 248 105 c 128,-1,38
 297 56 297 56 361.5 28.5 c 128,-1,39
 426 1 426 1 500 1 c 256,20,21
622 135 m 0,40,41
 485 135 485 135 485 359 c 0,42,43
 485 580 485 580 622 580 c 0,44,45
 760 580 760 580 760 359 c 0,46,47
 760 135 760 135 622 135 c 0,40,41
337 144 m 1,48,-1
 337 467 l 2,49,50
 337 478 337 478 337.5 488.5 c 128,-1,51
 338 499 338 499 339 509 c 1,52,53
 335 505 335 505 328 499 c 128,-1,54
 321 493 321 493 311 485 c 0,55,56
 300 476 300 476 285.5 465 c 128,-1,57
 271 454 271 454 253 440 c 1,58,-1
 219 489 l 1,59,-1
 333 572 l 1,60,-1
 405 572 l 1,61,-1
 405 144 l 1,62,-1
 337 144 l 1,48,-1
622 194 m 0,63,64
 692 194 692 194 692 359 c 0,65,66
 692 522 692 522 622 522 c 0,67,68
 593 522 593 522 578.5 498.5 c 128,-1,69
 564 475 564 475 559 437.5 c 128,-1,70
 554 400 554 400 554 358 c 0,71,72
 554 315 554 315 559 277.5 c 128,-1,73
 564 240 564 240 579 217 c 128,-1,74
 594 194 594 194 622 194 c 0,63,64
EndSplineSet
EndChar
StartChar: one_one.circled
Encoding: 9322 9322 2306
Width: 1000
Flags: W
LayerCount: 2
Fore
SplineSet
500 -55 m 0,0,1
 415 -55 415 -55 340 -23 c 128,-1,2
 265 9 265 9 208.5 65.5 c 128,-1,3
 152 122 152 122 120 197 c 128,-1,4
 88 272 88 272 88 357 c 0,5,6
 88 443 88 443 120 517.5 c 128,-1,7
 152 592 152 592 208.5 648.5 c 128,-1,8
 265 705 265 705 340 737 c 128,-1,9
 415 769 415 769 500 769 c 0,10,11
 586 769 586 769 660.5 737 c 128,-1,12
 735 705 735 705 791.5 648.5 c 128,-1,13
 848 592 848 592 880 517.5 c 128,-1,14
 912 443 912 443 912 357 c 0,15,16
 912 272 912 272 880 197 c 128,-1,17
 848 122 848 122 791.5 65.5 c 128,-1,18
 735 9 735 9 660.5 -23 c 128,-1,19
 586 -55 586 -55 500 -55 c 0,0,1
500 1 m 256,20,21
 574 1 574 1 638.5 28.5 c 128,-1,22
 703 56 703 56 752 105 c 128,-1,23
 801 154 801 154 828.5 218.5 c 128,-1,24
 856 283 856 283 856 357 c 256,25,26
 856 431 856 431 828.5 495.5 c 128,-1,27
 801 560 801 560 752 609 c 128,-1,28
 703 658 703 658 638.5 685.5 c 128,-1,29
 574 713 574 713 500 713 c 256,30,31
 426 713 426 713 361.5 685.5 c 128,-1,32
 297 658 297 658 248 609 c 128,-1,33
 199 560 199 560 171.5 495.5 c 128,-1,34
 144 431 144 431 144 357 c 256,35,36
 144 283 144 283 171.5 218.5 c 128,-1,37
 199 154 199 154 248 105 c 128,-1,38
 297 56 297 56 361.5 28.5 c 128,-1,39
 426 1 426 1 500 1 c 256,20,21
607 144 m 1,40,-1
 607 467 l 2,41,42
 607 478 607 478 607.5 488.5 c 128,-1,43
 608 499 608 499 609 509 c 1,44,45
 602 500 602 500 582 485 c 0,46,47
 571 477 571 477 556 465.5 c 128,-1,48
 541 454 541 454 523 440 c 1,49,-1
 489 489 l 1,50,-1
 603 572 l 1,51,-1
 675 572 l 1,52,-1
 675 144 l 1,53,-1
 607 144 l 1,40,-1
368 144 m 1,54,-1
 368 467 l 2,55,56
 368 478 368 478 369 488.5 c 128,-1,57
 370 499 370 499 370 509 c 1,58,59
 366 505 366 505 358.5 498 c 128,-1,60
 351 491 351 491 340 483 c 0,61,62
 330 475 330 475 316 464.5 c 128,-1,63
 302 454 302 454 284 440 c 1,64,-1
 250 489 l 1,65,-1
 364 572 l 1,66,-1
 436 572 l 1,67,-1
 436 144 l 1,68,-1
 368 144 l 1,54,-1
EndSplineSet
EndChar
StartChar: one_two.circled
Encoding: 9323 9323 2865
Width: 1000
Flags: W
LayerCount: 2
Fore
SplineSet
500 -55 m 0,0,1
 415 -55 415 -55 340 -23 c 128,-1,2
 265 9 265 9 208.5 65.5 c 128,-1,3
 152 122 152 122 120 197 c 128,-1,4
 88 272 88 272 88 357 c 0,5,6
 88 443 88 443 120 517.5 c 128,-1,7
 152 592 152 592 208.5 648.5 c 128,-1,8
 265 705 265 705 340 737 c 128,-1,9
 415 769 415 769 500 769 c 0,10,11
 586 769 586 769 660.5 737 c 128,-1,12
 735 705 735 705 791.5 648.5 c 128,-1,13
 848 592 848 592 880 517.5 c 128,-1,14
 912 443 912 443 912 357 c 0,15,16
 912 272 912 272 880 197 c 128,-1,17
 848 122 848 122 791.5 65.5 c 128,-1,18
 735 9 735 9 660.5 -23 c 128,-1,19
 586 -55 586 -55 500 -55 c 0,0,1
500 1 m 256,20,21
 574 1 574 1 638.5 28.5 c 128,-1,22
 703 56 703 56 752 105 c 128,-1,23
 801 154 801 154 828.5 218.5 c 128,-1,24
 856 283 856 283 856 357 c 256,25,26
 856 431 856 431 828.5 495.5 c 128,-1,27
 801 560 801 560 752 609 c 128,-1,28
 703 658 703 658 638.5 685.5 c 128,-1,29
 574 713 574 713 500 713 c 256,30,31
 426 713 426 713 361.5 685.5 c 128,-1,32
 297 658 297 658 248 609 c 128,-1,33
 199 560 199 560 171.5 495.5 c 128,-1,34
 144 431 144 431 144 357 c 256,35,36
 144 283 144 283 171.5 218.5 c 128,-1,37
 199 154 199 154 248 105 c 128,-1,38
 297 56 297 56 361.5 28.5 c 128,-1,39
 426 1 426 1 500 1 c 256,20,21
466 143 m 1,40,-1
 466 197 l 1,41,-1
 570 309 l 2,42,43
 613 355 613 355 636.5 387.5 c 128,-1,44
 660 420 660 420 660 460 c 0,45,46
 660 489 660 489 643 505.5 c 128,-1,47
 626 522 626 522 598 522 c 0,48,49
 551 522 551 522 502 479 c 1,50,-1
 469 525 l 1,51,52
 530 580 530 580 601 580 c 0,53,54
 661 580 661 580 695 549 c 128,-1,55
 729 518 729 518 729 462 c 0,56,57
 729 414 729 414 696 370.5 c 128,-1,58
 663 327 663 327 604 265 c 2,59,-1
 547 205 l 1,60,-1
 728 205 l 1,61,-1
 728 143 l 1,62,-1
 466 143 l 1,40,-1
346 144 m 1,63,-1
 346 467 l 2,64,65
 346 478 346 478 347 488.5 c 128,-1,66
 348 499 348 499 348 509 c 1,67,68
 344 505 344 505 337.5 499.5 c 128,-1,69
 331 494 331 494 322 486 c 0,70,71
 311 477 311 477 296 465.5 c 128,-1,72
 281 454 281 454 262 440 c 1,73,-1
 228 489 l 1,74,-1
 342 572 l 1,75,-1
 414 572 l 1,76,-1
 414 144 l 1,77,-1
 346 144 l 1,63,-1
EndSplineSet
EndChar
StartChar: one_five.circled
Encoding: 9326 9326 2315
Width: 1000
Flags: W
LayerCount: 2
Fore
SplineSet
500 -55 m 0,0,1
 415 -55 415 -55 340 -23 c 128,-1,2
 265 9 265 9 208.5 65.5 c 128,-1,3
 152 122 152 122 120 197 c 128,-1,4
 88 272 88 272 88 357 c 0,5,6
 88 443 88 443 120 517.5 c 128,-1,7
 152 592 152 592 208.5 648.5 c 128,-1,8
 265 705 265 705 340 737 c 128,-1,9
 415 769 415 769 500 769 c 0,10,11
 586 769 586 769 660.5 737 c 128,-1,12
 735 705 735 705 791.5 648.5 c 128,-1,13
 848 592 848 592 880 517.5 c 128,-1,14
 912 443 912 443 912 357 c 0,15,16
 912 272 912 272 880 197 c 128,-1,17
 848 122 848 122 791.5 65.5 c 128,-1,18
 735 9 735 9 660.5 -23 c 128,-1,19
 586 -55 586 -55 500 -55 c 0,0,1
500 1 m 256,20,21
 574 1 574 1 638.5 28.5 c 128,-1,22
 703 56 703 56 752 105 c 128,-1,23
 801 154 801 154 828.5 218.5 c 128,-1,24
 856 283 856 283 856 357 c 256,25,26
 856 431 856 431 828.5 495.5 c 128,-1,27
 801 560 801 560 752 609 c 128,-1,28
 703 658 703 658 638.5 685.5 c 128,-1,29
 574 713 574 713 500 713 c 256,30,31
 426 713 426 713 361.5 685.5 c 128,-1,32
 297 658 297 658 248 609 c 128,-1,33
 199 560 199 560 171.5 495.5 c 128,-1,34
 144 431 144 431 144 357 c 256,35,36
 144 283 144 283 171.5 218.5 c 128,-1,37
 199 154 199 154 248 105 c 128,-1,38
 297 56 297 56 361.5 28.5 c 128,-1,39
 426 1 426 1 500 1 c 256,20,21
578 136 m 0,40,41
 505 136 505 136 466 161 c 1,42,-1
 466 228 l 1,43,44
 491 211 491 211 521 202 c 128,-1,45
 551 193 551 193 574 193 c 0,46,47
 661 193 661 193 661 276 c 0,48,49
 661 314 661 314 637.5 335 c 128,-1,50
 614 356 614 356 573 356 c 0,51,52
 545 356 545 356 503 344 c 1,53,-1
 476 364 l 1,54,-1
 491 573 l 1,55,-1
 710 573 l 1,56,-1
 710 518 l 1,57,-1
 546 518 l 1,58,-1
 537 407 l 1,59,60
 558 414 558 414 591 414 c 0,61,62
 655 414 655 414 693.5 377.5 c 128,-1,63
 732 341 732 341 732 282 c 0,64,65
 732 209 732 209 691 172.5 c 128,-1,66
 650 136 650 136 578 136 c 0,40,41
345 144 m 1,67,-1
 345 467 l 2,68,69
 345 478 345 478 346 488.5 c 128,-1,70
 347 499 347 499 347 509 c 1,71,72
 343 505 343 505 336 499 c 128,-1,73
 329 493 329 493 319 485 c 0,74,75
 308 476 308 476 293.5 465 c 128,-1,76
 279 454 279 454 261 440 c 1,77,-1
 227 489 l 1,78,-1
 341 572 l 1,79,-1
 413 572 l 1,80,-1
 413 144 l 1,81,-1
 345 144 l 1,67,-1
EndSplineSet
EndChar
StartChar: one_six.circled
Encoding: 9327 9327 495
Width: 1000
Flags: W
LayerCount: 2
Fore
SplineSet
500 -55 m 0,0,1
 415 -55 415 -55 340 -23 c 128,-1,2
 265 9 265 9 208.5 65.5 c 128,-1,3
 152 122 152 122 120 197 c 128,-1,4
 88 272 88 272 88 357 c 0,5,6
 88 443 88 443 120 517.5 c 128,-1,7
 152 592 152 592 208.5 648.5 c 128,-1,8
 265 705 265 705 340 737 c 128,-1,9
 415 769 415 769 500 769 c 0,10,11
 586 769 586 769 660.5 737 c 128,-1,12
 735 705 735 705 791.5 648.5 c 128,-1,13
 848 592 848 592 880 517.5 c 128,-1,14
 912 443 912 443 912 357 c 0,15,16
 912 272 912 272 880 197 c 128,-1,17
 848 122 848 122 791.5 65.5 c 128,-1,18
 735 9 735 9 660.5 -23 c 128,-1,19
 586 -55 586 -55 500 -55 c 0,0,1
500 1 m 256,20,21
 574 1 574 1 638.5 28.5 c 128,-1,22
 703 56 703 56 752 105 c 128,-1,23
 801 154 801 154 828.5 218.5 c 128,-1,24
 856 283 856 283 856 357 c 256,25,26
 856 431 856 431 828.5 495.5 c 128,-1,27
 801 560 801 560 752 609 c 128,-1,28
 703 658 703 658 638.5 685.5 c 128,-1,29
 574 713 574 713 500 713 c 256,30,31
 426 713 426 713 361.5 685.5 c 128,-1,32
 297 658 297 658 248 609 c 128,-1,33
 199 560 199 560 171.5 495.5 c 128,-1,34
 144 431 144 431 144 357 c 256,35,36
 144 283 144 283 171.5 218.5 c 128,-1,37
 199 154 199 154 248 105 c 128,-1,38
 297 56 297 56 361.5 28.5 c 128,-1,39
 426 1 426 1 500 1 c 256,20,21
618 135 m 0,40,41
 548 135 548 135 509 186.5 c 128,-1,42
 470 238 470 238 470 327 c 0,43,44
 470 579 470 579 666 579 c 0,45,46
 680 579 680 579 694 577.5 c 128,-1,47
 708 576 708 576 721 572 c 1,48,-1
 721 513 l 1,49,50
 696 522 696 522 664 522 c 0,51,52
 604 522 604 522 572 485.5 c 128,-1,53
 540 449 540 449 535 369 c 1,54,-1
 539 369 l 1,55,56
 568 419 568 419 637 419 c 0,57,58
 690 419 690 419 723 384.5 c 128,-1,59
 756 350 756 350 756 285 c 0,60,61
 756 243 756 243 738 209 c 128,-1,62
 720 175 720 175 689 155 c 128,-1,63
 658 135 658 135 618 135 c 0,40,41
345 144 m 1,64,-1
 345 467 l 2,65,66
 345 478 345 478 346 488.5 c 128,-1,67
 347 499 347 499 347 509 c 1,68,69
 341 504 341 504 335 498.5 c 128,-1,70
 329 493 329 493 323 488 c 0,71,72
 312 479 312 479 296.5 466.5 c 128,-1,73
 281 454 281 454 261 440 c 1,74,-1
 227 489 l 1,75,-1
 341 572 l 1,76,-1
 413 572 l 1,77,-1
 413 144 l 1,78,-1
 345 144 l 1,64,-1
616 192 m 0,79,80
 649 192 649 192 669 214.5 c 128,-1,81
 689 237 689 237 689 283 c 0,82,83
 689 321 689 321 671 342.5 c 128,-1,84
 653 364 653 364 618 364 c 0,85,86
 580 364 580 364 559 341.5 c 128,-1,87
 538 319 538 319 538 293 c 0,88,89
 538 250 538 250 560 221 c 128,-1,90
 582 192 582 192 616 192 c 0,79,80
EndSplineSet
EndChar
StartChar: one_seven.circled
Encoding: 9328 9328 2941
Width: 1000
Flags: W
LayerCount: 2
Fore
SplineSet
500 -55 m 0,0,1
 415 -55 415 -55 340 -23 c 128,-1,2
 265 9 265 9 208.5 65.5 c 128,-1,3
 152 122 152 122 120 197 c 128,-1,4
 88 272 88 272 88 357 c 0,5,6
 88 443 88 443 120 517.5 c 128,-1,7
 152 592 152 592 208.5 648.5 c 128,-1,8
 265 705 265 705 340 737 c 128,-1,9
 415 769 415 769 500 769 c 0,10,11
 586 769 586 769 660.5 737 c 128,-1,12
 735 705 735 705 791.5 648.5 c 128,-1,13
 848 592 848 592 880 517.5 c 128,-1,14
 912 443 912 443 912 357 c 0,15,16
 912 272 912 272 880 197 c 128,-1,17
 848 122 848 122 791.5 65.5 c 128,-1,18
 735 9 735 9 660.5 -23 c 128,-1,19
 586 -55 586 -55 500 -55 c 0,0,1
500 1 m 256,20,21
 574 1 574 1 638.5 28.5 c 128,-1,22
 703 56 703 56 752 105 c 128,-1,23
 801 154 801 154 828.5 218.5 c 128,-1,24
 856 283 856 283 856 357 c 256,25,26
 856 431 856 431 828.5 495.5 c 128,-1,27
 801 560 801 560 752 609 c 128,-1,28
 703 658 703 658 638.5 685.5 c 128,-1,29
 574 713 574 713 500 713 c 256,30,31
 426 713 426 713 361.5 685.5 c 128,-1,32
 297 658 297 658 248 609 c 128,-1,33
 199 560 199 560 171.5 495.5 c 128,-1,34
 144 431 144 431 144 357 c 256,35,36
 144 283 144 283 171.5 218.5 c 128,-1,37
 199 154 199 154 248 105 c 128,-1,38
 297 56 297 56 361.5 28.5 c 128,-1,39
 426 1 426 1 500 1 c 256,20,21
508 144 m 1,40,-1
 665 513 l 1,41,-1
 468 513 l 1,42,-1
 468 573 l 1,43,-1
 737 573 l 1,44,-1
 737 524 l 1,45,-1
 577 144 l 1,46,-1
 508 144 l 1,40,-1
348 144 m 1,47,-1
 348 467 l 2,48,49
 348 478 348 478 349 488.5 c 128,-1,50
 350 499 350 499 350 509 c 1,51,52
 346 505 346 505 339.5 499.5 c 128,-1,53
 333 494 333 494 324 486 c 0,54,55
 313 477 313 477 298 465.5 c 128,-1,56
 283 454 283 454 264 440 c 1,57,-1
 230 489 l 1,58,-1
 344 572 l 1,59,-1
 416 572 l 1,60,-1
 416 144 l 1,61,-1
 348 144 l 1,47,-1
EndSplineSet
EndChar
StartChar: one_nine.circled
Encoding: 9330 9330 3092
Width: 1000
Flags: W
LayerCount: 2
Fore
SplineSet
500 -55 m 0,0,1
 415 -55 415 -55 340 -23 c 128,-1,2
 265 9 265 9 208.5 65.5 c 128,-1,3
 152 122 152 122 120 197 c 128,-1,4
 88 272 88 272 88 357 c 0,5,6
 88 443 88 443 120 517.5 c 128,-1,7
 152 592 152 592 208.5 648.5 c 128,-1,8
 265 705 265 705 340 737 c 128,-1,9
 415 769 415 769 500 769 c 0,10,11
 586 769 586 769 660.5 737 c 128,-1,12
 735 705 735 705 791.5 648.5 c 128,-1,13
 848 592 848 592 880 517.5 c 128,-1,14
 912 443 912 443 912 357 c 0,15,16
 912 272 912 272 880 197 c 128,-1,17
 848 122 848 122 791.5 65.5 c 128,-1,18
 735 9 735 9 660.5 -23 c 128,-1,19
 586 -55 586 -55 500 -55 c 0,0,1
500 1 m 256,20,21
 574 1 574 1 638.5 28.5 c 128,-1,22
 703 56 703 56 752 105 c 128,-1,23
 801 154 801 154 828.5 218.5 c 128,-1,24
 856 283 856 283 856 357 c 256,25,26
 856 431 856 431 828.5 495.5 c 128,-1,27
 801 560 801 560 752 609 c 128,-1,28
 703 658 703 658 638.5 685.5 c 128,-1,29
 574 713 574 713 500 713 c 256,30,31
 426 713 426 713 361.5 685.5 c 128,-1,32
 297 658 297 658 248 609 c 128,-1,33
 199 560 199 560 171.5 495.5 c 128,-1,34
 144 431 144 431 144 357 c 256,35,36
 144 283 144 283 171.5 218.5 c 128,-1,37
 199 154 199 154 248 105 c 128,-1,38
 297 56 297 56 361.5 28.5 c 128,-1,39
 426 1 426 1 500 1 c 256,20,21
560 135 m 0,40,41
 546 135 546 135 532 136.5 c 128,-1,42
 518 138 518 138 505 142 c 1,43,-1
 505 201 l 1,44,45
 529 192 529 192 562 192 c 0,46,47
 624 192 624 192 655.5 229 c 128,-1,48
 687 266 687 266 691 345 c 1,49,-1
 687 345 l 1,50,51
 658 295 658 295 589 295 c 0,52,53
 537 295 537 295 503.5 330 c 128,-1,54
 470 365 470 365 470 429 c 0,55,56
 470 497 470 497 508.5 538 c 128,-1,57
 547 579 547 579 608 579 c 0,58,59
 671 579 671 579 713.5 531.5 c 128,-1,60
 756 484 756 484 756 387 c 0,61,62
 756 135 756 135 560 135 c 0,40,41
348 144 m 1,63,-1
 348 467 l 2,64,65
 348 478 348 478 349 488.5 c 128,-1,66
 350 499 350 499 350 509 c 1,67,68
 346 505 346 505 337.5 498 c 128,-1,69
 329 491 329 491 318 482 c 0,70,71
 297 466 297 466 264 440 c 1,72,-1
 230 489 l 1,73,-1
 344 572 l 1,74,-1
 416 572 l 1,75,-1
 416 144 l 1,76,-1
 348 144 l 1,63,-1
608 350 m 0,77,78
 646 350 646 350 667 372.5 c 128,-1,79
 688 395 688 395 688 421 c 0,80,81
 688 464 688 464 666 493 c 128,-1,82
 644 522 644 522 610 522 c 0,83,84
 577 522 577 522 557 499.5 c 128,-1,85
 537 477 537 477 537 431 c 0,86,87
 537 393 537 393 555.5 371.5 c 128,-1,88
 574 350 574 350 608 350 c 0,77,78
EndSplineSet
EndChar
StartChar: two_zero.circled
Encoding: 9331 9331 2869
Width: 1000
Flags: W
LayerCount: 2
Fore
SplineSet
500 -55 m 0,0,1
 415 -55 415 -55 340 -23 c 128,-1,2
 265 9 265 9 208.5 65.5 c 128,-1,3
 152 122 152 122 120 197 c 128,-1,4
 88 272 88 272 88 357 c 0,5,6
 88 443 88 443 120 517.5 c 128,-1,7
 152 592 152 592 208.5 648.5 c 128,-1,8
 265 705 265 705 340 737 c 128,-1,9
 415 769 415 769 500 769 c 0,10,11
 586 769 586 769 660.5 737 c 128,-1,12
 735 705 735 705 791.5 648.5 c 128,-1,13
 848 592 848 592 880 517.5 c 128,-1,14
 912 443 912 443 912 357 c 0,15,16
 912 272 912 272 880 197 c 128,-1,17
 848 122 848 122 791.5 65.5 c 128,-1,18
 735 9 735 9 660.5 -23 c 128,-1,19
 586 -55 586 -55 500 -55 c 0,0,1
500 1 m 256,20,21
 574 1 574 1 638.5 28.5 c 128,-1,22
 703 56 703 56 752 105 c 128,-1,23
 801 154 801 154 828.5 218.5 c 128,-1,24
 856 283 856 283 856 357 c 256,25,26
 856 431 856 431 828.5 495.5 c 128,-1,27
 801 560 801 560 752 609 c 128,-1,28
 703 658 703 658 638.5 685.5 c 128,-1,29
 574 713 574 713 500 713 c 256,30,31
 426 713 426 713 361.5 685.5 c 128,-1,32
 297 658 297 658 248 609 c 128,-1,33
 199 560 199 560 171.5 495.5 c 128,-1,34
 144 431 144 431 144 357 c 256,35,36
 144 283 144 283 171.5 218.5 c 128,-1,37
 199 154 199 154 248 105 c 128,-1,38
 297 56 297 56 361.5 28.5 c 128,-1,39
 426 1 426 1 500 1 c 256,20,21
228 143 m 1,40,-1
 228 197 l 1,41,-1
 332 309 l 2,42,43
 375 355 375 355 398.5 387 c 128,-1,44
 422 419 422 419 422 462 c 0,45,46
 422 489 422 489 405 505.5 c 128,-1,47
 388 522 388 522 360 522 c 0,48,49
 313 522 313 522 264 479 c 1,50,-1
 231 525 l 1,51,52
 292 580 292 580 363 580 c 0,53,54
 422 580 422 580 456.5 549 c 128,-1,55
 491 518 491 518 491 462 c 0,56,57
 491 413 491 413 457 368.5 c 128,-1,58
 423 324 423 324 361 259 c 2,59,-1
 309 205 l 1,60,-1
 490 205 l 1,61,-1
 490 143 l 1,62,-1
 228 143 l 1,40,-1
650 135 m 0,63,64
 513 135 513 135 513 359 c 0,65,66
 513 465 513 465 545 522.5 c 128,-1,67
 577 580 577 580 650 580 c 0,68,69
 788 580 788 580 788 359 c 0,70,71
 788 135 788 135 650 135 c 0,63,64
650 194 m 0,72,73
 720 194 720 194 720 359 c 0,74,75
 720 522 720 522 650 522 c 0,76,77
 621 522 621 522 606.5 498.5 c 128,-1,78
 592 475 592 475 587 437.5 c 128,-1,79
 582 400 582 400 582 358 c 0,80,81
 582 315 582 315 587 277.5 c 128,-1,82
 592 240 592 240 606.5 217 c 128,-1,83
 621 194 621 194 650 194 c 0,72,73
EndSplineSet
EndChar
StartChar: eight.paren
Encoding: 9339 9339 2042
Width: 1000
Flags: W
LayerCount: 2
Fore
SplineSet
731 -57 m 1,0,1
 859 124 859 124 859 352 c 0,2,3
 859 464 859 464 826.5 571 c 128,-1,4
 794 678 794 678 731 767 c 1,5,-1
 789 767 l 1,6,7
 922 598 922 598 922 351 c 0,8,9
 922 106 922 106 789 -57 c 1,10,-1
 731 -57 l 1,0,1
211 -57 m 1,11,12
 78 106 78 106 78 351 c 0,13,14
 78 598 78 598 211 767 c 1,15,-1
 269 767 l 1,16,17
 206 678 206 678 173.5 571 c 128,-1,18
 141 464 141 464 141 352 c 0,19,20
 141 124 141 124 269 -57 c 1,21,-1
 211 -57 l 1,11,12
500 135 m 0,22,23
 428 135 428 135 390 166.5 c 128,-1,24
 352 198 352 198 352 255 c 0,25,26
 352 327 352 327 427 367 c 1,27,28
 397 387 397 387 381 408.5 c 128,-1,29
 365 430 365 430 365 468 c 0,30,31
 365 519 365 519 403.5 549.5 c 128,-1,32
 442 580 442 580 500 580 c 0,33,34
 559 580 559 580 595.5 550.5 c 128,-1,35
 632 521 632 521 632 471 c 0,36,37
 632 410 632 410 562 370 c 1,38,39
 646 333 646 333 646 258 c 0,40,41
 646 202 646 202 605.5 168.5 c 128,-1,42
 565 135 565 135 500 135 c 0,22,23
501 397 m 1,43,44
 566 423 566 423 566 469 c 0,45,46
 566 495 566 495 548 510 c 128,-1,47
 530 525 530 525 499 525 c 0,48,49
 467 525 467 525 449.5 510 c 128,-1,50
 432 495 432 495 432 469 c 0,51,52
 432 426 432 426 501 397 c 1,43,44
498 191 m 0,53,54
 578 191 578 191 578 255 c 0,55,56
 578 307 578 307 497 335 c 2,57,-1
 484 340 l 1,58,59
 419 309 419 309 419 255 c 0,60,61
 419 191 419 191 498 191 c 0,53,54
EndSplineSet
EndChar
StartChar: one_one.paren
Encoding: 9342 9342 387
Width: 1000
Flags: W
LayerCount: 2
Fore
SplineSet
731 -57 m 1,0,1
 859 124 859 124 859 352 c 0,2,3
 859 464 859 464 826.5 571 c 128,-1,4
 794 678 794 678 731 767 c 1,5,-1
 789 767 l 1,6,7
 922 598 922 598 922 351 c 0,8,9
 922 106 922 106 789 -57 c 1,10,-1
 731 -57 l 1,0,1
211 -57 m 1,11,12
 78 106 78 106 78 351 c 0,13,14
 78 598 78 598 211 767 c 1,15,-1
 269 767 l 1,16,17
 206 678 206 678 173.5 571 c 128,-1,18
 141 464 141 464 141 352 c 0,19,20
 141 124 141 124 269 -57 c 1,21,-1
 211 -57 l 1,11,12
606 144 m 1,22,-1
 606 467 l 2,23,24
 606 478 606 478 606.5 488.5 c 128,-1,25
 607 499 607 499 608 509 c 1,26,27
 601 502 601 502 584 488 c 0,28,29
 573 479 573 479 557.5 467 c 128,-1,30
 542 455 542 455 522 440 c 1,31,-1
 488 489 l 1,32,-1
 602 572 l 1,33,-1
 674 572 l 1,34,-1
 674 144 l 1,35,-1
 606 144 l 1,22,-1
367 144 m 1,36,-1
 367 467 l 2,37,38
 367 478 367 478 368 488.5 c 128,-1,39
 369 499 369 499 369 509 c 1,40,41
 365 505 365 505 360 500.5 c 128,-1,42
 355 496 355 496 348 490 c 0,43,44
 338 480 338 480 321 468 c 128,-1,45
 304 456 304 456 283 440 c 1,46,-1
 249 489 l 1,47,-1
 363 572 l 1,48,-1
 435 572 l 1,49,-1
 435 144 l 1,50,-1
 367 144 l 1,36,-1
EndSplineSet
EndChar
StartChar: one_eight.paren
Encoding: 9349 9349 394
Width: 1000
Flags: W
LayerCount: 2
Fore
SplineSet
731 -57 m 1,0,1
 859 124 859 124 859 352 c 0,2,3
 859 464 859 464 826.5 571 c 128,-1,4
 794 678 794 678 731 767 c 1,5,-1
 789 767 l 1,6,7
 922 598 922 598 922 351 c 0,8,9
 922 106 922 106 789 -57 c 1,10,-1
 731 -57 l 1,0,1
211 -57 m 1,11,12
 78 106 78 106 78 351 c 0,13,14
 78 598 78 598 211 767 c 1,15,-1
 269 767 l 1,16,17
 206 678 206 678 173.5 571 c 128,-1,18
 141 464 141 464 141 352 c 0,19,20
 141 124 141 124 269 -57 c 1,21,-1
 211 -57 l 1,11,12
612 135 m 0,22,23
 545 135 545 135 509.5 166.5 c 128,-1,24
 474 198 474 198 474 255 c 0,25,26
 474 327 474 327 549 367 c 1,27,28
 519 387 519 387 503 408.5 c 128,-1,29
 487 430 487 430 487 468 c 0,30,31
 487 519 487 519 522 549.5 c 128,-1,32
 557 580 557 580 612 580 c 256,33,34
 667 580 667 580 700.5 550.5 c 128,-1,35
 734 521 734 521 734 471 c 0,36,37
 734 410 734 410 664 370 c 1,38,39
 748 333 748 333 748 258 c 0,40,41
 748 202 748 202 710 168.5 c 128,-1,42
 672 135 672 135 612 135 c 0,22,23
342 144 m 1,43,-1
 342 467 l 2,44,45
 342 478 342 478 342.5 488.5 c 128,-1,46
 343 499 343 499 344 509 c 1,47,48
 338 503 338 503 321 489 c 0,49,50
 310 480 310 480 294 467.5 c 128,-1,51
 278 455 278 455 258 440 c 1,52,-1
 224 489 l 1,53,-1
 338 572 l 1,54,-1
 410 572 l 1,55,-1
 410 144 l 1,56,-1
 342 144 l 1,43,-1
613 397 m 1,57,58
 670 423 670 423 670 469 c 0,59,60
 670 495 670 495 653.5 510 c 128,-1,61
 637 525 637 525 611 525 c 0,62,63
 584 525 584 525 568 510 c 128,-1,64
 552 495 552 495 552 469 c 0,65,66
 552 425 552 425 613 397 c 1,57,58
610 191 m 0,67,68
 646 191 646 191 664.5 208.5 c 128,-1,69
 683 226 683 226 683 255 c 0,70,71
 683 281 683 281 664 300 c 128,-1,72
 645 319 645 319 609 335 c 2,73,-1
 598 340 l 1,74,75
 540 308 540 308 540 255 c 0,76,77
 540 226 540 226 557.5 208.5 c 128,-1,78
 575 191 575 191 610 191 c 0,67,68
EndSplineSet
EndChar
StartChar: two_zero.paren
Encoding: 9351 9351 2820
Width: 1000
Flags: W
LayerCount: 2
Fore
SplineSet
731 -57 m 1,0,1
 859 124 859 124 859 352 c 0,2,3
 859 464 859 464 826.5 571 c 128,-1,4
 794 678 794 678 731 767 c 1,5,-1
 789 767 l 1,6,7
 922 598 922 598 922 351 c 0,8,9
 922 106 922 106 789 -57 c 1,10,-1
 731 -57 l 1,0,1
211 -57 m 1,11,12
 78 106 78 106 78 351 c 0,13,14
 78 598 78 598 211 767 c 1,15,-1
 269 767 l 1,16,17
 206 678 206 678 173.5 571 c 128,-1,18
 141 464 141 464 141 352 c 0,19,20
 141 124 141 124 269 -57 c 1,21,-1
 211 -57 l 1,11,12
654 135 m 0,22,23
 517 135 517 135 517 359 c 0,24,25
 517 465 517 465 549 522.5 c 128,-1,26
 581 580 581 580 654 580 c 0,27,28
 792 580 792 580 792 359 c 0,29,30
 792 135 792 135 654 135 c 0,22,23
228 143 m 1,31,-1
 228 197 l 1,32,-1
 332 309 l 2,33,34
 375 355 375 355 398.5 387 c 128,-1,35
 422 419 422 419 422 462 c 0,36,37
 422 489 422 489 405 505.5 c 128,-1,38
 388 522 388 522 360 522 c 0,39,40
 313 522 313 522 264 479 c 1,41,-1
 231 525 l 1,42,43
 292 580 292 580 363 580 c 0,44,45
 422 580 422 580 456.5 549 c 128,-1,46
 491 518 491 518 491 462 c 0,47,48
 491 414 491 414 458 370 c 128,-1,49
 425 326 425 326 366 264 c 2,50,-1
 309 205 l 1,51,-1
 490 205 l 1,52,-1
 490 143 l 1,53,-1
 228 143 l 1,31,-1
654 194 m 0,54,55
 724 194 724 194 724 359 c 0,56,57
 724 522 724 522 654 522 c 0,58,59
 626 522 626 522 611 498.5 c 128,-1,60
 596 475 596 475 591 437.5 c 128,-1,61
 586 400 586 400 586 358 c 256,62,63
 586 316 586 316 591 278.5 c 128,-1,64
 596 241 596 241 611 217.5 c 128,-1,65
 626 194 626 194 654 194 c 0,54,55
EndSplineSet
EndChar
StartChar: four_period
Encoding: 9355 9355 441
Width: 1000
Flags: W
LayerCount: 2
Fore
SplineSet
454 144 m 1,0,-1
 454 241 l 1,1,-1
 262 241 l 1,2,-1
 262 291 l 1,3,-1
 453 572 l 1,4,-1
 524 572 l 1,5,-1
 524 299 l 1,6,-1
 584 299 l 1,7,-1
 584 241 l 1,8,-1
 524 241 l 1,9,-1
 524 144 l 1,10,-1
 454 144 l 1,0,-1
331 299 m 1,11,-1
 454 299 l 1,12,-1
 454 398 l 2,13,14
 454 423 454 423 455 447 c 128,-1,15
 456 471 456 471 457 496 c 1,16,17
 452 485 452 485 444 472 c 2,18,-1
 331 299 l 1,11,-1
675 135 m 0,19,20
 659 135 659 135 645 146.5 c 128,-1,21
 631 158 631 158 631 181 c 0,22,23
 631 203 631 203 645 214 c 128,-1,24
 659 225 659 225 675 225 c 0,25,26
 695 225 695 225 708 214 c 128,-1,27
 721 203 721 203 721 181 c 0,28,29
 721 135 721 135 675 135 c 0,19,20
EndSplineSet
EndChar
StartChar: five_period
Encoding: 9356 9356 442
Width: 1000
Flags: W
LayerCount: 2
Fore
SplineSet
440 136 m 0,0,1
 400 136 400 136 369.5 142.5 c 128,-1,2
 339 149 339 149 319 161 c 1,3,-1
 319 228 l 1,4,5
 345 211 345 211 378.5 202 c 128,-1,6
 412 193 412 193 438 193 c 0,7,8
 534 193 534 193 534 276 c 0,9,10
 534 314 534 314 508.5 335 c 128,-1,11
 483 356 483 356 436 356 c 0,12,13
 404 356 404 356 359 344 c 1,14,-1
 329 364 l 1,15,-1
 344 573 l 1,16,-1
 583 573 l 1,17,-1
 583 518 l 1,18,-1
 401 518 l 1,19,-1
 392 408 l 1,20,21
 428 414 428 414 449 414 c 0,22,23
 520 414 520 414 561.5 377.5 c 128,-1,24
 603 341 603 341 603 282 c 0,25,26
 603 212 603 212 562 174 c 128,-1,27
 521 136 521 136 440 136 c 0,0,1
690 135 m 0,28,29
 673 135 673 135 659.5 146 c 128,-1,30
 646 157 646 157 646 181 c 0,31,32
 646 203 646 203 659.5 214 c 128,-1,33
 673 225 673 225 690 225 c 0,34,35
 710 225 710 225 723 214 c 128,-1,36
 736 203 736 203 736 181 c 0,37,38
 736 135 736 135 690 135 c 0,28,29
EndSplineSet
EndChar
StartChar: six_period
Encoding: 9357 9357 443
Width: 1000
Flags: W
LayerCount: 2
Fore
SplineSet
453 135 m 0,0,1
 380 135 380 135 337.5 186 c 128,-1,2
 295 237 295 237 295 327 c 0,3,4
 295 579 295 579 507 579 c 0,5,6
 542 579 542 579 566 572 c 1,7,-1
 566 513 l 1,8,9
 541 522 541 522 503 522 c 0,10,11
 436 522 436 522 400.5 485.5 c 128,-1,12
 365 449 365 449 360 369 c 1,13,-1
 364 369 l 1,14,15
 396 419 396 419 471 419 c 0,16,17
 529 419 529 419 565 384.5 c 128,-1,18
 601 350 601 350 601 285 c 0,19,20
 601 216 601 216 561.5 175.5 c 128,-1,21
 522 135 522 135 453 135 c 0,0,1
451 192 m 256,22,23
 489 192 489 192 511.5 214.5 c 128,-1,24
 534 237 534 237 534 283 c 0,25,26
 534 364 534 364 454 364 c 0,27,28
 411 364 411 364 387 341.5 c 128,-1,29
 363 319 363 319 363 293 c 0,30,31
 363 249 363 249 388 220.5 c 128,-1,32
 413 192 413 192 451 192 c 256,22,23
688 135 m 0,33,34
 671 135 671 135 657.5 146 c 128,-1,35
 644 157 644 157 644 181 c 0,36,37
 644 203 644 203 657.5 214 c 128,-1,38
 671 225 671 225 688 225 c 0,39,40
 708 225 708 225 721 214 c 128,-1,41
 734 203 734 203 734 181 c 0,42,43
 734 135 734 135 688 135 c 0,33,34
EndSplineSet
EndChar
StartChar: one_one_period
Encoding: 9362 9362 2774
Width: 1000
Flags: W
LayerCount: 2
Fore
SplineSet
624 144 m 1,0,-1
 624 420 l 2,1,2
 624 443 624 443 625 465.5 c 128,-1,3
 626 488 626 488 628 509 c 1,4,5
 624 505 624 505 620 501.5 c 128,-1,6
 616 498 616 498 611 493 c 256,7,8
 606 488 606 488 585.5 472.5 c 128,-1,9
 565 457 565 457 529 431 c 1,10,-1
 495 480 l 1,11,-1
 622 572 l 1,12,-1
 694 572 l 1,13,-1
 694 144 l 1,14,-1
 624 144 l 1,0,-1
364 144 m 1,15,-1
 364 420 l 2,16,17
 364 443 364 443 365 465.5 c 128,-1,18
 366 488 366 488 368 509 c 1,19,20
 364 505 364 505 360 501.5 c 128,-1,21
 356 498 356 498 352 494 c 0,22,23
 347 490 347 490 326 474 c 128,-1,24
 305 458 305 458 269 431 c 1,25,-1
 235 480 l 1,26,-1
 362 572 l 1,27,-1
 434 572 l 1,28,-1
 434 144 l 1,29,-1
 364 144 l 1,15,-1
827 135 m 0,30,31
 810 135 810 135 796.5 146 c 128,-1,32
 783 157 783 157 783 181 c 0,33,34
 783 203 783 203 796.5 214 c 128,-1,35
 810 225 810 225 827 225 c 0,36,37
 847 225 847 225 860 214 c 128,-1,38
 873 203 873 203 873 181 c 0,39,40
 873 135 873 135 827 135 c 0,30,31
EndSplineSet
EndChar
StartChar: one_two_period
Encoding: 9363 9363 2025
Width: 1000
Flags: W
LayerCount: 2
Fore
SplineSet
422 143 m 1,0,-1
 422 197 l 1,1,-1
 535 309 l 2,2,3
 573 346 573 346 593.5 370.5 c 128,-1,4
 614 395 614 395 622 415 c 128,-1,5
 630 435 630 435 630 458 c 0,6,7
 630 490 630 490 611.5 506 c 128,-1,8
 593 522 593 522 564 522 c 0,9,10
 514 522 514 522 461 479 c 1,11,-1
 427 525 l 1,12,13
 491 580 491 580 565 580 c 0,14,15
 628 580 628 580 663.5 549 c 128,-1,16
 699 518 699 518 699 462 c 0,17,18
 699 411 699 411 668 371.5 c 128,-1,19
 637 332 637 332 586 282 c 2,20,-1
 504 203 l 1,21,-1
 698 203 l 1,22,-1
 698 143 l 1,23,-1
 422 143 l 1,0,-1
294 144 m 1,24,-1
 294 420 l 2,25,26
 294 443 294 443 295 465.5 c 128,-1,27
 296 488 296 488 298 509 c 1,28,29
 293 503 293 503 287 498.5 c 128,-1,30
 281 494 281 494 276 489 c 0,31,32
 270 484 270 484 251 469.5 c 128,-1,33
 232 455 232 455 199 431 c 1,34,-1
 165 480 l 1,35,-1
 292 572 l 1,36,-1
 364 572 l 1,37,-1
 364 144 l 1,38,-1
 294 144 l 1,24,-1
806 135 m 0,39,40
 789 135 789 135 775.5 146 c 128,-1,41
 762 157 762 157 762 181 c 0,42,43
 762 203 762 203 775.5 214 c 128,-1,44
 789 225 789 225 806 225 c 0,45,46
 826 225 826 225 839 214 c 128,-1,47
 852 203 852 203 852 181 c 0,48,49
 852 135 852 135 806 135 c 0,39,40
EndSplineSet
EndChar
StartChar: one_four_period
Encoding: 9365 9365 2980
Width: 1000
Flags: W
LayerCount: 2
Fore
SplineSet
598 144 m 1,0,-1
 598 241 l 1,1,-1
 406 241 l 1,2,-1
 406 291 l 1,3,-1
 597 572 l 1,4,-1
 668 572 l 1,5,-1
 668 299 l 1,6,-1
 728 299 l 1,7,-1
 728 241 l 1,8,-1
 668 241 l 1,9,-1
 668 144 l 1,10,-1
 598 144 l 1,0,-1
295 144 m 1,11,-1
 295 420 l 2,12,13
 295 443 295 443 296 465.5 c 128,-1,14
 297 488 297 488 299 509 c 1,15,16
 294 503 294 503 288 498.5 c 128,-1,17
 282 494 282 494 277 489 c 0,18,19
 271 484 271 484 252 469.5 c 128,-1,20
 233 455 233 455 200 431 c 1,21,-1
 166 480 l 1,22,-1
 293 572 l 1,23,-1
 365 572 l 1,24,-1
 365 144 l 1,25,-1
 295 144 l 1,11,-1
475 299 m 1,26,-1
 598 299 l 1,27,-1
 598 398 l 2,28,29
 598 423 598 423 599 448.5 c 128,-1,30
 600 474 600 474 601 499 c 1,31,32
 598 492 598 492 594 485.5 c 128,-1,33
 590 479 590 479 586 472 c 2,34,-1
 475 299 l 1,26,-1
807 135 m 0,35,36
 790 135 790 135 776.5 146 c 128,-1,37
 763 157 763 157 763 181 c 0,38,39
 763 203 763 203 776.5 214 c 128,-1,40
 790 225 790 225 807 225 c 0,41,42
 827 225 827 225 840 214 c 128,-1,43
 853 203 853 203 853 181 c 0,44,45
 853 135 853 135 807 135 c 0,35,36
EndSplineSet
EndChar
StartChar: one_five_period
Encoding: 9366 9366 2235
Width: 1000
Flags: W
LayerCount: 2
Fore
SplineSet
547 136 m 0,0,1
 507 136 507 136 476.5 142.5 c 128,-1,2
 446 149 446 149 426 161 c 1,3,-1
 426 228 l 1,4,5
 452 211 452 211 485.5 202 c 128,-1,6
 519 193 519 193 545 193 c 0,7,8
 641 193 641 193 641 276 c 0,9,10
 641 314 641 314 615.5 335 c 128,-1,11
 590 356 590 356 543 356 c 0,12,13
 511 356 511 356 466 344 c 1,14,-1
 436 364 l 1,15,-1
 451 573 l 1,16,-1
 690 573 l 1,17,-1
 690 518 l 1,18,-1
 508 518 l 1,19,-1
 499 408 l 1,20,21
 535 414 535 414 556 414 c 0,22,23
 627 414 627 414 668.5 377.5 c 128,-1,24
 710 341 710 341 710 282 c 0,25,26
 710 212 710 212 669 174 c 128,-1,27
 628 136 628 136 547 136 c 0,0,1
304 144 m 1,28,-1
 304 420 l 2,29,30
 304 443 304 443 305.5 465.5 c 128,-1,31
 307 488 307 488 308 509 c 1,32,33
 304 505 304 505 296 498 c 128,-1,34
 288 491 288 491 274 480 c 2,35,-1
 209 431 l 1,36,-1
 175 480 l 1,37,-1
 302 572 l 1,38,-1
 374 572 l 1,39,-1
 374 144 l 1,40,-1
 304 144 l 1,28,-1
796 135 m 0,41,42
 779 135 779 135 765.5 146 c 128,-1,43
 752 157 752 157 752 181 c 0,44,45
 752 203 752 203 765.5 214 c 128,-1,46
 779 225 779 225 796 225 c 0,47,48
 816 225 816 225 829 214 c 128,-1,49
 842 203 842 203 842 181 c 0,50,51
 842 135 842 135 796 135 c 0,41,42
EndSplineSet
EndChar
StartChar: one_seven_period
Encoding: 9368 9368 454
Width: 1000
Flags: W
LayerCount: 2
Fore
SplineSet
495 144 m 1,0,-1
 662 513 l 1,1,-1
 445 513 l 1,2,-1
 445 573 l 1,3,-1
 734 573 l 1,4,-1
 734 524 l 1,5,-1
 567 144 l 1,6,-1
 495 144 l 1,0,-1
325 144 m 1,7,-1
 325 420 l 2,8,9
 325 443 325 443 326.5 465.5 c 128,-1,10
 328 488 328 488 329 509 c 1,11,12
 325 505 325 505 321 501.5 c 128,-1,13
 317 498 317 498 313 494 c 0,14,15
 308 490 308 490 287.5 474 c 128,-1,16
 267 458 267 458 230 431 c 1,17,-1
 196 480 l 1,18,-1
 323 572 l 1,19,-1
 395 572 l 1,20,-1
 395 144 l 1,21,-1
 325 144 l 1,7,-1
751 135 m 0,22,23
 734 135 734 135 720.5 146 c 128,-1,24
 707 157 707 157 707 181 c 0,25,26
 707 203 707 203 720.5 214 c 128,-1,27
 734 225 734 225 751 225 c 0,28,29
 771 225 771 225 784 214 c 128,-1,30
 797 203 797 203 797 181 c 0,31,32
 797 135 797 135 751 135 c 0,22,23
EndSplineSet
EndChar
StartChar: one_eight_period
Encoding: 9369 9369 455
Width: 1000
Flags: W
LayerCount: 2
Fore
SplineSet
577 135 m 0,0,1
 505 135 505 135 467 166.5 c 128,-1,2
 429 198 429 198 429 255 c 0,3,4
 429 327 429 327 504 367 c 1,5,6
 474 387 474 387 458 408.5 c 128,-1,7
 442 430 442 430 442 468 c 0,8,9
 442 519 442 519 480.5 549.5 c 128,-1,10
 519 580 519 580 577 580 c 0,11,12
 636 580 636 580 672.5 550.5 c 128,-1,13
 709 521 709 521 709 471 c 0,14,15
 709 409 709 409 639 370 c 1,16,17
 723 333 723 333 723 258 c 0,18,19
 723 202 723 202 683 168.5 c 128,-1,20
 643 135 643 135 577 135 c 0,0,1
294 144 m 1,21,-1
 294 420 l 2,22,23
 294 443 294 443 295 465.5 c 128,-1,24
 296 488 296 488 298 509 c 1,25,26
 293 503 293 503 287 498.5 c 128,-1,27
 281 494 281 494 276 489 c 0,28,29
 270 484 270 484 251 469.5 c 128,-1,30
 232 455 232 455 199 431 c 1,31,-1
 165 480 l 1,32,-1
 292 572 l 1,33,-1
 364 572 l 1,34,-1
 364 144 l 1,35,-1
 294 144 l 1,21,-1
578 397 m 1,36,37
 643 422 643 422 643 469 c 0,38,39
 643 495 643 495 625 510 c 128,-1,40
 607 525 607 525 576 525 c 0,41,42
 544 525 544 525 526.5 510 c 128,-1,43
 509 495 509 495 509 469 c 0,44,45
 509 426 509 426 578 397 c 1,36,37
575 191 m 0,46,47
 655 191 655 191 655 255 c 0,48,49
 655 307 655 307 574 335 c 2,50,-1
 561 340 l 1,51,52
 496 308 496 308 496 255 c 0,53,54
 496 191 496 191 575 191 c 0,46,47
816 135 m 0,55,56
 799 135 799 135 785.5 146 c 128,-1,57
 772 157 772 157 772 181 c 0,58,59
 772 203 772 203 785.5 214 c 128,-1,60
 799 225 799 225 816 225 c 0,61,62
 836 225 836 225 849 214 c 128,-1,63
 862 203 862 203 862 181 c 0,64,65
 862 135 862 135 816 135 c 0,55,56
EndSplineSet
EndChar
StartChar: one_nine_period
Encoding: 9370 9370 2444
Width: 1000
Flags: W
LayerCount: 2
Fore
SplineSet
516 135 m 0,0,1
 478 135 478 135 454 142 c 1,2,-1
 454 202 l 1,3,4
 475 192 475 192 520 192 c 0,5,6
 583 192 583 192 619.5 228 c 128,-1,7
 656 264 656 264 661 346 c 1,8,-1
 656 346 l 1,9,10
 622 297 622 297 554 297 c 0,11,12
 491 297 491 297 455 333 c 128,-1,13
 419 369 419 369 419 432 c 0,14,15
 419 497 419 497 459.5 538 c 128,-1,16
 500 579 500 579 567 579 c 0,17,18
 642 579 642 579 683.5 528.5 c 128,-1,19
 725 478 725 478 725 389 c 0,20,21
 725 135 725 135 516 135 c 0,0,1
296 144 m 1,22,-1
 296 420 l 2,23,24
 296 443 296 443 297 465.5 c 128,-1,25
 298 488 298 488 300 509 c 1,26,27
 294 503 294 503 288.5 498.5 c 128,-1,28
 283 494 283 494 278 489 c 0,29,30
 272 484 272 484 253 469.5 c 128,-1,31
 234 455 234 455 201 431 c 1,32,-1
 167 480 l 1,33,-1
 294 572 l 1,34,-1
 366 572 l 1,35,-1
 366 144 l 1,36,-1
 296 144 l 1,22,-1
565 352 m 0,37,38
 607 352 607 352 632 374 c 128,-1,39
 657 396 657 396 657 422 c 0,40,41
 657 463 657 463 635.5 492.5 c 128,-1,42
 614 522 614 522 567 522 c 0,43,44
 533 522 533 522 509.5 500 c 128,-1,45
 486 478 486 478 486 435 c 0,46,47
 486 397 486 397 505.5 374.5 c 128,-1,48
 525 352 525 352 565 352 c 0,37,38
788 135 m 0,49,50
 771 135 771 135 757.5 146 c 128,-1,51
 744 157 744 157 744 181 c 0,52,53
 744 203 744 203 757.5 214 c 128,-1,54
 771 225 771 225 788 225 c 0,55,56
 808 225 808 225 821 214 c 128,-1,57
 834 203 834 203 834 181 c 0,58,59
 834 135 834 135 788 135 c 0,49,50
EndSplineSet
EndChar
StartChar: two_zero_period
Encoding: 9371 9371 457
Width: 1000
Flags: W
LayerCount: 2
Fore
SplineSet
148 143 m 1,0,-1
 148 197 l 1,1,-1
 258 309 l 2,2,3
 303 355 303 355 326.5 385.5 c 128,-1,4
 350 416 350 416 350 458 c 0,5,6
 350 490 350 490 332.5 506 c 128,-1,7
 315 522 315 522 286 522 c 0,8,9
 239 522 239 522 187 479 c 1,10,-1
 153 525 l 1,11,12
 215 580 215 580 288 580 c 0,13,14
 349 580 349 580 384 549 c 128,-1,15
 419 518 419 518 419 462 c 0,16,17
 419 434 419 434 409 409 c 128,-1,18
 399 384 399 384 375 354.5 c 128,-1,19
 351 325 351 325 308 282 c 2,20,-1
 231 205 l 1,21,-1
 418 205 l 1,22,-1
 418 143 l 1,23,-1
 148 143 l 1,0,-1
597 135 m 0,24,25
 450 135 450 135 450 359 c 0,26,27
 450 580 450 580 597 580 c 0,28,29
 745 580 745 580 745 359 c 0,30,31
 745 253 745 253 711 194 c 128,-1,32
 677 135 677 135 597 135 c 0,24,25
597 194 m 0,33,34
 677 194 677 194 677 359 c 0,35,36
 677 522 677 522 597 522 c 0,37,38
 556 522 556 522 537.5 481 c 128,-1,39
 519 440 519 440 519 358 c 0,40,41
 519 194 519 194 597 194 c 0,33,34
822 135 m 0,42,43
 806 135 806 135 792 146.5 c 128,-1,44
 778 158 778 158 778 181 c 0,45,46
 778 203 778 203 792 214 c 128,-1,47
 806 225 806 225 822 225 c 0,48,49
 842 225 842 225 855 214 c 128,-1,50
 868 203 868 203 868 181 c 0,51,52
 868 135 868 135 822 135 c 0,42,43
EndSplineSet
EndChar
StartChar: a.paren
Encoding: 9372 9372 3106
Width: 1000
Flags: W
LayerCount: 2
Fore
SplineSet
731 -57 m 1,0,1
 859 124 859 124 859 352 c 0,2,3
 859 464 859 464 826.5 571 c 128,-1,4
 794 678 794 678 731 767 c 1,5,-1
 789 767 l 1,6,7
 922 598 922 598 922 351 c 0,8,9
 922 106 922 106 789 -57 c 1,10,-1
 731 -57 l 1,0,1
211 -57 m 1,11,12
 78 106 78 106 78 351 c 0,13,14
 78 598 78 598 211 767 c 1,15,-1
 269 767 l 1,16,17
 206 678 206 678 173.5 571 c 128,-1,18
 141 464 141 464 141 352 c 0,19,20
 141 124 141 124 269 -57 c 1,21,-1
 211 -57 l 1,11,12
466 190 m 0,22,23
 420 190 420 190 388.5 213 c 128,-1,24
 357 236 357 236 357 287 c 0,25,26
 357 385 357 385 518 391 c 2,27,-1
 566 393 l 1,28,-1
 566 407 l 2,29,30
 566 474 566 474 507 474 c 0,31,32
 471 474 471 474 411 447 c 1,33,-1
 393 494 l 1,34,35
 451 523 451 523 510 523 c 0,36,37
 572 523 572 523 602 497 c 128,-1,38
 632 471 632 471 632 414 c 2,39,-1
 632 195 l 1,40,-1
 581 195 l 1,41,-1
 572 247 l 1,42,43
 551 219 551 219 527 204.5 c 128,-1,44
 503 190 503 190 466 190 c 0,22,23
477 239 m 0,45,46
 515 239 515 239 540.5 260 c 128,-1,47
 566 281 566 281 566 325 c 2,48,-1
 566 350 l 1,49,-1
 525 348 l 2,50,51
 467 345 467 345 445.5 330 c 128,-1,52
 424 315 424 315 424 286 c 0,53,54
 424 263 424 263 439 251 c 128,-1,55
 454 239 454 239 477 239 c 0,45,46
EndSplineSet
EndChar
StartChar: b.paren
Encoding: 9373 9373 2047
Width: 1000
Flags: W
LayerCount: 2
Fore
SplineSet
731 -57 m 1,0,1
 859 124 859 124 859 352 c 0,2,3
 859 464 859 464 826.5 571 c 128,-1,4
 794 678 794 678 731 767 c 1,5,-1
 789 767 l 1,6,7
 922 598 922 598 922 351 c 0,8,9
 922 106 922 106 789 -57 c 1,10,-1
 731 -57 l 1,0,1
211 -57 m 1,11,12
 78 106 78 106 78 351 c 0,13,14
 78 598 78 598 211 767 c 1,15,-1
 269 767 l 1,16,17
 206 678 206 678 173.5 571 c 128,-1,18
 141 464 141 464 141 352 c 0,19,20
 141 124 141 124 269 -57 c 1,21,-1
 211 -57 l 1,11,12
537 191 m 0,22,23
 478 191 478 191 437 243 c 1,24,-1
 427 195 l 1,25,-1
 378 195 l 1,26,-1
 378 650 l 1,27,-1
 444 650 l 1,28,-1
 444 538 l 2,29,30
 444 522 444 522 442.5 506.5 c 128,-1,31
 441 491 441 491 440 475 c 1,32,-1
 443 474 l 1,33,34
 463 500 463 500 484.5 512 c 128,-1,35
 506 524 506 524 537 524 c 0,36,37
 600 524 600 524 638.5 482 c 128,-1,38
 677 440 677 440 677 358 c 0,39,40
 677 274 677 274 638.5 232.5 c 128,-1,41
 600 191 600 191 537 191 c 0,22,23
530 240 m 0,42,43
 609 240 609 240 609 359 c 0,44,45
 609 475 609 475 529 475 c 0,46,47
 481 475 481 475 462.5 447.5 c 128,-1,48
 444 420 444 420 444 363 c 2,49,-1
 444 360 l 2,50,51
 444 299 444 299 462 269.5 c 128,-1,52
 480 240 480 240 530 240 c 0,42,43
EndSplineSet
EndChar
StartChar: g.paren
Encoding: 9378 9378 904
Width: 1000
Flags: W
LayerCount: 2
Fore
SplineSet
731 -57 m 1,0,1
 859 124 859 124 859 352 c 0,2,3
 859 464 859 464 826.5 571 c 128,-1,4
 794 678 794 678 731 767 c 1,5,-1
 789 767 l 1,6,7
 922 598 922 598 922 351 c 0,8,9
 922 106 922 106 789 -57 c 1,10,-1
 731 -57 l 1,0,1
211 -57 m 1,11,12
 78 106 78 106 78 351 c 0,13,14
 78 598 78 598 211 767 c 1,15,-1
 269 767 l 1,16,17
 206 678 206 678 173.5 571 c 128,-1,18
 141 464 141 464 141 352 c 0,19,20
 141 124 141 124 269 -57 c 1,21,-1
 211 -57 l 1,11,12
504 56 m 0,22,23
 434 56 434 56 382 79 c 1,24,-1
 382 136 l 1,25,26
 435 108 435 108 507 108 c 0,27,28
 545 108 545 108 566.5 130 c 128,-1,29
 588 152 588 152 588 191 c 2,30,-1
 588 218 l 2,31,32
 588 226 588 226 588.5 230.5 c 128,-1,33
 589 235 589 235 590 239 c 1,34,-1
 587 240 l 1,35,36
 549 190 549 190 495 190 c 0,37,38
 429 190 429 190 392 234 c 128,-1,39
 355 278 355 278 355 356 c 0,40,41
 355 433 355 433 392 478 c 128,-1,42
 429 523 429 523 495 523 c 0,43,44
 552 523 552 523 593 470 c 1,45,-1
 599 517 l 1,46,-1
 653 517 l 1,47,-1
 653 195 l 2,48,49
 653 56 653 56 504 56 c 0,22,23
503 240 m 0,50,51
 589 240 589 240 589 349 c 2,52,-1
 589 350 l 2,53,54
 589 418 589 418 568 445.5 c 128,-1,55
 547 473 547 473 502 473 c 0,56,57
 464 473 464 473 443 442.5 c 128,-1,58
 422 412 422 412 422 356 c 0,59,60
 422 240 422 240 503 240 c 0,50,51
EndSplineSet
EndChar
StartChar: h.paren
Encoding: 9379 9379 2703
Width: 1000
Flags: W
LayerCount: 2
Fore
SplineSet
731 -57 m 1,0,1
 859 124 859 124 859 352 c 0,2,3
 859 464 859 464 826.5 571 c 128,-1,4
 794 678 794 678 731 767 c 1,5,-1
 789 767 l 1,6,7
 922 598 922 598 922 351 c 0,8,9
 922 106 922 106 789 -57 c 1,10,-1
 731 -57 l 1,0,1
211 -57 m 1,11,12
 78 106 78 106 78 351 c 0,13,14
 78 598 78 598 211 767 c 1,15,-1
 269 767 l 1,16,17
 206 678 206 678 173.5 571 c 128,-1,18
 141 464 141 464 141 352 c 0,19,20
 141 124 141 124 269 -57 c 1,21,-1
 211 -57 l 1,11,12
378 195 m 1,22,-1
 378 650 l 1,23,-1
 444 650 l 1,24,-1
 444 515 l 2,25,26
 444 499 444 499 443 488 c 128,-1,27
 442 477 442 477 440 471 c 1,28,-1
 445 470 l 1,29,30
 462 496 462 496 488 509.5 c 128,-1,31
 514 523 514 523 540 523 c 0,32,33
 604 523 604 523 633.5 494.5 c 128,-1,34
 663 466 663 466 663 404 c 2,35,-1
 663 195 l 1,36,-1
 599 195 l 1,37,-1
 599 402 l 2,38,39
 599 473 599 473 533 473 c 0,40,41
 483 473 483 473 463.5 444.5 c 128,-1,42
 444 416 444 416 444 362 c 2,43,-1
 444 195 l 1,44,-1
 378 195 l 1,22,-1
EndSplineSet
EndChar
StartChar: i.paren
Encoding: 9380 9380 2789
Width: 1000
Flags: W
LayerCount: 2
Fore
SplineSet
731 -57 m 1,0,1
 859 124 859 124 859 352 c 0,2,3
 859 464 859 464 826.5 571 c 128,-1,4
 794 678 794 678 731 767 c 1,5,-1
 789 767 l 1,6,7
 922 598 922 598 922 351 c 0,8,9
 922 106 922 106 789 -57 c 1,10,-1
 731 -57 l 1,0,1
211 -57 m 1,11,12
 78 106 78 106 78 351 c 0,13,14
 78 598 78 598 211 767 c 1,15,-1
 269 767 l 1,16,17
 206 678 206 678 173.5 571 c 128,-1,18
 141 464 141 464 141 352 c 0,19,20
 141 124 141 124 269 -57 c 1,21,-1
 211 -57 l 1,11,12
500 563 m 0,22,23
 460 563 460 563 460 602 c 256,24,25
 460 641 460 641 500 641 c 0,26,27
 516 641 516 641 527.5 631.5 c 128,-1,28
 539 622 539 622 539 602 c 256,29,30
 539 582 539 582 527.5 572.5 c 128,-1,31
 516 563 516 563 500 563 c 0,22,23
467 195 m 1,32,-1
 467 517 l 1,33,-1
 533 517 l 1,34,-1
 533 195 l 1,35,-1
 467 195 l 1,32,-1
EndSplineSet
EndChar
StartChar: j.paren
Encoding: 9381 9381 3001
Width: 1000
Flags: W
LayerCount: 2
Fore
SplineSet
731 -57 m 1,0,1
 859 124 859 124 859 352 c 0,2,3
 859 464 859 464 826.5 571 c 128,-1,4
 794 678 794 678 731 767 c 1,5,-1
 789 767 l 1,6,7
 922 598 922 598 922 351 c 0,8,9
 922 106 922 106 789 -57 c 1,10,-1
 731 -57 l 1,0,1
211 -57 m 1,11,12
 78 106 78 106 78 351 c 0,13,14
 78 598 78 598 211 767 c 1,15,-1
 269 767 l 1,16,17
 206 678 206 678 173.5 571 c 128,-1,18
 141 464 141 464 141 352 c 0,19,20
 141 124 141 124 269 -57 c 1,21,-1
 211 -57 l 1,11,12
523 562 m 0,22,23
 483 562 483 562 483 601 c 256,24,25
 483 640 483 640 523 640 c 0,26,27
 539 640 539 640 550.5 630.5 c 128,-1,28
 562 621 562 621 562 601 c 256,29,30
 562 581 562 581 550.5 571.5 c 128,-1,31
 539 562 539 562 523 562 c 0,22,23
451 56 m 0,32,33
 411 56 411 56 393 64 c 1,34,-1
 393 115 l 1,35,36
 417 108 417 108 447 108 c 0,37,38
 472 108 472 108 483 124.5 c 128,-1,39
 494 141 494 141 494 190 c 2,40,-1
 494 517 l 1,41,-1
 559 517 l 1,42,-1
 559 194 l 2,43,44
 559 127 559 127 536 91.5 c 128,-1,45
 513 56 513 56 451 56 c 0,32,33
EndSplineSet
EndChar
StartChar: k.paren
Encoding: 9382 9382 908
Width: 1000
Flags: W
LayerCount: 2
Fore
SplineSet
731 -57 m 1,0,1
 859 124 859 124 859 352 c 0,2,3
 859 464 859 464 826.5 571 c 128,-1,4
 794 678 794 678 731 767 c 1,5,-1
 789 767 l 1,6,7
 922 598 922 598 922 351 c 0,8,9
 922 106 922 106 789 -57 c 1,10,-1
 731 -57 l 1,0,1
211 -57 m 1,11,12
 78 106 78 106 78 351 c 0,13,14
 78 598 78 598 211 767 c 1,15,-1
 269 767 l 1,16,17
 206 678 206 678 173.5 571 c 128,-1,18
 141 464 141 464 141 352 c 0,19,20
 141 124 141 124 269 -57 c 1,21,-1
 211 -57 l 1,11,12
392 195 m 1,22,-1
 392 650 l 1,23,-1
 458 650 l 1,24,-1
 458 418 l 2,25,26
 458 408 458 408 457.5 398.5 c 128,-1,27
 457 389 457 389 457 379 c 1,28,29
 464 388 464 388 471.5 397 c 128,-1,30
 479 406 479 406 487 414 c 2,31,-1
 586 517 l 1,32,-1
 668 517 l 1,33,-1
 532 379 l 1,34,-1
 675 195 l 1,35,-1
 594 195 l 1,36,-1
 485 338 l 1,37,-1
 458 320 l 1,38,-1
 458 195 l 1,39,-1
 392 195 l 1,22,-1
EndSplineSet
EndChar
StartChar: r.paren
Encoding: 9389 9389 2724
Width: 1000
Flags: W
LayerCount: 2
Fore
SplineSet
731 -57 m 1,0,1
 859 124 859 124 859 352 c 0,2,3
 859 464 859 464 826.5 571 c 128,-1,4
 794 678 794 678 731 767 c 1,5,-1
 789 767 l 1,6,7
 922 598 922 598 922 351 c 0,8,9
 922 106 922 106 789 -57 c 1,10,-1
 731 -57 l 1,0,1
211 -57 m 1,11,12
 78 106 78 106 78 351 c 0,13,14
 78 598 78 598 211 767 c 1,15,-1
 269 767 l 1,16,17
 206 678 206 678 173.5 571 c 128,-1,18
 141 464 141 464 141 352 c 0,19,20
 141 124 141 124 269 -57 c 1,21,-1
 211 -57 l 1,11,12
437 195 m 1,22,-1
 437 517 l 1,23,-1
 494 517 l 1,24,-1
 498 447 l 1,25,26
 518 492 518 492 540.5 507.5 c 128,-1,27
 563 523 563 523 595 523 c 0,28,29
 605 523 605 523 617.5 521.5 c 128,-1,30
 630 520 630 520 643 518 c 1,31,-1
 635 461 l 1,32,33
 626 464 626 464 615 466 c 128,-1,34
 604 468 604 468 591 468 c 0,35,36
 556 468 556 468 529.5 443 c 128,-1,37
 503 418 503 418 503 371 c 2,38,-1
 503 195 l 1,39,-1
 437 195 l 1,22,-1
EndSplineSet
EndChar
StartChar: v.paren
Encoding: 9393 9393 2477
Width: 1000
Flags: W
LayerCount: 2
Fore
SplineSet
731 -57 m 1,0,1
 859 124 859 124 859 352 c 0,2,3
 859 464 859 464 826.5 571 c 128,-1,4
 794 678 794 678 731 767 c 1,5,-1
 789 767 l 1,6,7
 922 598 922 598 922 351 c 0,8,9
 922 106 922 106 789 -57 c 1,10,-1
 731 -57 l 1,0,1
211 -57 m 1,11,12
 78 106 78 106 78 351 c 0,13,14
 78 598 78 598 211 767 c 1,15,-1
 269 767 l 1,16,17
 206 678 206 678 173.5 571 c 128,-1,18
 141 464 141 464 141 352 c 0,19,20
 141 124 141 124 269 -57 c 1,21,-1
 211 -57 l 1,11,12
466 195 m 1,22,-1
 341 517 l 1,23,-1
 413 517 l 1,24,-1
 480 327 l 2,25,26
 488 305 488 305 493 287.5 c 128,-1,27
 498 270 498 270 499 257 c 1,28,29
 501 263 501 263 504 273 c 128,-1,30
 507 283 507 283 517 311 c 2,31,-1
 589 517 l 1,32,-1
 661 517 l 1,33,-1
 535 195 l 1,34,-1
 466 195 l 1,22,-1
EndSplineSet
EndChar
StartChar: x.paren
Encoding: 9395 9395 3047
Width: 1000
Flags: W
LayerCount: 2
Fore
SplineSet
731 -57 m 1,0,1
 859 124 859 124 859 352 c 0,2,3
 859 464 859 464 826.5 571 c 128,-1,4
 794 678 794 678 731 767 c 1,5,-1
 789 767 l 1,6,7
 922 598 922 598 922 351 c 0,8,9
 922 106 922 106 789 -57 c 1,10,-1
 731 -57 l 1,0,1
211 -57 m 1,11,12
 78 106 78 106 78 351 c 0,13,14
 78 598 78 598 211 767 c 1,15,-1
 269 767 l 1,16,17
 206 678 206 678 173.5 571 c 128,-1,18
 141 464 141 464 141 352 c 0,19,20
 141 124 141 124 269 -57 c 1,21,-1
 211 -57 l 1,11,12
342 195 m 1,22,-1
 462 360 l 1,23,-1
 348 517 l 1,24,-1
 421 517 l 1,25,-1
 500 404 l 1,26,-1
 579 517 l 1,27,-1
 650 517 l 1,28,-1
 536 360 l 1,29,-1
 657 195 l 1,30,-1
 583 195 l 1,31,-1
 500 314 l 1,32,-1
 417 195 l 1,33,-1
 342 195 l 1,22,-1
EndSplineSet
EndChar
StartChar: A.circled
Encoding: 9398 9398 2576
Width: 1000
Flags: W
LayerCount: 2
Fore
SplineSet
500 -55 m 0,0,1
 415 -55 415 -55 340 -23 c 128,-1,2
 265 9 265 9 208.5 65.5 c 128,-1,3
 152 122 152 122 120 197 c 128,-1,4
 88 272 88 272 88 357 c 0,5,6
 88 443 88 443 120 517.5 c 128,-1,7
 152 592 152 592 208.5 648.5 c 128,-1,8
 265 705 265 705 340 737 c 128,-1,9
 415 769 415 769 500 769 c 0,10,11
 586 769 586 769 660.5 737 c 128,-1,12
 735 705 735 705 791.5 648.5 c 128,-1,13
 848 592 848 592 880 517.5 c 128,-1,14
 912 443 912 443 912 357 c 0,15,16
 912 272 912 272 880 197 c 128,-1,17
 848 122 848 122 791.5 65.5 c 128,-1,18
 735 9 735 9 660.5 -23 c 128,-1,19
 586 -55 586 -55 500 -55 c 0,0,1
500 1 m 256,20,21
 574 1 574 1 638.5 28.5 c 128,-1,22
 703 56 703 56 752 105 c 128,-1,23
 801 154 801 154 828.5 218.5 c 128,-1,24
 856 283 856 283 856 357 c 256,25,26
 856 431 856 431 828.5 495.5 c 128,-1,27
 801 560 801 560 752 609 c 128,-1,28
 703 658 703 658 638.5 685.5 c 128,-1,29
 574 713 574 713 500 713 c 256,30,31
 426 713 426 713 361.5 685.5 c 128,-1,32
 297 658 297 658 248 609 c 128,-1,33
 199 560 199 560 171.5 495.5 c 128,-1,34
 144 431 144 431 144 357 c 256,35,36
 144 283 144 283 171.5 218.5 c 128,-1,37
 199 154 199 154 248 105 c 128,-1,38
 297 56 297 56 361.5 28.5 c 128,-1,39
 426 1 426 1 500 1 c 256,20,21
301 145 m 1,40,-1
 474 574 l 1,41,-1
 531 574 l 1,42,-1
 702 145 l 1,43,-1
 634 145 l 1,44,-1
 582 275 l 1,45,-1
 420 275 l 1,46,-1
 369 145 l 1,47,-1
 301 145 l 1,40,-1
442 329 m 1,48,-1
 563 329 l 1,49,-1
 518 451 l 2,50,51
 512 468 512 468 508 482.5 c 128,-1,52
 504 497 504 497 504 511 c 1,53,-1
 500 511 l 1,54,55
 500 483 500 483 487 451 c 2,56,-1
 442 329 l 1,48,-1
EndSplineSet
EndChar
StartChar: C.circled
Encoding: 9400 9400 2729
Width: 1000
Flags: W
LayerCount: 2
Fore
SplineSet
500 -55 m 0,0,1
 415 -55 415 -55 340 -23 c 128,-1,2
 265 9 265 9 208.5 65.5 c 128,-1,3
 152 122 152 122 120 197 c 128,-1,4
 88 272 88 272 88 357 c 0,5,6
 88 443 88 443 120 517.5 c 128,-1,7
 152 592 152 592 208.5 648.5 c 128,-1,8
 265 705 265 705 340 737 c 128,-1,9
 415 769 415 769 500 769 c 0,10,11
 586 769 586 769 660.5 737 c 128,-1,12
 735 705 735 705 791.5 648.5 c 128,-1,13
 848 592 848 592 880 517.5 c 128,-1,14
 912 443 912 443 912 357 c 0,15,16
 912 272 912 272 880 197 c 128,-1,17
 848 122 848 122 791.5 65.5 c 128,-1,18
 735 9 735 9 660.5 -23 c 128,-1,19
 586 -55 586 -55 500 -55 c 0,0,1
500 1 m 256,20,21
 574 1 574 1 638.5 28.5 c 128,-1,22
 703 56 703 56 752 105 c 128,-1,23
 801 154 801 154 828.5 218.5 c 128,-1,24
 856 283 856 283 856 357 c 256,25,26
 856 431 856 431 828.5 495.5 c 128,-1,27
 801 560 801 560 752 609 c 128,-1,28
 703 658 703 658 638.5 685.5 c 128,-1,29
 574 713 574 713 500 713 c 256,30,31
 426 713 426 713 361.5 685.5 c 128,-1,32
 297 658 297 658 248 609 c 128,-1,33
 199 560 199 560 171.5 495.5 c 128,-1,34
 144 431 144 431 144 357 c 256,35,36
 144 283 144 283 171.5 218.5 c 128,-1,37
 199 154 199 154 248 105 c 128,-1,38
 297 56 297 56 361.5 28.5 c 128,-1,39
 426 1 426 1 500 1 c 256,20,21
515 136 m 0,40,41
 403 136 403 136 350 196 c 128,-1,42
 297 256 297 256 297 360 c 0,43,44
 297 465 297 465 355.5 524.5 c 128,-1,45
 414 584 414 584 513 584 c 0,46,47
 585 584 585 584 639 557 c 1,48,-1
 614 506 l 1,49,50
 569 528 569 528 512 528 c 0,51,52
 446 528 446 528 408 484 c 128,-1,53
 370 440 370 440 370 359 c 0,54,55
 370 192 370 192 517 192 c 0,56,57
 580 192 580 192 622 208 c 1,58,-1
 622 152 l 1,59,60
 600 145 600 145 573.5 140.5 c 128,-1,61
 547 136 547 136 515 136 c 0,40,41
EndSplineSet
EndChar
StartChar: O.circled
Encoding: 9412 9412 1969
Width: 1000
Flags: W
LayerCount: 2
Fore
SplineSet
500 -55 m 0,0,1
 415 -55 415 -55 340 -23 c 128,-1,2
 265 9 265 9 208.5 65.5 c 128,-1,3
 152 122 152 122 120 197 c 128,-1,4
 88 272 88 272 88 357 c 0,5,6
 88 443 88 443 120 517.5 c 128,-1,7
 152 592 152 592 208.5 648.5 c 128,-1,8
 265 705 265 705 340 737 c 128,-1,9
 415 769 415 769 500 769 c 0,10,11
 586 769 586 769 660.5 737 c 128,-1,12
 735 705 735 705 791.5 648.5 c 128,-1,13
 848 592 848 592 880 517.5 c 128,-1,14
 912 443 912 443 912 357 c 0,15,16
 912 272 912 272 880 197 c 128,-1,17
 848 122 848 122 791.5 65.5 c 128,-1,18
 735 9 735 9 660.5 -23 c 128,-1,19
 586 -55 586 -55 500 -55 c 0,0,1
500 1 m 256,20,21
 574 1 574 1 638.5 28.5 c 128,-1,22
 703 56 703 56 752 105 c 128,-1,23
 801 154 801 154 828.5 218.5 c 128,-1,24
 856 283 856 283 856 357 c 256,25,26
 856 431 856 431 828.5 495.5 c 128,-1,27
 801 560 801 560 752 609 c 128,-1,28
 703 658 703 658 638.5 685.5 c 128,-1,29
 574 713 574 713 500 713 c 256,30,31
 426 713 426 713 361.5 685.5 c 128,-1,32
 297 658 297 658 248 609 c 128,-1,33
 199 560 199 560 171.5 495.5 c 128,-1,34
 144 431 144 431 144 357 c 256,35,36
 144 283 144 283 171.5 218.5 c 128,-1,37
 199 154 199 154 248 105 c 128,-1,38
 297 56 297 56 361.5 28.5 c 128,-1,39
 426 1 426 1 500 1 c 256,20,21
499 135 m 0,40,41
 400 135 400 135 346.5 194.5 c 128,-1,42
 293 254 293 254 293 361 c 0,43,44
 293 469 293 469 347 527.5 c 128,-1,45
 401 586 401 586 500 586 c 0,46,47
 595 586 595 586 650 526.5 c 128,-1,48
 705 467 705 467 705 361 c 0,49,50
 705 256 705 256 650.5 195.5 c 128,-1,51
 596 135 596 135 499 135 c 0,40,41
499 189 m 0,52,53
 562 189 562 189 597.5 233.5 c 128,-1,54
 633 278 633 278 633 361 c 0,55,56
 633 436 633 436 601 484 c 128,-1,57
 569 532 569 532 500 532 c 256,58,59
 431 532 431 532 398.5 484 c 128,-1,60
 366 436 366 436 366 361 c 0,61,62
 366 285 366 285 399 237 c 128,-1,63
 432 189 432 189 499 189 c 0,52,53
EndSplineSet
EndChar
StartChar: Q.circled
Encoding: 9414 9414 2292
Width: 1000
Flags: W
LayerCount: 2
Fore
SplineSet
500 -55 m 0,0,1
 415 -55 415 -55 340 -23 c 128,-1,2
 265 9 265 9 208.5 65.5 c 128,-1,3
 152 122 152 122 120 197 c 128,-1,4
 88 272 88 272 88 357 c 0,5,6
 88 443 88 443 120 517.5 c 128,-1,7
 152 592 152 592 208.5 648.5 c 128,-1,8
 265 705 265 705 340 737 c 128,-1,9
 415 769 415 769 500 769 c 0,10,11
 586 769 586 769 660.5 737 c 128,-1,12
 735 705 735 705 791.5 648.5 c 128,-1,13
 848 592 848 592 880 517.5 c 128,-1,14
 912 443 912 443 912 357 c 0,15,16
 912 272 912 272 880 197 c 128,-1,17
 848 122 848 122 791.5 65.5 c 128,-1,18
 735 9 735 9 660.5 -23 c 128,-1,19
 586 -55 586 -55 500 -55 c 0,0,1
500 1 m 256,20,21
 574 1 574 1 638.5 28.5 c 128,-1,22
 703 56 703 56 752 105 c 128,-1,23
 801 154 801 154 828.5 218.5 c 128,-1,24
 856 283 856 283 856 357 c 256,25,26
 856 431 856 431 828.5 495.5 c 128,-1,27
 801 560 801 560 752 609 c 128,-1,28
 703 658 703 658 638.5 685.5 c 128,-1,29
 574 713 574 713 500 713 c 256,30,31
 426 713 426 713 361.5 685.5 c 128,-1,32
 297 658 297 658 248 609 c 128,-1,33
 199 560 199 560 171.5 495.5 c 128,-1,34
 144 431 144 431 144 357 c 256,35,36
 144 283 144 283 171.5 218.5 c 128,-1,37
 199 154 199 154 248 105 c 128,-1,38
 297 56 297 56 361.5 28.5 c 128,-1,39
 426 1 426 1 500 1 c 256,20,21
589 65 m 1,40,-1
 531 137 l 1,41,42
 523 136 523 136 515.5 135.5 c 128,-1,43
 508 135 508 135 499 135 c 0,44,45
 400 135 400 135 346.5 194.5 c 128,-1,46
 293 254 293 254 293 361 c 0,47,48
 293 469 293 469 347 527.5 c 128,-1,49
 401 586 401 586 500 586 c 0,50,51
 595 586 595 586 650 526.5 c 128,-1,52
 705 467 705 467 705 361 c 0,53,54
 705 285 705 285 675 229.5 c 128,-1,55
 645 174 645 174 585 150 c 1,56,-1
 671 65 l 1,57,-1
 589 65 l 1,40,-1
499 189 m 0,58,59
 562 189 562 189 597.5 233.5 c 128,-1,60
 633 278 633 278 633 361 c 0,61,62
 633 436 633 436 601 484 c 128,-1,63
 569 532 569 532 500 532 c 256,64,65
 431 532 431 532 398.5 484 c 128,-1,66
 366 436 366 436 366 361 c 256,67,68
 366 286 366 286 399 237.5 c 128,-1,69
 432 189 432 189 499 189 c 0,58,59
EndSplineSet
EndChar
StartChar: R.circled
Encoding: 9415 9415 1035
Width: 1000
Flags: W
LayerCount: 2
Fore
SplineSet
500 -55 m 0,0,1
 415 -55 415 -55 340 -23 c 128,-1,2
 265 9 265 9 208.5 65.5 c 128,-1,3
 152 122 152 122 120 197 c 128,-1,4
 88 272 88 272 88 357 c 0,5,6
 88 443 88 443 120 517.5 c 128,-1,7
 152 592 152 592 208.5 648.5 c 128,-1,8
 265 705 265 705 340 737 c 128,-1,9
 415 769 415 769 500 769 c 0,10,11
 586 769 586 769 660.5 737 c 128,-1,12
 735 705 735 705 791.5 648.5 c 128,-1,13
 848 592 848 592 880 517.5 c 128,-1,14
 912 443 912 443 912 357 c 0,15,16
 912 272 912 272 880 197 c 128,-1,17
 848 122 848 122 791.5 65.5 c 128,-1,18
 735 9 735 9 660.5 -23 c 128,-1,19
 586 -55 586 -55 500 -55 c 0,0,1
500 1 m 256,20,21
 574 1 574 1 638.5 28.5 c 128,-1,22
 703 56 703 56 752 105 c 128,-1,23
 801 154 801 154 828.5 218.5 c 128,-1,24
 856 283 856 283 856 357 c 256,25,26
 856 431 856 431 828.5 495.5 c 128,-1,27
 801 560 801 560 752 609 c 128,-1,28
 703 658 703 658 638.5 685.5 c 128,-1,29
 574 713 574 713 500 713 c 256,30,31
 426 713 426 713 361.5 685.5 c 128,-1,32
 297 658 297 658 248 609 c 128,-1,33
 199 560 199 560 171.5 495.5 c 128,-1,34
 144 431 144 431 144 357 c 256,35,36
 144 283 144 283 171.5 218.5 c 128,-1,37
 199 154 199 154 248 105 c 128,-1,38
 297 56 297 56 361.5 28.5 c 128,-1,39
 426 1 426 1 500 1 c 256,20,21
370 145 m 1,40,-1
 370 574 l 1,41,-1
 498 574 l 2,42,43
 587 574 587 574 625.5 544.5 c 128,-1,44
 664 515 664 515 664 450 c 0,45,46
 664 371 664 371 576 338 c 1,47,-1
 696 145 l 1,48,-1
 616 145 l 1,49,-1
 513 320 l 1,50,-1
 439 320 l 1,51,-1
 439 145 l 1,52,-1
 370 145 l 1,40,-1
439 373 m 1,53,-1
 498 373 l 2,54,55
 592 373 592 373 592 448 c 0,56,57
 592 490 592 490 566.5 504.5 c 128,-1,58
 541 519 541 519 494 519 c 2,59,-1
 439 519 l 1,60,-1
 439 373 l 1,53,-1
EndSplineSet
EndChar
StartChar: V.circled
Encoding: 9419 9419 1039
Width: 1000
Flags: W
LayerCount: 2
Fore
SplineSet
500 -55 m 0,0,1
 415 -55 415 -55 340 -23 c 128,-1,2
 265 9 265 9 208.5 65.5 c 128,-1,3
 152 122 152 122 120 197 c 128,-1,4
 88 272 88 272 88 357 c 0,5,6
 88 443 88 443 120 517.5 c 128,-1,7
 152 592 152 592 208.5 648.5 c 128,-1,8
 265 705 265 705 340 737 c 128,-1,9
 415 769 415 769 500 769 c 0,10,11
 586 769 586 769 660.5 737 c 128,-1,12
 735 705 735 705 791.5 648.5 c 128,-1,13
 848 592 848 592 880 517.5 c 128,-1,14
 912 443 912 443 912 357 c 0,15,16
 912 272 912 272 880 197 c 128,-1,17
 848 122 848 122 791.5 65.5 c 128,-1,18
 735 9 735 9 660.5 -23 c 128,-1,19
 586 -55 586 -55 500 -55 c 0,0,1
500 1 m 256,20,21
 574 1 574 1 638.5 28.5 c 128,-1,22
 703 56 703 56 752 105 c 128,-1,23
 801 154 801 154 828.5 218.5 c 128,-1,24
 856 283 856 283 856 357 c 256,25,26
 856 431 856 431 828.5 495.5 c 128,-1,27
 801 560 801 560 752 609 c 128,-1,28
 703 658 703 658 638.5 685.5 c 128,-1,29
 574 713 574 713 500 713 c 256,30,31
 426 713 426 713 361.5 685.5 c 128,-1,32
 297 658 297 658 248 609 c 128,-1,33
 199 560 199 560 171.5 495.5 c 128,-1,34
 144 431 144 431 144 357 c 256,35,36
 144 283 144 283 171.5 218.5 c 128,-1,37
 199 154 199 154 248 105 c 128,-1,38
 297 56 297 56 361.5 28.5 c 128,-1,39
 426 1 426 1 500 1 c 256,20,21
467 146 m 1,40,-1
 310 574 l 1,41,-1
 386 574 l 1,42,-1
 473 316 l 2,43,44
 484 282 484 282 492 258 c 128,-1,45
 500 234 500 234 501 220 c 1,46,47
 503 231 503 231 511.5 255.5 c 128,-1,48
 520 280 520 280 531 316 c 2,49,-1
 614 574 l 1,50,-1
 690 574 l 1,51,-1
 534 146 l 1,52,-1
 467 146 l 1,40,-1
EndSplineSet
EndChar
StartChar: c.circled
Encoding: 9426 9426 1046
Width: 1000
Flags: W
LayerCount: 2
Fore
SplineSet
500 -55 m 0,0,1
 415 -55 415 -55 340 -23 c 128,-1,2
 265 9 265 9 208.5 65.5 c 128,-1,3
 152 122 152 122 120 197 c 128,-1,4
 88 272 88 272 88 357 c 0,5,6
 88 443 88 443 120 517.5 c 128,-1,7
 152 592 152 592 208.5 648.5 c 128,-1,8
 265 705 265 705 340 737 c 128,-1,9
 415 769 415 769 500 769 c 0,10,11
 586 769 586 769 660.5 737 c 128,-1,12
 735 705 735 705 791.5 648.5 c 128,-1,13
 848 592 848 592 880 517.5 c 128,-1,14
 912 443 912 443 912 357 c 0,15,16
 912 272 912 272 880 197 c 128,-1,17
 848 122 848 122 791.5 65.5 c 128,-1,18
 735 9 735 9 660.5 -23 c 128,-1,19
 586 -55 586 -55 500 -55 c 0,0,1
500 1 m 256,20,21
 574 1 574 1 638.5 28.5 c 128,-1,22
 703 56 703 56 752 105 c 128,-1,23
 801 154 801 154 828.5 218.5 c 128,-1,24
 856 283 856 283 856 357 c 256,25,26
 856 431 856 431 828.5 495.5 c 128,-1,27
 801 560 801 560 752 609 c 128,-1,28
 703 658 703 658 638.5 685.5 c 128,-1,29
 574 713 574 713 500 713 c 256,30,31
 426 713 426 713 361.5 685.5 c 128,-1,32
 297 658 297 658 248 609 c 128,-1,33
 199 560 199 560 171.5 495.5 c 128,-1,34
 144 431 144 431 144 357 c 256,35,36
 144 283 144 283 171.5 218.5 c 128,-1,37
 199 154 199 154 248 105 c 128,-1,38
 297 56 297 56 361.5 28.5 c 128,-1,39
 426 1 426 1 500 1 c 256,20,21
527 190 m 0,40,41
 455 190 455 190 415 234 c 128,-1,42
 375 278 375 278 375 356 c 0,43,44
 375 436 375 436 416.5 479.5 c 128,-1,45
 458 523 458 523 531 523 c 0,46,47
 580 523 580 523 622 504 c 1,48,-1
 605 454 l 1,49,50
 569 470 569 470 530 470 c 0,51,52
 441 470 441 470 441 356 c 0,53,54
 441 302 441 302 463 272.5 c 128,-1,55
 485 243 485 243 527 243 c 0,56,57
 568 243 568 243 617 264 c 1,58,-1
 617 210 l 1,59,60
 593 200 593 200 571 195 c 128,-1,61
 549 190 549 190 527 190 c 0,40,41
EndSplineSet
EndChar
StartChar: i.circled
Encoding: 9432 9432 2397
Width: 1000
Flags: W
LayerCount: 2
Fore
SplineSet
500 -55 m 0,0,1
 415 -55 415 -55 340 -23 c 128,-1,2
 265 9 265 9 208.5 65.5 c 128,-1,3
 152 122 152 122 120 197 c 128,-1,4
 88 272 88 272 88 357 c 0,5,6
 88 443 88 443 120 517.5 c 128,-1,7
 152 592 152 592 208.5 648.5 c 128,-1,8
 265 705 265 705 340 737 c 128,-1,9
 415 769 415 769 500 769 c 0,10,11
 586 769 586 769 660.5 737 c 128,-1,12
 735 705 735 705 791.5 648.5 c 128,-1,13
 848 592 848 592 880 517.5 c 128,-1,14
 912 443 912 443 912 357 c 0,15,16
 912 272 912 272 880 197 c 128,-1,17
 848 122 848 122 791.5 65.5 c 128,-1,18
 735 9 735 9 660.5 -23 c 128,-1,19
 586 -55 586 -55 500 -55 c 0,0,1
500 1 m 256,20,21
 574 1 574 1 638.5 28.5 c 128,-1,22
 703 56 703 56 752 105 c 128,-1,23
 801 154 801 154 828.5 218.5 c 128,-1,24
 856 283 856 283 856 357 c 256,25,26
 856 431 856 431 828.5 495.5 c 128,-1,27
 801 560 801 560 752 609 c 128,-1,28
 703 658 703 658 638.5 685.5 c 128,-1,29
 574 713 574 713 500 713 c 256,30,31
 426 713 426 713 361.5 685.5 c 128,-1,32
 297 658 297 658 248 609 c 128,-1,33
 199 560 199 560 171.5 495.5 c 128,-1,34
 144 431 144 431 144 357 c 256,35,36
 144 283 144 283 171.5 218.5 c 128,-1,37
 199 154 199 154 248 105 c 128,-1,38
 297 56 297 56 361.5 28.5 c 128,-1,39
 426 1 426 1 500 1 c 256,20,21
500 526 m 0,40,41
 460 526 460 526 460 565 c 256,42,43
 460 604 460 604 500 604 c 0,44,45
 516 604 516 604 527.5 594.5 c 128,-1,46
 539 585 539 585 539 565 c 256,47,48
 539 545 539 545 527.5 535.5 c 128,-1,49
 516 526 516 526 500 526 c 0,40,41
467 158 m 1,50,-1
 467 480 l 1,51,-1
 533 480 l 1,52,-1
 533 158 l 1,53,-1
 467 158 l 1,50,-1
EndSplineSet
EndChar
StartChar: j.circled
Encoding: 9433 9433 1053
Width: 1000
Flags: W
LayerCount: 2
Fore
SplineSet
500 -55 m 0,0,1
 415 -55 415 -55 340 -23 c 128,-1,2
 265 9 265 9 208.5 65.5 c 128,-1,3
 152 122 152 122 120 197 c 128,-1,4
 88 272 88 272 88 357 c 0,5,6
 88 443 88 443 120 517.5 c 128,-1,7
 152 592 152 592 208.5 648.5 c 128,-1,8
 265 705 265 705 340 737 c 128,-1,9
 415 769 415 769 500 769 c 0,10,11
 586 769 586 769 660.5 737 c 128,-1,12
 735 705 735 705 791.5 648.5 c 128,-1,13
 848 592 848 592 880 517.5 c 128,-1,14
 912 443 912 443 912 357 c 0,15,16
 912 272 912 272 880 197 c 128,-1,17
 848 122 848 122 791.5 65.5 c 128,-1,18
 735 9 735 9 660.5 -23 c 128,-1,19
 586 -55 586 -55 500 -55 c 0,0,1
500 1 m 256,20,21
 574 1 574 1 638.5 28.5 c 128,-1,22
 703 56 703 56 752 105 c 128,-1,23
 801 154 801 154 828.5 218.5 c 128,-1,24
 856 283 856 283 856 357 c 256,25,26
 856 431 856 431 828.5 495.5 c 128,-1,27
 801 560 801 560 752 609 c 128,-1,28
 703 658 703 658 638.5 685.5 c 128,-1,29
 574 713 574 713 500 713 c 256,30,31
 426 713 426 713 361.5 685.5 c 128,-1,32
 297 658 297 658 248 609 c 128,-1,33
 199 560 199 560 171.5 495.5 c 128,-1,34
 144 431 144 431 144 357 c 256,35,36
 144 283 144 283 171.5 218.5 c 128,-1,37
 199 154 199 154 248 105 c 128,-1,38
 297 56 297 56 361.5 28.5 c 128,-1,39
 426 1 426 1 500 1 c 256,20,21
523 582 m 0,40,41
 483 582 483 582 483 621 c 256,42,43
 483 660 483 660 523 660 c 0,44,45
 539 660 539 660 550.5 650.5 c 128,-1,46
 562 641 562 641 562 621 c 256,47,48
 562 601 562 601 550.5 591.5 c 128,-1,49
 539 582 539 582 523 582 c 0,40,41
451 76 m 0,50,51
 411 76 411 76 393 84 c 1,52,-1
 393 135 l 1,53,54
 417 128 417 128 447 128 c 0,55,56
 472 128 472 128 483 144.5 c 128,-1,57
 494 161 494 161 494 210 c 2,58,-1
 494 537 l 1,59,-1
 559 537 l 1,60,-1
 559 214 l 2,61,62
 559 147 559 147 536 111.5 c 128,-1,63
 513 76 513 76 451 76 c 0,50,51
EndSplineSet
EndChar
StartChar: m.circled
Encoding: 9436 9436 2939
Width: 1000
Flags: W
LayerCount: 2
Fore
SplineSet
500 -55 m 0,0,1
 415 -55 415 -55 340 -23 c 128,-1,2
 265 9 265 9 208.5 65.5 c 128,-1,3
 152 122 152 122 120 197 c 128,-1,4
 88 272 88 272 88 357 c 0,5,6
 88 443 88 443 120 517.5 c 128,-1,7
 152 592 152 592 208.5 648.5 c 128,-1,8
 265 705 265 705 340 737 c 128,-1,9
 415 769 415 769 500 769 c 0,10,11
 586 769 586 769 660.5 737 c 128,-1,12
 735 705 735 705 791.5 648.5 c 128,-1,13
 848 592 848 592 880 517.5 c 128,-1,14
 912 443 912 443 912 357 c 0,15,16
 912 272 912 272 880 197 c 128,-1,17
 848 122 848 122 791.5 65.5 c 128,-1,18
 735 9 735 9 660.5 -23 c 128,-1,19
 586 -55 586 -55 500 -55 c 0,0,1
500 1 m 256,20,21
 574 1 574 1 638.5 28.5 c 128,-1,22
 703 56 703 56 752 105 c 128,-1,23
 801 154 801 154 828.5 218.5 c 128,-1,24
 856 283 856 283 856 357 c 256,25,26
 856 431 856 431 828.5 495.5 c 128,-1,27
 801 560 801 560 752 609 c 128,-1,28
 703 658 703 658 638.5 685.5 c 128,-1,29
 574 713 574 713 500 713 c 256,30,31
 426 713 426 713 361.5 685.5 c 128,-1,32
 297 658 297 658 248 609 c 128,-1,33
 199 560 199 560 171.5 495.5 c 128,-1,34
 144 431 144 431 144 357 c 256,35,36
 144 283 144 283 171.5 218.5 c 128,-1,37
 199 154 199 154 248 105 c 128,-1,38
 297 56 297 56 361.5 28.5 c 128,-1,39
 426 1 426 1 500 1 c 256,20,21
259 195 m 1,40,-1
 259 517 l 1,41,-1
 307 517 l 1,42,-1
 325 470 l 1,43,-1
 326 470 l 1,44,45
 359 523 359 523 427 523 c 0,46,47
 511 523 511 523 530 463 c 1,48,-1
 531 463 l 1,49,50
 555 500 555 500 580.5 511.5 c 128,-1,51
 606 523 606 523 642 523 c 0,52,53
 755 523 755 523 755 404 c 2,54,-1
 755 195 l 1,55,-1
 690 195 l 1,56,-1
 690 402 l 2,57,58
 690 473 690 473 626 473 c 0,59,60
 579 473 579 473 559.5 447 c 128,-1,61
 540 421 540 421 540 372 c 2,62,-1
 540 195 l 1,63,-1
 475 195 l 1,64,-1
 475 402 l 2,65,66
 475 473 475 473 411 473 c 0,67,68
 363 473 363 473 344 444.5 c 128,-1,69
 325 416 325 416 325 362 c 2,70,-1
 325 195 l 1,71,-1
 259 195 l 1,40,-1
EndSplineSet
EndChar
StartChar: o.circled
Encoding: 9438 9438 1058
Width: 1000
Flags: W
LayerCount: 2
Fore
SplineSet
500 -55 m 0,0,1
 415 -55 415 -55 340 -23 c 128,-1,2
 265 9 265 9 208.5 65.5 c 128,-1,3
 152 122 152 122 120 197 c 128,-1,4
 88 272 88 272 88 357 c 0,5,6
 88 443 88 443 120 517.5 c 128,-1,7
 152 592 152 592 208.5 648.5 c 128,-1,8
 265 705 265 705 340 737 c 128,-1,9
 415 769 415 769 500 769 c 0,10,11
 586 769 586 769 660.5 737 c 128,-1,12
 735 705 735 705 791.5 648.5 c 128,-1,13
 848 592 848 592 880 517.5 c 128,-1,14
 912 443 912 443 912 357 c 0,15,16
 912 272 912 272 880 197 c 128,-1,17
 848 122 848 122 791.5 65.5 c 128,-1,18
 735 9 735 9 660.5 -23 c 128,-1,19
 586 -55 586 -55 500 -55 c 0,0,1
500 1 m 256,20,21
 574 1 574 1 638.5 28.5 c 128,-1,22
 703 56 703 56 752 105 c 128,-1,23
 801 154 801 154 828.5 218.5 c 128,-1,24
 856 283 856 283 856 357 c 256,25,26
 856 431 856 431 828.5 495.5 c 128,-1,27
 801 560 801 560 752 609 c 128,-1,28
 703 658 703 658 638.5 685.5 c 128,-1,29
 574 713 574 713 500 713 c 256,30,31
 426 713 426 713 361.5 685.5 c 128,-1,32
 297 658 297 658 248 609 c 128,-1,33
 199 560 199 560 171.5 495.5 c 128,-1,34
 144 431 144 431 144 357 c 256,35,36
 144 283 144 283 171.5 218.5 c 128,-1,37
 199 154 199 154 248 105 c 128,-1,38
 297 56 297 56 361.5 28.5 c 128,-1,39
 426 1 426 1 500 1 c 256,20,21
499 190 m 0,40,41
 432 190 432 190 389 233.5 c 128,-1,42
 346 277 346 277 346 357 c 0,43,44
 346 435 346 435 387.5 479 c 128,-1,45
 429 523 429 523 501 523 c 0,46,47
 570 523 570 523 612 479 c 128,-1,48
 654 435 654 435 654 357 c 0,49,50
 654 277 654 277 612.5 233.5 c 128,-1,51
 571 190 571 190 499 190 c 0,40,41
500 242 m 256,52,53
 588 242 588 242 588 357 c 0,54,55
 588 471 588 471 500 471 c 256,56,57
 412 471 412 471 412 357 c 0,58,59
 412 242 412 242 500 242 c 256,52,53
EndSplineSet
EndChar
StartChar: u.circled
Encoding: 9444 9444 1064
Width: 1000
Flags: W
LayerCount: 2
Fore
SplineSet
500 -55 m 0,0,1
 415 -55 415 -55 340 -23 c 128,-1,2
 265 9 265 9 208.5 65.5 c 128,-1,3
 152 122 152 122 120 197 c 128,-1,4
 88 272 88 272 88 357 c 0,5,6
 88 443 88 443 120 517.5 c 128,-1,7
 152 592 152 592 208.5 648.5 c 128,-1,8
 265 705 265 705 340 737 c 128,-1,9
 415 769 415 769 500 769 c 0,10,11
 586 769 586 769 660.5 737 c 128,-1,12
 735 705 735 705 791.5 648.5 c 128,-1,13
 848 592 848 592 880 517.5 c 128,-1,14
 912 443 912 443 912 357 c 0,15,16
 912 272 912 272 880 197 c 128,-1,17
 848 122 848 122 791.5 65.5 c 128,-1,18
 735 9 735 9 660.5 -23 c 128,-1,19
 586 -55 586 -55 500 -55 c 0,0,1
500 1 m 256,20,21
 574 1 574 1 638.5 28.5 c 128,-1,22
 703 56 703 56 752 105 c 128,-1,23
 801 154 801 154 828.5 218.5 c 128,-1,24
 856 283 856 283 856 357 c 256,25,26
 856 431 856 431 828.5 495.5 c 128,-1,27
 801 560 801 560 752 609 c 128,-1,28
 703 658 703 658 638.5 685.5 c 128,-1,29
 574 713 574 713 500 713 c 256,30,31
 426 713 426 713 361.5 685.5 c 128,-1,32
 297 658 297 658 248 609 c 128,-1,33
 199 560 199 560 171.5 495.5 c 128,-1,34
 144 431 144 431 144 357 c 256,35,36
 144 283 144 283 171.5 218.5 c 128,-1,37
 199 154 199 154 248 105 c 128,-1,38
 297 56 297 56 361.5 28.5 c 128,-1,39
 426 1 426 1 500 1 c 256,20,21
481 189 m 0,40,41
 364 189 364 189 364 308 c 2,42,-1
 364 517 l 1,43,-1
 429 517 l 1,44,-1
 429 310 l 2,45,46
 429 239 429 239 495 239 c 0,47,48
 545 239 545 239 564.5 267.5 c 128,-1,49
 584 296 584 296 584 350 c 2,50,-1
 584 517 l 1,51,-1
 650 517 l 1,52,-1
 650 195 l 1,53,-1
 602 195 l 1,54,-1
 585 242 l 1,55,-1
 583 242 l 1,56,57
 548 189 548 189 481 189 c 0,40,41
EndSplineSet
EndChar
StartChar: one_one.blackCircled
Encoding: 9451 9451 2124
Width: 1000
Flags: W
LayerCount: 2
Fore
SplineSet
500 -55 m 0,0,1
 415 -55 415 -55 340 -23 c 128,-1,2
 265 9 265 9 208.5 65.5 c 128,-1,3
 152 122 152 122 120 197 c 128,-1,4
 88 272 88 272 88 357 c 256,5,6
 88 442 88 442 120 516.5 c 128,-1,7
 152 591 152 591 208.5 648 c 128,-1,8
 265 705 265 705 340 737 c 128,-1,9
 415 769 415 769 500 769 c 0,10,11
 586 769 586 769 660.5 737 c 128,-1,12
 735 705 735 705 791.5 648 c 128,-1,13
 848 591 848 591 880 516.5 c 128,-1,14
 912 442 912 442 912 357 c 256,15,16
 912 272 912 272 880 197 c 128,-1,17
 848 122 848 122 791.5 65.5 c 128,-1,18
 735 9 735 9 660.5 -23 c 128,-1,19
 586 -55 586 -55 500 -55 c 0,0,1
607 144 m 1,20,-1
 675 144 l 1,21,-1
 675 572 l 1,22,-1
 603 572 l 1,23,-1
 489 489 l 1,24,-1
 523 440 l 1,25,26
 547 458 547 458 564 472 c 128,-1,27
 581 486 581 486 593 495 c 0,28,29
 598 499 598 499 602 502.5 c 128,-1,30
 606 506 606 506 609 509 c 1,31,32
 608 499 608 499 607.5 488.5 c 128,-1,33
 607 478 607 478 607 467 c 2,34,-1
 607 144 l 1,20,-1
368 144 m 1,35,-1
 436 144 l 1,36,-1
 436 572 l 1,37,-1
 364 572 l 1,38,-1
 250 489 l 1,39,-1
 284 440 l 1,40,41
 307 457 307 457 323.5 470 c 128,-1,42
 340 483 340 483 352 493 c 0,43,44
 357 497 357 497 361.5 501 c 128,-1,45
 366 505 366 505 370 509 c 1,46,47
 370 499 370 499 369 488.5 c 128,-1,48
 368 478 368 478 368 467 c 2,49,-1
 368 144 l 1,35,-1
EndSplineSet
EndChar
StartChar: one_three.blackCircled
Encoding: 9453 9453 471
Width: 1000
Flags: W
LayerCount: 2
Fore
SplineSet
500 -55 m 0,0,1
 415 -55 415 -55 340 -23 c 128,-1,2
 265 9 265 9 208.5 65.5 c 128,-1,3
 152 122 152 122 120 197 c 128,-1,4
 88 272 88 272 88 357 c 256,5,6
 88 442 88 442 120 516.5 c 128,-1,7
 152 591 152 591 208.5 648 c 128,-1,8
 265 705 265 705 340 737 c 128,-1,9
 415 769 415 769 500 769 c 0,10,11
 586 769 586 769 660.5 737 c 128,-1,12
 735 705 735 705 791.5 648 c 128,-1,13
 848 591 848 591 880 516.5 c 128,-1,14
 912 442 912 442 912 357 c 256,15,16
 912 272 912 272 880 197 c 128,-1,17
 848 122 848 122 791.5 65.5 c 128,-1,18
 735 9 735 9 660.5 -23 c 128,-1,19
 586 -55 586 -55 500 -55 c 0,0,1
588 135 m 0,20,21
 656 135 656 135 699 167 c 128,-1,22
 742 199 742 199 742 266 c 0,23,24
 742 351 742 351 647 369 c 1,25,26
 682 377 682 377 705.5 404.5 c 128,-1,27
 729 432 729 432 729 470 c 0,28,29
 729 526 729 526 692.5 553 c 128,-1,30
 656 580 656 580 599 580 c 0,31,32
 532 580 532 580 471 531 c 1,33,-1
 503 485 l 1,34,35
 528 502 528 502 548.5 512.5 c 128,-1,36
 569 523 569 523 596 523 c 0,37,38
 622 523 622 523 641 508.5 c 128,-1,39
 660 494 660 494 660 462 c 0,40,41
 660 392 660 392 577 392 c 2,42,-1
 533 392 l 1,43,-1
 533 337 l 1,44,-1
 577 337 l 2,45,46
 673 337 673 337 673 268 c 0,47,48
 673 192 673 192 582 192 c 0,49,50
 536 192 536 192 477 226 c 1,51,-1
 477 163 l 1,52,53
 526 135 526 135 588 135 c 0,20,21
350 144 m 1,54,-1
 418 144 l 1,55,-1
 418 572 l 1,56,-1
 346 572 l 1,57,-1
 232 489 l 1,58,-1
 266 440 l 1,59,60
 287 456 287 456 303.5 468.5 c 128,-1,61
 320 481 320 481 331 490 c 0,62,63
 338 496 338 496 343 500.5 c 128,-1,64
 348 505 348 505 352 509 c 1,65,66
 352 499 352 499 351.5 488.5 c 128,-1,67
 351 478 351 478 350 467 c 2,68,-1
 350 144 l 1,54,-1
628 372 m 1,69,70
 638 371 638 371 647 369 c 1,71,72
 640 368 640 368 632 367 c 1,73,-1
 628 372 l 1,69,70
EndSplineSet
EndChar
StartChar: one_four.blackCircled
Encoding: 9454 9454 472
Width: 1000
Flags: W
LayerCount: 2
Fore
SplineSet
500 -55 m 0,0,1
 415 -55 415 -55 340 -23 c 128,-1,2
 265 9 265 9 208.5 65.5 c 128,-1,3
 152 122 152 122 120 197 c 128,-1,4
 88 272 88 272 88 357 c 256,5,6
 88 442 88 442 120 516.5 c 128,-1,7
 152 591 152 591 208.5 648 c 128,-1,8
 265 705 265 705 340 737 c 128,-1,9
 415 769 415 769 500 769 c 0,10,11
 586 769 586 769 660.5 737 c 128,-1,12
 735 705 735 705 791.5 648 c 128,-1,13
 848 591 848 591 880 516.5 c 128,-1,14
 912 442 912 442 912 357 c 256,15,16
 912 272 912 272 880 197 c 128,-1,17
 848 122 848 122 791.5 65.5 c 128,-1,18
 735 9 735 9 660.5 -23 c 128,-1,19
 586 -55 586 -55 500 -55 c 0,0,1
627 144 m 1,20,-1
 695 144 l 1,21,-1
 695 241 l 1,22,-1
 755 241 l 1,23,-1
 755 299 l 1,24,-1
 695 299 l 1,25,-1
 695 572 l 1,26,-1
 626 572 l 1,27,-1
 452 291 l 1,28,-1
 452 241 l 1,29,-1
 627 241 l 1,30,-1
 627 144 l 1,20,-1
345 144 m 1,31,-1
 413 144 l 1,32,-1
 413 572 l 1,33,-1
 341 572 l 1,34,-1
 227 489 l 1,35,-1
 261 440 l 1,36,-1
 312 479 l 2,37,38
 325 489 325 489 333.5 497 c 128,-1,39
 342 505 342 505 347 511 c 1,40,41
 346 500 346 500 345.5 489 c 128,-1,42
 345 478 345 478 345 467 c 2,43,-1
 345 144 l 1,31,-1
515 299 m 1,44,-1
 603 448 l 2,45,46
 613 465 613 465 619.5 477.5 c 128,-1,47
 626 490 626 490 630 498 c 1,48,-1
 631 498 l 1,49,50
 630 474 630 474 628.5 450 c 128,-1,51
 627 426 627 426 627 398 c 2,52,-1
 627 299 l 1,53,-1
 515 299 l 1,44,-1
EndSplineSet
EndChar
StartChar: one_seven.blackCircled
Encoding: 9457 9457 2872
Width: 1000
Flags: W
LayerCount: 2
Fore
SplineSet
500 -55 m 0,0,1
 415 -55 415 -55 340 -23 c 128,-1,2
 265 9 265 9 208.5 65.5 c 128,-1,3
 152 122 152 122 120 197 c 128,-1,4
 88 272 88 272 88 357 c 256,5,6
 88 442 88 442 120 516.5 c 128,-1,7
 152 591 152 591 208.5 648 c 128,-1,8
 265 705 265 705 340 737 c 128,-1,9
 415 769 415 769 500 769 c 0,10,11
 586 769 586 769 660.5 737 c 128,-1,12
 735 705 735 705 791.5 648 c 128,-1,13
 848 591 848 591 880 516.5 c 128,-1,14
 912 442 912 442 912 357 c 256,15,16
 912 272 912 272 880 197 c 128,-1,17
 848 122 848 122 791.5 65.5 c 128,-1,18
 735 9 735 9 660.5 -23 c 128,-1,19
 586 -55 586 -55 500 -55 c 0,0,1
520 144 m 1,20,-1
 589 144 l 1,21,-1
 749 524 l 1,22,-1
 749 573 l 1,23,-1
 480 573 l 1,24,-1
 480 513 l 1,25,-1
 677 513 l 1,26,-1
 520 144 l 1,20,-1
360 144 m 1,27,-1
 428 144 l 1,28,-1
 428 572 l 1,29,-1
 356 572 l 1,30,-1
 242 489 l 1,31,-1
 276 440 l 1,32,33
 296 455 296 455 311 467.5 c 128,-1,34
 326 480 326 480 338 489 c 0,35,36
 346 495 346 495 352 500 c 128,-1,37
 358 505 358 505 362 509 c 1,38,39
 361 499 361 499 360.5 488.5 c 128,-1,40
 360 478 360 478 360 467 c 2,41,-1
 360 144 l 1,27,-1
EndSplineSet
EndChar
StartChar: two_zero.blackCircled
Encoding: 9460 9460 478
Width: 1000
Flags: W
LayerCount: 2
Fore
SplineSet
500 -55 m 0,0,1
 415 -55 415 -55 340 -23 c 128,-1,2
 265 9 265 9 208.5 65.5 c 128,-1,3
 152 122 152 122 120 197 c 128,-1,4
 88 272 88 272 88 357 c 256,5,6
 88 442 88 442 120 516.5 c 128,-1,7
 152 591 152 591 208.5 648 c 128,-1,8
 265 705 265 705 340 737 c 128,-1,9
 415 769 415 769 500 769 c 0,10,11
 586 769 586 769 660.5 737 c 128,-1,12
 735 705 735 705 791.5 648 c 128,-1,13
 848 591 848 591 880 516.5 c 128,-1,14
 912 442 912 442 912 357 c 256,15,16
 912 272 912 272 880 197 c 128,-1,17
 848 122 848 122 791.5 65.5 c 128,-1,18
 735 9 735 9 660.5 -23 c 128,-1,19
 586 -55 586 -55 500 -55 c 0,0,1
228 143 m 1,20,-1
 490 143 l 1,21,-1
 490 205 l 1,22,-1
 309 205 l 1,23,-1
 382 282 l 2,24,25
 432 334 432 334 461.5 373.5 c 128,-1,26
 491 413 491 413 491 462 c 0,27,28
 491 518 491 518 456.5 549 c 128,-1,29
 422 580 422 580 363 580 c 0,30,31
 292 580 292 580 231 525 c 1,32,-1
 264 479 l 1,33,34
 313 522 313 522 360 522 c 0,35,36
 388 522 388 522 405 505.5 c 128,-1,37
 422 489 422 489 422 462 c 0,38,39
 422 446 422 446 416.5 428 c 128,-1,40
 411 410 411 410 394.5 385.5 c 128,-1,41
 378 361 378 361 343 323 c 2,42,-1
 228 197 l 1,43,-1
 228 143 l 1,20,-1
650 135 m 0,44,45
 788 135 788 135 788 359 c 0,46,47
 788 580 788 580 650 580 c 0,48,49
 577 580 577 580 545 522.5 c 128,-1,50
 513 465 513 465 513 359 c 0,51,52
 513 135 513 135 650 135 c 0,44,45
650 194 m 0,53,54
 621 194 621 194 606.5 217.5 c 128,-1,55
 592 241 592 241 587 278.5 c 128,-1,56
 582 316 582 316 582 358 c 0,57,58
 582 401 582 401 587 438 c 128,-1,59
 592 475 592 475 606.5 498.5 c 128,-1,60
 621 522 621 522 650 522 c 0,61,62
 720 522 720 522 720 359 c 0,63,64
 720 194 720 194 650 194 c 0,53,54
294 205 m 1,65,-1
 309 205 l 1,66,-1
 294 189 l 1,67,-1
 294 205 l 1,65,-1
EndSplineSet
EndChar
StartChar: eight.doubleCircled
Encoding: 9468 9468 2381
Width: 1000
Flags: W
LayerCount: 2
Fore
SplineSet
500 -89 m 256,0,1
 408 -89 408 -89 327 -54.5 c 128,-1,2
 246 -20 246 -20 184.5 41.5 c 128,-1,3
 123 103 123 103 88.5 183.5 c 128,-1,4
 54 264 54 264 54 357 c 256,5,6
 54 450 54 450 88.5 530.5 c 128,-1,7
 123 611 123 611 184.5 672.5 c 128,-1,8
 246 734 246 734 327 768.5 c 128,-1,9
 408 803 408 803 500 803 c 256,10,11
 592 803 592 803 673 768.5 c 128,-1,12
 754 734 754 734 815.5 672.5 c 128,-1,13
 877 611 877 611 911.5 530.5 c 128,-1,14
 946 450 946 450 946 357 c 256,15,16
 946 264 946 264 911.5 183.5 c 128,-1,17
 877 103 877 103 815.5 41.5 c 128,-1,18
 754 -20 754 -20 673 -54.5 c 128,-1,19
 592 -89 592 -89 500 -89 c 256,0,1
500 -59 m 256,20,21
 586 -59 586 -59 661.5 -26.5 c 128,-1,22
 737 6 737 6 794 63 c 128,-1,23
 851 120 851 120 883.5 195.5 c 128,-1,24
 916 271 916 271 916 357 c 256,25,26
 916 443 916 443 883.5 518.5 c 128,-1,27
 851 594 851 594 794 651 c 128,-1,28
 737 708 737 708 661.5 740.5 c 128,-1,29
 586 773 586 773 500 773 c 256,30,31
 414 773 414 773 338.5 740.5 c 128,-1,32
 263 708 263 708 206 651 c 128,-1,33
 149 594 149 594 116.5 518.5 c 128,-1,34
 84 443 84 443 84 357 c 256,35,36
 84 271 84 271 116.5 195.5 c 128,-1,37
 149 120 149 120 206 63 c 128,-1,38
 263 6 263 6 338.5 -26.5 c 128,-1,39
 414 -59 414 -59 500 -59 c 256,20,21
500 -30 m 256,40,41
 420 -30 420 -30 349.5 0 c 128,-1,42
 279 30 279 30 226 83 c 128,-1,43
 173 136 173 136 143 206.5 c 128,-1,44
 113 277 113 277 113 357 c 256,45,46
 113 437 113 437 143 507.5 c 128,-1,47
 173 578 173 578 226 631 c 128,-1,48
 279 684 279 684 349.5 714 c 128,-1,49
 420 744 420 744 500 744 c 256,50,51
 580 744 580 744 650.5 714 c 128,-1,52
 721 684 721 684 774 631 c 128,-1,53
 827 578 827 578 857 507.5 c 128,-1,54
 887 437 887 437 887 357 c 256,55,56
 887 277 887 277 857 206.5 c 128,-1,57
 827 136 827 136 774 83 c 128,-1,58
 721 30 721 30 650.5 0 c 128,-1,59
 580 -30 580 -30 500 -30 c 256,40,41
500 0 m 256,60,61
 574 0 574 0 638.5 28 c 128,-1,62
 703 56 703 56 752 105 c 128,-1,63
 801 154 801 154 829 218.5 c 128,-1,64
 857 283 857 283 857 357 c 256,65,66
 857 431 857 431 829 495.5 c 128,-1,67
 801 560 801 560 752 609 c 128,-1,68
 703 658 703 658 638.5 686 c 128,-1,69
 574 714 574 714 500 714 c 256,70,71
 426 714 426 714 361.5 686 c 128,-1,72
 297 658 297 658 248 609 c 128,-1,73
 199 560 199 560 171 495.5 c 128,-1,74
 143 431 143 431 143 357 c 256,75,76
 143 283 143 283 171 218.5 c 128,-1,77
 199 154 199 154 248 105 c 128,-1,78
 297 56 297 56 361.5 28 c 128,-1,79
 426 0 426 0 500 0 c 256,60,61
500 135 m 0,80,81
 428 135 428 135 390 166.5 c 128,-1,82
 352 198 352 198 352 255 c 0,83,84
 352 327 352 327 427 367 c 1,85,86
 397 387 397 387 381 408.5 c 128,-1,87
 365 430 365 430 365 468 c 0,88,89
 365 519 365 519 403.5 549.5 c 128,-1,90
 442 580 442 580 500 580 c 0,91,92
 559 580 559 580 595.5 550.5 c 128,-1,93
 632 521 632 521 632 471 c 0,94,95
 632 410 632 410 562 370 c 1,96,97
 646 333 646 333 646 258 c 0,98,99
 646 202 646 202 605.5 168.5 c 128,-1,100
 565 135 565 135 500 135 c 0,80,81
501 397 m 1,101,102
 566 423 566 423 566 469 c 0,103,104
 566 495 566 495 548 510 c 128,-1,105
 530 525 530 525 499 525 c 0,106,107
 467 525 467 525 449.5 510 c 128,-1,108
 432 495 432 495 432 469 c 0,109,110
 432 426 432 426 501 397 c 1,101,102
498 191 m 0,111,112
 578 191 578 191 578 255 c 0,113,114
 578 307 578 307 497 335 c 2,115,-1
 484 340 l 1,116,117
 419 309 419 309 419 255 c 0,118,119
 419 191 419 191 498 191 c 0,111,112
EndSplineSet
EndChar
StartChar: filledbox
Encoding: 9632 9632 2766
Width: 834
Flags: W
LayerCount: 2
Fore
SplineSet
51 -4 m 1,0,-1
 51 728 l 1,1,-1
 783 728 l 1,2,-1
 783 -4 l 1,3,-1
 51 -4 l 1,0,-1
EndSplineSet
EndChar
StartChar: uni25A5
Encoding: 9637 9637 219
Width: 834
Flags: W
LayerCount: 2
Fore
SplineSet
51 -4 m 1,0,-1
 51 728 l 1,1,-1
 783 728 l 1,2,-1
 783 -4 l 1,3,-1
 51 -4 l 1,0,-1
96 41 m 1,4,-1
 222 41 l 1,5,-1
 222 683 l 1,6,-1
 96 683 l 1,7,-1
 96 41 l 1,4,-1
268 41 m 1,8,-1
 394 41 l 1,9,-1
 394 683 l 1,10,-1
 268 683 l 1,11,-1
 268 41 l 1,8,-1
439 41 m 1,12,-1
 565 41 l 1,13,-1
 565 683 l 1,14,-1
 439 683 l 1,15,-1
 439 41 l 1,12,-1
611 41 m 1,16,-1
 738 41 l 1,17,-1
 738 683 l 1,18,-1
 611 683 l 1,19,-1
 611 41 l 1,16,-1
EndSplineSet
EndChar
StartChar: uni25A7
Encoding: 9639 9639 2591
Width: 834
Flags: W
LayerCount: 2
Fore
SplineSet
51 -4 m 1,0,-1
 51 728 l 1,1,-1
 783 728 l 1,2,-1
 783 -4 l 1,3,-1
 51 -4 l 1,0,-1
738 68 m 1,4,-1
 738 246 l 1,5,-1
 303 683 l 1,6,-1
 124 683 l 1,7,-1
 738 68 l 1,4,-1
738 309 m 1,8,-1
 738 491 l 1,9,-1
 547 683 l 1,10,-1
 367 683 l 1,11,-1
 738 309 l 1,8,-1
738 555 m 1,12,-1
 738 683 l 1,13,-1
 610 683 l 1,14,-1
 738 555 l 1,12,-1
521 41 m 1,15,-1
 700 41 l 1,16,-1
 96 646 l 1,17,-1
 96 468 l 1,18,-1
 521 41 l 1,15,-1
286 41 m 1,19,-1
 457 41 l 1,20,-1
 96 405 l 1,21,-1
 96 233 l 1,22,-1
 286 41 l 1,19,-1
96 41 m 1,23,-1
 222 41 l 1,24,-1
 96 169 l 1,25,-1
 96 41 l 1,23,-1
EndSplineSet
EndChar
StartChar: uni25A8
Encoding: 9640 9640 222
Width: 834
Flags: W
LayerCount: 2
Fore
SplineSet
51 -4 m 1,0,-1
 51 728 l 1,1,-1
 783 728 l 1,2,-1
 783 -4 l 1,3,-1
 51 -4 l 1,0,-1
96 309 m 1,4,-1
 467 683 l 1,5,-1
 287 683 l 1,6,-1
 96 491 l 1,7,-1
 96 309 l 1,4,-1
96 68 m 1,8,-1
 710 683 l 1,9,-1
 531 683 l 1,10,-1
 96 246 l 1,11,-1
 96 68 l 1,8,-1
96 555 m 1,12,-1
 224 683 l 1,13,-1
 96 683 l 1,14,-1
 96 555 l 1,12,-1
134 41 m 1,15,-1
 313 41 l 1,16,-1
 738 468 l 1,17,-1
 738 646 l 1,18,-1
 134 41 l 1,15,-1
377 41 m 1,19,-1
 548 41 l 1,20,-1
 738 233 l 1,21,-1
 738 405 l 1,22,-1
 377 41 l 1,19,-1
612 41 m 1,23,-1
 738 41 l 1,24,-1
 738 169 l 1,25,-1
 612 41 l 1,23,-1
EndSplineSet
EndChar
StartChar: uni25A9
Encoding: 9641 9641 2586
Width: 834
Flags: W
LayerCount: 2
Fore
SplineSet
51 -4 m 1,0,-1
 51 728 l 1,1,-1
 783 728 l 1,2,-1
 783 -4 l 1,3,-1
 51 -4 l 1,0,-1
418 630 m 1,4,-1
 470 683 l 1,5,-1
 367 683 l 1,6,-1
 418 630 l 1,4,-1
297 509 m 1,7,-1
 386 598 l 1,8,-1
 303 683 l 1,9,-1
 290 683 l 1,10,-1
 206 599 l 1,11,-1
 297 509 l 1,7,-1
175 631 m 1,12,-1
 226 683 l 1,13,-1
 124 683 l 1,14,-1
 175 631 l 1,12,-1
539 509 m 1,15,-1
 629 599 l 1,16,-1
 547 683 l 1,17,-1
 533 683 l 1,18,-1
 450 598 l 1,19,-1
 539 509 l 1,15,-1
661 631 m 1,20,-1
 712 683 l 1,21,-1
 610 683 l 1,22,-1
 661 631 l 1,20,-1
96 553 m 1,23,-1
 143 599 l 1,24,-1
 96 646 l 1,25,-1
 96 553 l 1,23,-1
738 555 m 1,26,-1
 738 644 l 1,27,-1
 694 599 l 1,28,-1
 738 555 l 1,26,-1
176 388 m 1,29,-1
 265 477 l 1,30,-1
 175 566 l 1,31,-1
 96 488 l 1,32,-1
 96 468 l 1,33,-1
 176 388 l 1,29,-1
659 388 m 1,34,-1
 738 466 l 1,35,-1
 738 491 l 1,36,-1
 661 566 l 1,37,-1
 571 476 l 1,38,-1
 659 388 l 1,34,-1
418 388 m 1,39,-1
 508 477 l 1,40,-1
 418 566 l 1,41,-1
 329 477 l 1,42,-1
 418 388 l 1,39,-1
297 267 m 1,43,-1
 386 356 l 1,44,-1
 297 445 l 1,45,-1
 208 356 l 1,46,-1
 297 267 l 1,43,-1
539 267 m 1,47,-1
 628 356 l 1,48,-1
 539 444 l 1,49,-1
 450 355 l 1,50,-1
 539 267 l 1,47,-1
96 307 m 1,51,-1
 144 356 l 1,52,-1
 96 405 l 1,53,-1
 96 307 l 1,51,-1
738 309 m 1,54,-1
 738 402 l 1,55,-1
 691 356 l 1,56,-1
 738 309 l 1,54,-1
180 149 m 1,57,-1
 265 235 l 1,58,-1
 176 324 l 1,59,-1
 96 243 l 1,60,-1
 96 233 l 1,61,-1
 180 149 l 1,57,-1
657 149 m 1,62,-1
 738 231 l 1,63,-1
 738 246 l 1,64,-1
 659 324 l 1,65,-1
 571 235 l 1,66,-1
 657 149 l 1,62,-1
418 144 m 1,67,-1
 508 235 l 1,68,-1
 418 323 l 1,69,-1
 329 233 l 1,70,-1
 418 144 l 1,67,-1
521 41 m 1,71,-1
 550 41 l 1,72,-1
 625 116 l 1,73,-1
 539 203 l 1,74,-1
 450 112 l 1,75,-1
 521 41 l 1,71,-1
286 41 m 1,76,-1
 315 41 l 1,77,-1
 386 112 l 1,78,-1
 297 202 l 1,79,-1
 211 116 l 1,80,-1
 286 41 l 1,76,-1
96 66 m 1,81,-1
 148 117 l 1,82,-1
 96 169 l 1,83,-1
 96 66 l 1,81,-1
738 68 m 1,84,-1
 738 165 l 1,85,-1
 689 116 l 1,86,-1
 738 68 l 1,84,-1
614 41 m 1,87,-1
 700 41 l 1,88,-1
 657 84 l 1,89,-1
 614 41 l 1,87,-1
137 41 m 1,90,-1
 222 41 l 1,91,-1
 180 84 l 1,92,-1
 137 41 l 1,90,-1
379 41 m 1,93,-1
 457 41 l 1,94,-1
 418 80 l 1,95,-1
 379 41 l 1,93,-1
EndSplineSet
EndChar
StartChar: uni25AA
Encoding: 9642 9642 224
Width: 350
Flags: W
LayerCount: 2
Fore
SplineSet
51 238 m 1,0,-1
 51 486 l 1,1,-1
 299 486 l 1,2,-1
 299 238 l 1,3,-1
 51 238 l 1,0,-1
EndSplineSet
EndChar
StartChar: uni25AB
Encoding: 9643 9643 2452
Width: 352
Flags: W
LayerCount: 2
Fore
SplineSet
51 237 m 1,0,-1
 51 487 l 1,1,-1
 301 487 l 1,2,-1
 301 237 l 1,3,-1
 51 237 l 1,0,-1
88 274 m 1,4,-1
 264 274 l 1,5,-1
 264 450 l 1,6,-1
 88 450 l 1,7,-1
 88 274 l 1,4,-1
EndSplineSet
EndChar
StartChar: uni25AE
Encoding: 9646 9646 2845
Width: 1000
Flags: W
LayerCount: 2
Fore
SplineSet
349 -287 m 1,0,-1
 349 713 l 1,1,-1
 650 713 l 1,2,-1
 650 -287 l 1,3,-1
 349 -287 l 1,0,-1
EndSplineSet
EndChar
StartChar: uni25AF
Encoding: 9647 9647 2875
Width: 1000
Flags: W
LayerCount: 2
Fore
SplineSet
349 -287 m 1,0,-1
 349 713 l 1,1,-1
 650 713 l 1,2,-1
 650 -287 l 1,3,-1
 349 -287 l 1,0,-1
386 -250 m 1,4,-1
 613 -250 l 1,5,-1
 613 676 l 1,6,-1
 386 676 l 1,7,-1
 386 -250 l 1,4,-1
EndSplineSet
EndChar
StartChar: uni25B1
Encoding: 9649 9649 208
Width: 1000
Flags: W
LayerCount: 2
Fore
SplineSet
3 63 m 1,0,-1
 67 364 l 1,1,-1
 997 364 l 1,2,-1
 933 63 l 1,3,-1
 3 63 l 1,0,-1
48 100 m 1,4,-1
 904 100 l 1,5,-1
 952 327 l 1,6,-1
 96 327 l 1,7,-1
 48 100 l 1,4,-1
EndSplineSet
EndChar
StartChar: uni25B3
Encoding: 9651 9651 241
Width: 907
Flags: W
LayerCount: 2
Fore
SplineSet
51 0 m 1,0,-1
 454 697 l 1,1,-1
 856 0 l 1,2,-1
 51 0 l 1,0,-1
120 40 m 1,3,-1
 787 40 l 1,4,-1
 454 618 l 1,5,-1
 120 40 l 1,3,-1
EndSplineSet
EndChar
StartChar: uni25B4
Encoding: 9652 9652 2058
Width: 370
Flags: W
LayerCount: 2
Fore
SplineSet
36 174 m 1,0,-1
 185 471 l 1,1,-1
 333 174 l 1,2,-1
 36 174 l 1,0,-1
EndSplineSet
EndChar
StartChar: uni25B6
Encoding: 9654 9654 2777
Width: 799
Flags: W
LayerCount: 2
Fore
SplineSet
51 -54 m 1,0,-1
 51 751 l 1,1,-1
 748 349 l 1,2,-1
 51 -54 l 1,0,-1
EndSplineSet
EndChar
StartChar: uni25B7
Encoding: 9655 9655 2650
Width: 799
Flags: W
LayerCount: 2
Fore
SplineSet
51 -54 m 1,0,-1
 51 751 l 1,1,-1
 748 348 l 1,2,-1
 51 -54 l 1,0,-1
91 15 m 1,3,-1
 669 348 l 1,4,-1
 91 682 l 1,5,-1
 91 15 l 1,3,-1
EndSplineSet
EndChar
StartChar: uni25B8
Encoding: 9656 9656 253
Width: 370
Flags: W
LayerCount: 2
Fore
SplineSet
36 174 m 1,0,-1
 36 471 l 1,1,-1
 333 322 l 1,2,-1
 36 174 l 1,0,-1
EndSplineSet
EndChar
StartChar: uni25B9
Encoding: 9657 9657 2441
Width: 370
Flags: W
LayerCount: 2
Fore
SplineSet
36 174 m 1,0,-1
 36 471 l 1,1,-1
 333 322 l 1,2,-1
 36 174 l 1,0,-1
73 235 m 1,3,-1
 253 322 l 1,4,-1
 73 410 l 1,5,-1
 73 235 l 1,3,-1
EndSplineSet
EndChar
StartChar: triagrt
Encoding: 9658 9658 248
Width: 733
Flags: W
LayerCount: 2
Fore
SplineSet
51 158 m 1,0,-1
 51 487 l 1,1,-1
 682 322 l 1,2,-1
 51 158 l 1,0,-1
EndSplineSet
EndChar
StartChar: uni25BE
Encoding: 9662 9662 254
Width: 370
Flags: W
LayerCount: 2
Fore
SplineSet
185 174 m 1,0,-1
 36 471 l 1,1,-1
 333 471 l 1,2,-1
 185 174 l 1,0,-1
EndSplineSet
EndChar
StartChar: uni25C2
Encoding: 9666 9666 2335
Width: 370
Flags: W
LayerCount: 2
Fore
SplineSet
333 174 m 1,0,-1
 36 322 l 1,1,-1
 333 471 l 1,2,-1
 333 174 l 1,0,-1
EndSplineSet
EndChar
StartChar: triaglf
Encoding: 9668 9668 249
Width: 733
Flags: W
LayerCount: 2
Fore
SplineSet
682 158 m 1,0,-1
 51 322 l 1,1,-1
 682 487 l 1,2,-1
 682 158 l 1,0,-1
EndSplineSet
EndChar
StartChar: lozenge
Encoding: 9674 9674 4
Width: 720
Flags: W
LayerCount: 2
Fore
SplineSet
360 -157 m 1,0,-1
 51 364 l 1,1,-1
 360 881 l 1,2,-1
 669 364 l 1,3,-1
 360 -157 l 1,0,-1
360 -51 m 1,4,-1
 605 364 l 1,5,-1
 360 775 l 1,6,-1
 115 364 l 1,7,-1
 360 -51 l 1,4,-1
EndSplineSet
EndChar
